NotoSansKannada-Condensed.ufo
<glyph name="exclam.knda" format="2">
  <advance width="252"/>
  <unicode hex="0021"/>
  <outline>
    <contour>
      <point x="154" y="194" type="line"/>
      <point x="174" y="696" type="line"/>
      <point x="76" y="696" type="line"/>
      <point x="96" y="194" type="line"/>
    </contour>
    <contour>
      <point x="72" y="52" type="curve" smooth="yes"/>
      <point x="72" y="10"/>
      <point x="91" y="-12"/>
      <point x="126" y="-12" type="curve" smooth="yes"/>
      <point x="157" y="-12"/>
      <point x="180" y="8"/>
      <point x="180" y="52" type="curve" smooth="yes"/>
      <point x="180" y="97"/>
      <point x="159" y="116"/>
      <point x="126" y="116" type="curve" smooth="yes"/>
      <point x="90" y="116"/>
      <point x="72" y="94"/>
    </contour>
  </outline>
</glyph>
<glyph name="quotedbl.knda" format="2">
  <advance width="376"/>
  <unicode hex="0022"/>
  <outline>
    <contour>
      <point x="82" y="535" type="line"/>
      <point x="135" y="535" type="line"/>
      <point x="155" y="793" type="line"/>
      <point x="61" y="793" type="line"/>
    </contour>
    <contour>
      <point x="241" y="535" type="line"/>
      <point x="294" y="535" type="line"/>
      <point x="315" y="793" type="line"/>
      <point x="221" y="793" type="line"/>
    </contour>
  </outline>
</glyph>
<glyph name="numbersign.knda" format="2">
  <advance width="497"/>
  <unicode hex="0023"/>
  <outline>
    <contour>
      <point x="63" y="0" type="line"/>
      <point x="125" y="0" type="line"/>
      <point x="164" y="204" type="line"/>
      <point x="275" y="204" type="line"/>
      <point x="236" y="0" type="line"/>
      <point x="298" y="0" type="line"/>
      <point x="337" y="204" type="line"/>
      <point x="450" y="204" type="line"/>
      <point x="450" y="267" type="line"/>
      <point x="349" y="267" type="line"/>
      <point x="378" y="422" type="line"/>
      <point x="473" y="422" type="line"/>
      <point x="473" y="485" type="line"/>
      <point x="390" y="485" type="line"/>
      <point x="429" y="690" type="line"/>
      <point x="367" y="690" type="line"/>
      <point x="328" y="485" type="line"/>
      <point x="217" y="485" type="line"/>
      <point x="256" y="690" type="line"/>
      <point x="194" y="690" type="line"/>
      <point x="155" y="485" type="line"/>
      <point x="47" y="485" type="line"/>
      <point x="47" y="422" type="line"/>
      <point x="143" y="422" type="line"/>
      <point x="114" y="267" type="line"/>
      <point x="24" y="267" type="line"/>
      <point x="24" y="204" type="line"/>
      <point x="102" y="204" type="line"/>
    </contour>
    <contour>
      <point x="176" y="267" type="line"/>
      <point x="205" y="422" type="line"/>
      <point x="316" y="422" type="line"/>
      <point x="287" y="267" type="line"/>
    </contour>
  </outline>
</glyph>
<glyph name="percent.knda" format="2">
  <advance width="675"/>
  <unicode hex="0025"/>
  <outline>
    <contour>
      <point x="179" y="0" type="line"/>
      <point x="245" y="0" type="line"/>
      <point x="495" y="690" type="line"/>
      <point x="429" y="690" type="line"/>
    </contour>
    <contour>
      <point x="160" y="276" type="curve" smooth="yes"/>
      <point x="239" y="276"/>
      <point x="278" y="350"/>
      <point x="278" y="490" type="curve" smooth="yes"/>
      <point x="278" y="627"/>
      <point x="240" y="702"/>
      <point x="163" y="702" type="curve" smooth="yes"/>
      <point x="84" y="702"/>
      <point x="45" y="628"/>
      <point x="45" y="488" type="curve" smooth="yes"/>
      <point x="45" y="351"/>
      <point x="83" y="276"/>
    </contour>
    <contour>
      <point x="161" y="336" type="curve" smooth="yes"/>
      <point x="127" y="336"/>
      <point x="112" y="385"/>
      <point x="112" y="489" type="curve" smooth="yes"/>
      <point x="112" y="593"/>
      <point x="126" y="642"/>
      <point x="162" y="642" type="curve" smooth="yes"/>
      <point x="196" y="642"/>
      <point x="211" y="593"/>
      <point x="211" y="489" type="curve" smooth="yes"/>
      <point x="211" y="385"/>
      <point x="197" y="336"/>
    </contour>
    <contour>
      <point x="512" y="-12" type="curve" smooth="yes"/>
      <point x="591" y="-12"/>
      <point x="630" y="62"/>
      <point x="630" y="202" type="curve" smooth="yes"/>
      <point x="630" y="339"/>
      <point x="592" y="414"/>
      <point x="515" y="414" type="curve" smooth="yes"/>
      <point x="436" y="414"/>
      <point x="397" y="340"/>
      <point x="397" y="200" type="curve" smooth="yes"/>
      <point x="397" y="63"/>
      <point x="435" y="-12"/>
    </contour>
    <contour>
      <point x="513" y="48" type="curve" smooth="yes"/>
      <point x="479" y="48"/>
      <point x="464" y="97"/>
      <point x="464" y="201" type="curve" smooth="yes"/>
      <point x="464" y="305"/>
      <point x="478" y="354"/>
      <point x="514" y="354" type="curve" smooth="yes"/>
      <point x="548" y="354"/>
      <point x="563" y="305"/>
      <point x="563" y="201" type="curve" smooth="yes"/>
      <point x="563" y="97"/>
      <point x="549" y="48"/>
    </contour>
  </outline>
</glyph>
<glyph name="quotesingle.knda" format="2">
  <advance width="216"/>
  <unicode hex="0027"/>
  <outline>
    <contour>
      <point x="82" y="535" type="line"/>
      <point x="135" y="535" type="line"/>
      <point x="155" y="793" type="line"/>
      <point x="61" y="793" type="line"/>
    </contour>
  </outline>
</glyph>
<glyph name="parenleft.knda" format="2">
  <advance width="370"/>
  <unicode hex="0028"/>
  <outline>
    <contour>
      <point x="45" y="218" type="curve" smooth="yes"/>
      <point x="45" y="1"/>
      <point x="104" y="-208"/>
      <point x="228" y="-368" type="curve"/>
      <point x="308" y="-368" type="line"/>
      <point x="182" y="-181"/>
      <point x="128" y="4"/>
      <point x="128" y="217" type="curve" smooth="yes"/>
      <point x="128" y="424"/>
      <point x="185" y="611"/>
      <point x="307" y="793" type="curve"/>
      <point x="228" y="793" type="line"/>
      <point x="105" y="633"/>
      <point x="45" y="432"/>
    </contour>
  </outline>
</glyph>
<glyph name="parenright.knda" format="2">
  <advance width="370"/>
  <unicode hex="0029"/>
  <outline>
    <contour>
      <point x="325" y="207" type="curve" smooth="yes"/>
      <point x="325" y="424"/>
      <point x="266" y="633"/>
      <point x="142" y="793" type="curve"/>
      <point x="62" y="793" type="line"/>
      <point x="188" y="606"/>
      <point x="242" y="421"/>
      <point x="242" y="208" type="curve" smooth="yes"/>
      <point x="242" y="1"/>
      <point x="185" y="-186"/>
      <point x="63" y="-368" type="curve"/>
      <point x="142" y="-368" type="line"/>
      <point x="265" y="-208"/>
      <point x="325" y="-7"/>
    </contour>
  </outline>
</glyph>
<glyph name="asterisk.knda" format="2">
  <advance width="513"/>
  <unicode hex="002A"/>
  <outline>
    <contour>
      <point x="298" y="793" type="line"/>
      <point x="212" y="793" type="line"/>
      <point x="228" y="617" type="line"/>
      <point x="53" y="665" type="line"/>
      <point x="39" y="581" type="line"/>
      <point x="212" y="567" type="line"/>
      <point x="102" y="419" type="line"/>
      <point x="180" y="375" type="line"/>
      <point x="254" y="542" type="line"/>
      <point x="335" y="375" type="line"/>
      <point x="411" y="419" type="line"/>
      <point x="299" y="567" type="line"/>
      <point x="474" y="581" type="line"/>
      <point x="459" y="665" type="line"/>
      <point x="283" y="616" type="line"/>
    </contour>
  </outline>
</glyph>
<glyph name="plus.knda" format="2">
  <advance width="429"/>
  <unicode hex="002B"/>
  <outline>
    <contour>
      <point x="180" y="109" type="line"/>
      <point x="249" y="109" type="line"/>
      <point x="249" y="309" type="line"/>
      <point x="398" y="309" type="line"/>
      <point x="398" y="377" type="line"/>
      <point x="249" y="377" type="line"/>
      <point x="249" y="578" type="line"/>
      <point x="180" y="578" type="line"/>
      <point x="180" y="377" type="line"/>
      <point x="30" y="377" type="line"/>
      <point x="30" y="309" type="line"/>
      <point x="180" y="309" type="line"/>
    </contour>
  </outline>
</glyph>
<glyph name="comma.knda" format="2">
  <advance width="257"/>
  <unicode hex="002C"/>
  <outline>
    <contour>
      <point x="179" y="119" type="line"/>
      <point x="93" y="119" type="line"/>
      <point x="86" y="47"/>
      <point x="69" y="-45"/>
      <point x="48" y="-126" type="curve"/>
      <point x="110" y="-126" type="line"/>
      <point x="142" y="-54"/>
      <point x="166" y="24"/>
      <point x="186" y="108" type="curve"/>
    </contour>
  </outline>
</glyph>
<glyph name="hyphen.knda" format="2">
  <advance width="308"/>
  <unicode hex="002D"/>
  <outline>
    <contour>
      <point x="38" y="247" type="line"/>
      <point x="270" y="247" type="line"/>
      <point x="270" y="320" type="line"/>
      <point x="38" y="320" type="line"/>
    </contour>
  </outline>
</glyph>
<glyph name="period.knda" format="2">
  <advance width="252"/>
  <unicode hex="002E"/>
  <outline>
    <contour>
      <point x="72" y="52" type="curve" smooth="yes"/>
      <point x="72" y="10"/>
      <point x="92" y="-12"/>
      <point x="126" y="-12" type="curve" smooth="yes"/>
      <point x="158" y="-12"/>
      <point x="180" y="8"/>
      <point x="180" y="52" type="curve" smooth="yes"/>
      <point x="180" y="97"/>
      <point x="159" y="116"/>
      <point x="126" y="116" type="curve" smooth="yes"/>
      <point x="91" y="116"/>
      <point x="72" y="94"/>
    </contour>
  </outline>
</glyph>
<glyph name="slash.knda" format="2">
  <advance width="451"/>
  <unicode hex="002F"/>
  <outline>
    <contour>
      <point x="381" y="793" type="line"/>
      <point x="306" y="793" type="line"/>
      <point x="70" y="-368" type="line"/>
      <point x="145" y="-368" type="line"/>
    </contour>
  </outline>
</glyph>
<glyph name="zero.knda" format="2">
  <advance width="429"/>
  <unicode hex="0030"/>
  <outline>
    <contour>
      <point x="387" y="345" type="curve" smooth="yes"/>
      <point x="387" y="585"/>
      <point x="331" y="702"/>
      <point x="214" y="702" type="curve" smooth="yes"/>
      <point x="98" y="702"/>
      <point x="41" y="586"/>
      <point x="41" y="345" type="curve" smooth="yes"/>
      <point x="41" y="66"/>
      <point x="106" y="-12"/>
      <point x="214" y="-12" type="curve" smooth="yes"/>
      <point x="337" y="-12"/>
      <point x="387" y="120"/>
    </contour>
    <contour>
      <point x="123" y="345" type="curve" smooth="yes"/>
      <point x="123" y="535"/>
      <point x="149" y="626"/>
      <point x="214" y="626" type="curve" smooth="yes"/>
      <point x="278" y="626"/>
      <point x="305" y="533"/>
      <point x="305" y="345" type="curve" smooth="yes"/>
      <point x="305" y="156"/>
      <point x="278" y="64"/>
      <point x="214" y="64" type="curve" smooth="yes"/>
      <point x="149" y="64"/>
      <point x="123" y="155"/>
    </contour>
  </outline>
</glyph>
<glyph name="one.knda" format="2">
  <advance width="429"/>
  <unicode hex="0031"/>
  <outline>
    <contour>
      <point x="293" y="0" type="line"/>
      <point x="293" y="697" type="line"/>
      <point x="223" y="697" type="line"/>
      <point x="63" y="540" type="line"/>
      <point x="110" y="489" type="line"/>
      <point x="172" y="549" type="line" smooth="yes"/>
      <point x="194" y="571"/>
      <point x="208" y="587"/>
      <point x="216" y="598" type="curve"/>
      <point x="214" y="553"/>
      <point x="212" y="507"/>
      <point x="212" y="464" type="curve" smooth="yes"/>
      <point x="212" y="0" type="line"/>
    </contour>
  </outline>
</glyph>
<glyph name="two.knda" format="2">
  <advance width="429"/>
  <unicode hex="0032"/>
  <outline>
    <contour>
      <point x="382" y="0" type="line"/>
      <point x="382" y="75" type="line"/>
      <point x="130" y="75" type="line"/>
      <point x="130" y="79" type="line"/>
      <point x="246" y="238" type="line" smooth="yes"/>
      <point x="321" y="341"/>
      <point x="367" y="418"/>
      <point x="367" y="528" type="curve" smooth="yes"/>
      <point x="367" y="631"/>
      <point x="304" y="702"/>
      <point x="197" y="702" type="curve" smooth="yes"/>
      <point x="133" y="702"/>
      <point x="83" y="677"/>
      <point x="37" y="645" type="curve"/>
      <point x="76" y="584" type="line"/>
      <point x="109" y="611"/>
      <point x="149" y="627"/>
      <point x="190" y="627" type="curve" smooth="yes"/>
      <point x="251" y="627"/>
      <point x="285" y="585"/>
      <point x="285" y="519" type="curve" smooth="yes"/>
      <point x="285" y="446"/>
      <point x="249" y="368"/>
      <point x="187" y="280" type="curve" smooth="yes"/>
      <point x="33" y="61" type="line"/>
      <point x="33" y="0" type="line"/>
    </contour>
  </outline>
</glyph>
<glyph name="three.knda" format="2">
  <advance width="429"/>
  <unicode hex="0033"/>
  <outline>
    <contour>
      <point x="365" y="532" type="curve" smooth="yes"/>
      <point x="365" y="636"/>
      <point x="302" y="702"/>
      <point x="196" y="702" type="curve" smooth="yes"/>
      <point x="133" y="702"/>
      <point x="85" y="685"/>
      <point x="29" y="646" type="curve"/>
      <point x="69" y="586" type="line"/>
      <point x="106" y="612"/>
      <point x="143" y="629"/>
      <point x="187" y="629" type="curve" smooth="yes"/>
      <point x="250" y="629"/>
      <point x="284" y="590"/>
      <point x="284" y="523" type="curve" smooth="yes"/>
      <point x="284" y="446"/>
      <point x="234" y="393"/>
      <point x="148" y="393" type="curve" smooth="yes"/>
      <point x="109" y="393" type="line"/>
      <point x="109" y="320" type="line"/>
      <point x="145" y="320" type="line" smooth="yes"/>
      <point x="245" y="320"/>
      <point x="292" y="275"/>
      <point x="292" y="194" type="curve" smooth="yes"/>
      <point x="292" y="115"/>
      <point x="255" y="61"/>
      <point x="173" y="61" type="curve" smooth="yes"/>
      <point x="115" y="61"/>
      <point x="77" y="70"/>
      <point x="34" y="89" type="curve"/>
      <point x="34" y="10" type="line"/>
      <point x="73" y="-5"/>
      <point x="120" y="-12"/>
      <point x="181" y="-12" type="curve" smooth="yes"/>
      <point x="305" y="-12"/>
      <point x="377" y="68"/>
      <point x="377" y="189" type="curve" smooth="yes"/>
      <point x="377" y="281"/>
      <point x="331" y="342"/>
      <point x="247" y="359" type="curve"/>
      <point x="247" y="363" type="line"/>
      <point x="325" y="390"/>
      <point x="365" y="451"/>
    </contour>
  </outline>
</glyph>
<glyph name="four.knda" format="2">
  <advance width="429"/>
  <unicode hex="0034"/>
  <outline>
    <contour>
      <point x="415" y="155" type="line"/>
      <point x="415" y="226" type="line"/>
      <point x="339" y="226" type="line"/>
      <point x="339" y="697" type="line"/>
      <point x="255" y="697" type="line"/>
      <point x="17" y="223" type="line"/>
      <point x="17" y="155" type="line"/>
      <point x="259" y="155" type="line"/>
      <point x="259" y="0" type="line"/>
      <point x="339" y="0" type="line"/>
      <point x="339" y="155" type="line"/>
    </contour>
    <contour>
      <point x="259" y="226" type="line"/>
      <point x="91" y="226" type="line"/>
      <point x="222" y="502" type="line"/>
      <point x="235" y="528"/>
      <point x="248" y="557"/>
      <point x="259" y="588" type="curve"/>
      <point x="262" y="588" type="line"/>
      <point x="261" y="560"/>
      <point x="259" y="506"/>
      <point x="259" y="475" type="curve" smooth="yes"/>
    </contour>
  </outline>
</glyph>
<glyph name="five.knda" format="2">
  <advance width="429"/>
  <unicode hex="0035"/>
  <outline>
    <contour>
      <point x="180" y="-12" type="curve" smooth="yes"/>
      <point x="313" y="-12"/>
      <point x="385" y="82"/>
      <point x="385" y="224" type="curve" smooth="yes"/>
      <point x="385" y="344"/>
      <point x="319" y="427"/>
      <point x="205" y="427" type="curve" smooth="yes"/>
      <point x="187" y="427"/>
      <point x="157" y="425"/>
      <point x="129" y="419" type="curve"/>
      <point x="142" y="614" type="line"/>
      <point x="346" y="614" type="line"/>
      <point x="346" y="690" type="line"/>
      <point x="74" y="690" type="line"/>
      <point x="55" y="372" type="line"/>
      <point x="88" y="340" type="line"/>
      <point x="120" y="350"/>
      <point x="151" y="356"/>
      <point x="183" y="356" type="curve" smooth="yes"/>
      <point x="258" y="356"/>
      <point x="302" y="310"/>
      <point x="302" y="221" type="curve" smooth="yes"/>
      <point x="302" y="133"/>
      <point x="261" y="61"/>
      <point x="176" y="61" type="curve" smooth="yes"/>
      <point x="125" y="61"/>
      <point x="85" y="71"/>
      <point x="49" y="92" type="curve"/>
      <point x="49" y="11" type="line"/>
      <point x="81" y="-2"/>
      <point x="127" y="-12"/>
    </contour>
  </outline>
</glyph>
<glyph name="six.knda" format="2">
  <advance width="429"/>
  <unicode hex="0036"/>
  <outline>
    <contour>
      <point x="47" y="293" type="curve" smooth="yes"/>
      <point x="47" y="97"/>
      <point x="110" y="-12"/>
      <point x="224" y="-12" type="curve" smooth="yes"/>
      <point x="336" y="-12"/>
      <point x="391" y="88"/>
      <point x="391" y="220" type="curve" smooth="yes"/>
      <point x="391" y="343"/>
      <point x="343" y="440"/>
      <point x="243" y="440" type="curve" smooth="yes"/>
      <point x="192" y="440"/>
      <point x="151" y="410"/>
      <point x="129" y="360" type="curve"/>
      <point x="125" y="360" type="line"/>
      <point x="131" y="538"/>
      <point x="184" y="628"/>
      <point x="283" y="628" type="curve" smooth="yes"/>
      <point x="309" y="628"/>
      <point x="333" y="624"/>
      <point x="354" y="617" type="curve"/>
      <point x="354" y="692" type="line"/>
      <point x="333" y="698"/>
      <point x="308" y="702"/>
      <point x="280" y="702" type="curve" smooth="yes"/>
      <point x="113" y="702"/>
      <point x="47" y="551"/>
    </contour>
    <contour>
      <point x="223" y="63" type="curve" smooth="yes"/>
      <point x="156" y="63"/>
      <point x="130" y="160"/>
      <point x="130" y="248" type="curve" smooth="yes"/>
      <point x="130" y="309"/>
      <point x="162" y="366"/>
      <point x="223" y="366" type="curve" smooth="yes"/>
      <point x="281" y="366"/>
      <point x="310" y="315"/>
      <point x="310" y="218" type="curve" smooth="yes"/>
      <point x="310" y="113"/>
      <point x="278" y="63"/>
    </contour>
  </outline>
</glyph>
<glyph name="seven.knda" format="2">
  <advance width="429"/>
  <unicode hex="0037"/>
  <outline>
    <contour>
      <point x="93" y="0" type="line"/>
      <point x="178" y="0" type="line"/>
      <point x="393" y="628" type="line"/>
      <point x="393" y="690" type="line"/>
      <point x="31" y="690" type="line"/>
      <point x="31" y="613" type="line"/>
      <point x="311" y="613" type="line"/>
    </contour>
  </outline>
</glyph>
<glyph name="eight.knda" format="2">
  <advance width="429"/>
  <unicode hex="0038"/>
  <outline>
    <contour>
      <point x="216" y="702" type="curve" smooth="yes"/>
      <point x="116" y="702"/>
      <point x="51" y="638"/>
      <point x="51" y="538" type="curve" smooth="yes"/>
      <point x="51" y="469"/>
      <point x="83" y="411"/>
      <point x="151" y="360" type="curve"/>
      <point x="71" y="311"/>
      <point x="34" y="251"/>
      <point x="34" y="169" type="curve" smooth="yes"/>
      <point x="34" y="60"/>
      <point x="101" y="-12"/>
      <point x="219" y="-12" type="curve" smooth="yes"/>
      <point x="326" y="-12"/>
      <point x="396" y="64"/>
      <point x="396" y="174" type="curve" smooth="yes"/>
      <point x="396" y="259"/>
      <point x="344" y="312"/>
      <point x="269" y="361" type="curve"/>
      <point x="344" y="405"/>
      <point x="380" y="464"/>
      <point x="380" y="539" type="curve" smooth="yes"/>
      <point x="380" y="639"/>
      <point x="319" y="702"/>
    </contour>
    <contour>
      <point x="114" y="170" type="curve" smooth="yes"/>
      <point x="114" y="236"/>
      <point x="140" y="281"/>
      <point x="207" y="323" type="curve"/>
      <point x="227" y="310" type="line" smooth="yes"/>
      <point x="287" y="268"/>
      <point x="315" y="224"/>
      <point x="315" y="175" type="curve" smooth="yes"/>
      <point x="315" y="106"/>
      <point x="280" y="58"/>
      <point x="215" y="58" type="curve" smooth="yes"/>
      <point x="151" y="58"/>
      <point x="114" y="104"/>
    </contour>
    <contour>
      <point x="215" y="632" type="curve" smooth="yes"/>
      <point x="268" y="632"/>
      <point x="300" y="599"/>
      <point x="300" y="536" type="curve" smooth="yes"/>
      <point x="300" y="478"/>
      <point x="274" y="437"/>
      <point x="214" y="400" type="curve"/>
      <point x="159" y="436"/>
      <point x="131" y="474"/>
      <point x="131" y="533" type="curve" smooth="yes"/>
      <point x="131" y="595"/>
      <point x="166" y="632"/>
    </contour>
  </outline>
</glyph>
<glyph name="nine.knda" format="2">
  <advance width="429"/>
  <unicode hex="0039"/>
  <outline>
    <contour>
      <point x="383" y="404" type="curve" smooth="yes"/>
      <point x="383" y="595"/>
      <point x="322" y="702"/>
      <point x="211" y="702" type="curve" smooth="yes"/>
      <point x="94" y="702"/>
      <point x="39" y="601"/>
      <point x="39" y="471" type="curve" smooth="yes"/>
      <point x="39" y="348"/>
      <point x="86" y="250"/>
      <point x="187" y="250" type="curve" smooth="yes"/>
      <point x="240" y="250"/>
      <point x="279" y="280"/>
      <point x="301" y="330" type="curve"/>
      <point x="305" y="330" type="line"/>
      <point x="300" y="190"/>
      <point x="261" y="62"/>
      <point x="146" y="62" type="curve" smooth="yes"/>
      <point x="116" y="62"/>
      <point x="92" y="66"/>
      <point x="71" y="74" type="curve"/>
      <point x="71" y="-2" type="line"/>
      <point x="90" y="-7"/>
      <point x="124" y="-12"/>
      <point x="148" y="-12" type="curve" smooth="yes"/>
      <point x="312" y="-12"/>
      <point x="383" y="139"/>
    </contour>
    <contour>
      <point x="210" y="627" type="curve" smooth="yes"/>
      <point x="285" y="627"/>
      <point x="301" y="516"/>
      <point x="301" y="450" type="curve" smooth="yes"/>
      <point x="301" y="387"/>
      <point x="271" y="324"/>
      <point x="208" y="324" type="curve" smooth="yes"/>
      <point x="150" y="324"/>
      <point x="121" y="375"/>
      <point x="121" y="473" type="curve" smooth="yes"/>
      <point x="121" y="577"/>
      <point x="151" y="627"/>
    </contour>
  </outline>
</glyph>
<glyph name="colon.knda" format="2">
  <advance width="252"/>
  <unicode hex="003A"/>
  <outline>
    <contour>
      <point x="72" y="52" type="curve" smooth="yes"/>
      <point x="72" y="10"/>
      <point x="91" y="-12"/>
      <point x="126" y="-12" type="curve" smooth="yes"/>
      <point x="157" y="-12"/>
      <point x="180" y="8"/>
      <point x="180" y="52" type="curve" smooth="yes"/>
      <point x="180" y="97"/>
      <point x="159" y="116"/>
      <point x="126" y="116" type="curve" smooth="yes"/>
      <point x="90" y="116"/>
      <point x="72" y="94"/>
    </contour>
    <contour>
      <point x="72" y="388" type="curve" smooth="yes"/>
      <point x="72" y="345"/>
      <point x="91" y="323"/>
      <point x="126" y="323" type="curve" smooth="yes"/>
      <point x="157" y="323"/>
      <point x="180" y="344"/>
      <point x="180" y="388" type="curve" smooth="yes"/>
      <point x="180" y="430"/>
      <point x="161" y="452"/>
      <point x="126" y="452" type="curve" smooth="yes"/>
      <point x="90" y="452"/>
      <point x="72" y="430"/>
    </contour>
  </outline>
</glyph>
<glyph name="semicolon.knda" format="2">
  <advance width="257"/>
  <unicode hex="003B"/>
  <outline>
    <contour>
      <point x="179" y="119" type="line"/>
      <point x="93" y="119" type="line"/>
      <point x="86" y="47"/>
      <point x="69" y="-45"/>
      <point x="48" y="-126" type="curve"/>
      <point x="110" y="-126" type="line"/>
      <point x="142" y="-54"/>
      <point x="166" y="24"/>
      <point x="186" y="108" type="curve"/>
    </contour>
    <contour>
      <point x="79" y="388" type="curve" smooth="yes"/>
      <point x="79" y="345"/>
      <point x="98" y="323"/>
      <point x="133" y="323" type="curve" smooth="yes"/>
      <point x="164" y="323"/>
      <point x="187" y="344"/>
      <point x="187" y="388" type="curve" smooth="yes"/>
      <point x="187" y="430"/>
      <point x="168" y="452"/>
      <point x="133" y="452" type="curve" smooth="yes"/>
      <point x="97" y="452"/>
      <point x="79" y="430"/>
    </contour>
  </outline>
</glyph>
<glyph name="less.knda" format="2">
  <advance width="429"/>
  <unicode hex="003C"/>
  <outline>
    <contour>
      <point x="400" y="122" type="line"/>
      <point x="400" y="200" type="line"/>
      <point x="121" y="345" type="line"/>
      <point x="400" y="490" type="line"/>
      <point x="400" y="568" type="line"/>
      <point x="29" y="370" type="line"/>
      <point x="29" y="322" type="line"/>
    </contour>
  </outline>
</glyph>
<glyph name="equal.knda" format="2">
  <advance width="429"/>
  <unicode hex="003D"/>
  <outline>
    <contour>
      <point x="30" y="415" type="line"/>
      <point x="398" y="415" type="line"/>
      <point x="398" y="483" type="line"/>
      <point x="30" y="483" type="line"/>
    </contour>
    <contour>
      <point x="30" y="201" type="line"/>
      <point x="398" y="201" type="line"/>
      <point x="398" y="269" type="line"/>
      <point x="30" y="269" type="line"/>
    </contour>
  </outline>
</glyph>
<glyph name="greater.knda" format="2">
  <advance width="429"/>
  <unicode hex="003E"/>
  <outline>
    <contour>
      <point x="30" y="122" type="line"/>
      <point x="401" y="322" type="line"/>
      <point x="401" y="370" type="line"/>
      <point x="30" y="568" type="line"/>
      <point x="30" y="490" type="line"/>
      <point x="309" y="345" type="line"/>
      <point x="30" y="200" type="line"/>
    </contour>
  </outline>
</glyph>
<glyph name="question.knda" format="2">
  <advance width="371"/>
  <unicode hex="003F"/>
  <outline>
    <contour>
      <point x="177" y="702" type="curve" smooth="yes"/>
      <point x="126" y="702"/>
      <point x="83" y="686"/>
      <point x="44" y="665" type="curve"/>
      <point x="75" y="602" type="line"/>
      <point x="103" y="617"/>
      <point x="133" y="630"/>
      <point x="168" y="630" type="curve" smooth="yes"/>
      <point x="224" y="630"/>
      <point x="251" y="592"/>
      <point x="251" y="532" type="curve" smooth="yes"/>
      <point x="251" y="467"/>
      <point x="230" y="433"/>
      <point x="183" y="372" type="curve" smooth="yes"/>
      <point x="142" y="320"/>
      <point x="130" y="276"/>
      <point x="130" y="208" type="curve" smooth="yes"/>
      <point x="130" y="190" type="line"/>
      <point x="195" y="190" type="line"/>
      <point x="195" y="199" type="line" smooth="yes"/>
      <point x="195" y="255"/>
      <point x="206" y="285"/>
      <point x="246" y="337" type="curve" smooth="yes"/>
      <point x="303" y="412"/>
      <point x="329" y="456"/>
      <point x="329" y="539" type="curve" smooth="yes"/>
      <point x="329" y="638"/>
      <point x="272" y="702"/>
    </contour>
    <contour>
      <point x="164" y="-12" type="curve" smooth="yes"/>
      <point x="196" y="-12"/>
      <point x="218" y="8"/>
      <point x="218" y="52" type="curve" smooth="yes"/>
      <point x="218" y="97"/>
      <point x="197" y="116"/>
      <point x="164" y="116" type="curve" smooth="yes"/>
      <point x="129" y="116"/>
      <point x="110" y="94"/>
      <point x="110" y="52" type="curve" smooth="yes"/>
      <point x="110" y="10"/>
      <point x="130" y="-12"/>
    </contour>
  </outline>
</glyph>
<glyph name="bracketleft.knda" format="2">
  <advance width="364"/>
  <unicode hex="005B"/>
  <outline>
    <contour>
      <point x="287" y="-369" type="line"/>
      <point x="287" y="-301" type="line"/>
      <point x="157" y="-301" type="line"/>
      <point x="157" y="725" type="line"/>
      <point x="287" y="725" type="line"/>
      <point x="287" y="793" type="line"/>
      <point x="78" y="793" type="line"/>
      <point x="78" y="-369" type="line"/>
    </contour>
  </outline>
</glyph>
<glyph name="backslash.knda" format="2">
  <advance width="451"/>
  <unicode hex="005C"/>
  <outline>
    <contour>
      <point x="145" y="793" type="line"/>
      <point x="70" y="793" type="line"/>
      <point x="306" y="-368" type="line"/>
      <point x="381" y="-368" type="line"/>
    </contour>
  </outline>
</glyph>
<glyph name="bracketright.knda" format="2">
  <advance width="364"/>
  <unicode hex="005D"/>
  <outline>
    <contour>
      <point x="77" y="-301" type="line"/>
      <point x="77" y="-369" type="line"/>
      <point x="286" y="-369" type="line"/>
      <point x="286" y="793" type="line"/>
      <point x="77" y="793" type="line"/>
      <point x="77" y="725" type="line"/>
      <point x="207" y="725" type="line"/>
      <point x="207" y="-301" type="line"/>
    </contour>
  </outline>
</glyph>
<glyph name="asciicircum.knda" format="2">
  <advance width="429"/>
  <unicode hex="005E"/>
  <outline>
    <contour>
      <point x="15" y="350" type="line"/>
      <point x="92" y="350" type="line"/>
      <point x="213" y="615" type="line"/>
      <point x="334" y="350" type="line"/>
      <point x="413" y="350" type="line"/>
      <point x="238" y="714" type="line"/>
      <point x="190" y="714" type="line"/>
    </contour>
  </outline>
</glyph>
<glyph name="braceleft.knda" format="2">
  <advance width="364"/>
  <unicode hex="007B"/>
  <outline>
    <contour>
      <point x="325" y="-368" type="curve"/>
      <point x="325" y="-303" type="line"/>
      <point x="260" y="-301"/>
      <point x="233" y="-275"/>
      <point x="233" y="-210" type="curve" smooth="yes"/>
      <point x="233" y="88" type="line" smooth="yes"/>
      <point x="233" y="156"/>
      <point x="202" y="197"/>
      <point x="131" y="210" type="curve"/>
      <point x="131" y="216" type="line"/>
      <point x="201" y="229"/>
      <point x="233" y="270"/>
      <point x="233" y="338" type="curve" smooth="yes"/>
      <point x="233" y="634" type="line" smooth="yes"/>
      <point x="233" y="699"/>
      <point x="260" y="726"/>
      <point x="325" y="728" type="curve"/>
      <point x="325" y="793" type="line"/>
      <point x="221" y="793"/>
      <point x="154" y="742"/>
      <point x="154" y="636" type="curve" smooth="yes"/>
      <point x="154" y="338" type="line" smooth="yes"/>
      <point x="154" y="271"/>
      <point x="113" y="246"/>
      <point x="32" y="245" type="curve"/>
      <point x="32" y="180" type="line"/>
      <point x="113" y="180"/>
      <point x="154" y="154"/>
      <point x="154" y="86" type="curve" smooth="yes"/>
      <point x="154" y="-209" type="line" smooth="yes"/>
      <point x="154" y="-316"/>
      <point x="220" y="-367"/>
    </contour>
  </outline>
</glyph>
<glyph name="bar.knda" format="2">
  <advance width="551"/>
  <unicode hex="007C"/>
  <outline>
    <contour>
      <point x="238" y="793" type="line"/>
      <point x="238" y="-369" type="line"/>
      <point x="313" y="-369" type="line"/>
      <point x="313" y="793" type="line"/>
    </contour>
  </outline>
</glyph>
<glyph name="braceright.knda" format="2">
  <advance width="364"/>
  <unicode hex="007D"/>
  <outline>
    <contour>
      <point x="39" y="793" type="curve"/>
      <point x="39" y="728" type="line"/>
      <point x="104" y="726"/>
      <point x="131" y="700"/>
      <point x="131" y="635" type="curve" smooth="yes"/>
      <point x="131" y="337" type="line" smooth="yes"/>
      <point x="131" y="269"/>
      <point x="162" y="228"/>
      <point x="233" y="215" type="curve"/>
      <point x="233" y="209" type="line"/>
      <point x="163" y="196"/>
      <point x="131" y="155"/>
      <point x="131" y="87" type="curve" smooth="yes"/>
      <point x="131" y="-209" type="line" smooth="yes"/>
      <point x="131" y="-274"/>
      <point x="104" y="-301"/>
      <point x="39" y="-303" type="curve"/>
      <point x="39" y="-368" type="line"/>
      <point x="143" y="-368"/>
      <point x="210" y="-317"/>
      <point x="210" y="-211" type="curve" smooth="yes"/>
      <point x="210" y="87" type="line" smooth="yes"/>
      <point x="210" y="154"/>
      <point x="251" y="179"/>
      <point x="332" y="180" type="curve"/>
      <point x="332" y="245" type="line"/>
      <point x="251" y="245"/>
      <point x="210" y="271"/>
      <point x="210" y="339" type="curve" smooth="yes"/>
      <point x="210" y="634" type="line" smooth="yes"/>
      <point x="210" y="741"/>
      <point x="144" y="792"/>
    </contour>
  </outline>
</glyph>
<glyph name="asciitilde.knda" format="2">
  <advance width="429"/>
  <unicode hex="007E"/>
  <outline>
    <contour>
      <point x="205" y="310" type="curve" smooth="yes"/>
      <point x="242" y="291"/>
      <point x="265" y="281"/>
      <point x="305" y="281" type="curve" smooth="yes"/>
      <point x="343" y="281"/>
      <point x="376" y="299"/>
      <point x="402" y="330" type="curve"/>
      <point x="402" y="407" type="line"/>
      <point x="375" y="373"/>
      <point x="340" y="349"/>
      <point x="309" y="349" type="curve" smooth="yes"/>
      <point x="284" y="349"/>
      <point x="259" y="358"/>
      <point x="225" y="376" type="curve" smooth="yes"/>
      <point x="190" y="394"/>
      <point x="163" y="406"/>
      <point x="126" y="406" type="curve" smooth="yes"/>
      <point x="87" y="406"/>
      <point x="55" y="388"/>
      <point x="29" y="355" type="curve"/>
      <point x="29" y="278" type="line"/>
      <point x="59" y="315"/>
      <point x="93" y="337"/>
      <point x="122" y="337" type="curve" smooth="yes"/>
      <point x="146" y="337"/>
      <point x="175" y="327"/>
    </contour>
  </outline>
</glyph>
<glyph name="multiply.knda" format="2">
  <advance width="429"/>
  <unicode hex="00D7"/>
  <outline>
    <contour>
      <point x="350" y="527" type="line"/>
      <point x="213" y="390" type="line"/>
      <point x="77" y="525" type="line"/>
      <point x="31" y="478" type="line"/>
      <point x="166" y="343" type="line"/>
      <point x="31" y="207" type="line"/>
      <point x="77" y="160" type="line"/>
      <point x="213" y="296" type="line"/>
      <point x="349" y="161" type="line"/>
      <point x="395" y="207" type="line"/>
      <point x="261" y="343" type="line"/>
      <point x="398" y="481" type="line"/>
    </contour>
  </outline>
</glyph>
<glyph name="divide.knda" format="2">
  <advance width="429"/>
  <unicode hex="00F7"/>
  <outline>
    <contour>
      <point x="30" y="309" type="line"/>
      <point x="398" y="309" type="line"/>
      <point x="398" y="377" type="line"/>
      <point x="30" y="377" type="line"/>
    </contour>
    <contour>
      <point x="216" y="102" type="curve" smooth="yes"/>
      <point x="245" y="102"/>
      <point x="265" y="122"/>
      <point x="265" y="164" type="curve" smooth="yes"/>
      <point x="265" y="205"/>
      <point x="248" y="226"/>
      <point x="216" y="226" type="curve" smooth="yes"/>
      <point x="182" y="226"/>
      <point x="165" y="205"/>
      <point x="165" y="164" type="curve" smooth="yes"/>
      <point x="165" y="123"/>
      <point x="183" y="102"/>
    </contour>
    <contour>
      <point x="216" y="459" type="curve" smooth="yes"/>
      <point x="245" y="459"/>
      <point x="265" y="479"/>
      <point x="265" y="521" type="curve" smooth="yes"/>
      <point x="265" y="562"/>
      <point x="248" y="583"/>
      <point x="216" y="583" type="curve" smooth="yes"/>
      <point x="182" y="583"/>
      <point x="165" y="562"/>
      <point x="165" y="521" type="curve" smooth="yes"/>
      <point x="165" y="480"/>
      <point x="183" y="459"/>
    </contour>
  </outline>
</glyph>
<glyph name="uni0951" format="2">
  <unicode hex="0951"/>
  <outline>
    <contour>
      <point x="-247" y="808" type="line"/>
      <point x="-308" y="808" type="line"/>
      <point x="-308" y="607" type="line"/>
      <point x="-247" y="607" type="line"/>
    </contour>
  </outline>
</glyph>
<glyph name="dandaknda" format="2">
  <advance width="298"/>
  <unicode hex="0964"/>
  <outline>
    <contour>
      <point x="143" y="-139" type="line"/>
      <point x="219" y="-139" type="line"/>
      <point x="219" y="702" type="line"/>
      <point x="143" y="702" type="line"/>
    </contour>
  </outline>
</glyph>
<glyph name="dbldandaknda" format="2">
  <advance width="464"/>
  <unicode hex="0965"/>
  <outline>
    <contour>
      <point x="309" y="-139" type="line"/>
      <point x="385" y="-139" type="line"/>
      <point x="385" y="702" type="line"/>
      <point x="309" y="702" type="line"/>
    </contour>
    <contour>
      <point x="143" y="-139" type="line"/>
      <point x="219" y="-139" type="line"/>
      <point x="219" y="702" type="line"/>
      <point x="143" y="702" type="line"/>
    </contour>
  </outline>
</glyph>
<glyph name="uni0C80" format="2">
  <advance width="430"/>
  <unicode hex="0C80"/>
  <outline>
    <contour>
      <point x="215" y="50" type="curve" smooth="yes"/>
      <point x="317" y="50"/>
      <point x="397" y="113"/>
      <point x="397" y="249" type="curve" smooth="yes"/>
      <point x="397" y="282"/>
      <point x="393" y="313"/>
      <point x="387" y="332" type="curve"/>
      <point x="314" y="322" type="line"/>
      <point x="319" y="303"/>
      <point x="322" y="275"/>
      <point x="322" y="247" type="curve" smooth="yes"/>
      <point x="322" y="152"/>
      <point x="272" y="122"/>
      <point x="215" y="122" type="curve" smooth="yes"/>
      <point x="159" y="122"/>
      <point x="108" y="152"/>
      <point x="108" y="245" type="curve" smooth="yes"/>
      <point x="108" y="275"/>
      <point x="111" y="303"/>
      <point x="116" y="322" type="curve"/>
      <point x="43" y="332" type="line"/>
      <point x="37" y="313"/>
      <point x="33" y="282"/>
      <point x="33" y="246" type="curve" smooth="yes"/>
      <point x="33" y="113"/>
      <point x="114" y="50"/>
    </contour>
    <contour>
      <point x="215" y="198" type="curve" smooth="yes"/>
      <point x="246" y="198"/>
      <point x="268" y="221"/>
      <point x="268" y="254" type="curve" smooth="yes"/>
      <point x="268" y="287"/>
      <point x="246" y="310"/>
      <point x="215" y="310" type="curve" smooth="yes"/>
      <point x="185" y="310"/>
      <point x="162" y="287"/>
      <point x="162" y="254" type="curve" smooth="yes"/>
      <point x="162" y="221"/>
      <point x="185" y="198"/>
    </contour>
  </outline>
</glyph>
<glyph name="candrabinduknda" format="2">
  <unicode hex="0C81"/>
  <outline>
    <contour>
      <point x="-278" y="598" type="curve" smooth="yes"/>
      <point x="-184" y="598"/>
      <point x="-125" y="656"/>
      <point x="-125" y="753" type="curve" smooth="yes"/>
      <point x="-125" y="770"/>
      <point x="-128" y="792"/>
      <point x="-132" y="808" type="curve"/>
      <point x="-197" y="794" type="line"/>
      <point x="-193" y="780"/>
      <point x="-192" y="767"/>
      <point x="-192" y="757" type="curve" smooth="yes"/>
      <point x="-192" y="684"/>
      <point x="-234" y="660"/>
      <point x="-278" y="660" type="curve" smooth="yes"/>
      <point x="-320" y="660"/>
      <point x="-364" y="680"/>
      <point x="-364" y="755" type="curve" smooth="yes"/>
      <point x="-364" y="766"/>
      <point x="-363" y="780"/>
      <point x="-359" y="794" type="curve"/>
      <point x="-423" y="808" type="line"/>
      <point x="-428" y="792"/>
      <point x="-431" y="772"/>
      <point x="-431" y="753" type="curve" smooth="yes"/>
      <point x="-431" y="654"/>
      <point x="-375" y="598"/>
    </contour>
    <contour>
      <point x="-279" y="705" type="curve" smooth="yes"/>
      <point x="-252" y="705"/>
      <point x="-232" y="725"/>
      <point x="-232" y="756" type="curve" smooth="yes"/>
      <point x="-232" y="784"/>
      <point x="-252" y="806"/>
      <point x="-279" y="806" type="curve" smooth="yes"/>
      <point x="-306" y="806"/>
      <point x="-325" y="784"/>
      <point x="-325" y="756" type="curve" smooth="yes"/>
      <point x="-325" y="725"/>
      <point x="-306" y="705"/>
    </contour>
  </outline>
</glyph>
<glyph name="anusvaraknda" format="2">
  <advance width="426"/>
  <unicode hex="0C82"/>
  <outline>
    <contour>
      <point x="211" y="-12" type="curve" smooth="yes"/>
      <point x="329" y="-12"/>
      <point x="392" y="85"/>
      <point x="392" y="243" type="curve" smooth="yes"/>
      <point x="392" y="401"/>
      <point x="329" y="499"/>
      <point x="213" y="499" type="curve" smooth="yes"/>
      <point x="93" y="499"/>
      <point x="34" y="395"/>
      <point x="34" y="242" type="curve" smooth="yes"/>
      <point x="34" y="74"/>
      <point x="107" y="-12"/>
    </contour>
    <contour>
      <point x="211" y="60" type="curve" smooth="yes"/>
      <point x="148" y="60"/>
      <point x="109" y="123"/>
      <point x="109" y="243" type="curve" smooth="yes"/>
      <point x="109" y="367"/>
      <point x="146" y="429"/>
      <point x="214" y="429" type="curve" smooth="yes"/>
      <point x="285" y="429"/>
      <point x="317" y="357"/>
      <point x="317" y="243" type="curve" smooth="yes"/>
      <point x="317" y="130"/>
      <point x="284" y="60"/>
    </contour>
  </outline>
</glyph>
<glyph name="visargaknda" format="2">
  <advance width="259"/>
  <unicode hex="0C83"/>
  <outline>
    <contour>
      <point x="29" y="384" type="curve" smooth="yes"/>
      <point x="29" y="318"/>
      <point x="63" y="267"/>
      <point x="129" y="267" type="curve" smooth="yes"/>
      <point x="197" y="267"/>
      <point x="230" y="317"/>
      <point x="230" y="384" type="curve" smooth="yes"/>
      <point x="230" y="450"/>
      <point x="196" y="500"/>
      <point x="129" y="500" type="curve" smooth="yes"/>
      <point x="64" y="500"/>
      <point x="29" y="450"/>
    </contour>
    <contour>
      <point x="89" y="384" type="curve" smooth="yes"/>
      <point x="89" y="423"/>
      <point x="104" y="443"/>
      <point x="129" y="443" type="curve" smooth="yes"/>
      <point x="155" y="443"/>
      <point x="170" y="424"/>
      <point x="170" y="384" type="curve" smooth="yes"/>
      <point x="170" y="345"/>
      <point x="156" y="324"/>
      <point x="129" y="324" type="curve" smooth="yes"/>
      <point x="103" y="324"/>
      <point x="89" y="345"/>
    </contour>
    <contour>
      <point x="29" y="105" type="curve" smooth="yes"/>
      <point x="29" y="39"/>
      <point x="63" y="-12"/>
      <point x="129" y="-12" type="curve" smooth="yes"/>
      <point x="197" y="-12"/>
      <point x="230" y="38"/>
      <point x="230" y="105" type="curve" smooth="yes"/>
      <point x="230" y="171"/>
      <point x="196" y="221"/>
      <point x="129" y="221" type="curve" smooth="yes"/>
      <point x="64" y="221"/>
      <point x="29" y="171"/>
    </contour>
    <contour>
      <point x="89" y="105" type="curve" smooth="yes"/>
      <point x="89" y="144"/>
      <point x="104" y="164"/>
      <point x="129" y="164" type="curve" smooth="yes"/>
      <point x="155" y="164"/>
      <point x="170" y="145"/>
      <point x="170" y="105" type="curve" smooth="yes"/>
      <point x="170" y="66"/>
      <point x="156" y="45"/>
      <point x="129" y="45" type="curve" smooth="yes"/>
      <point x="103" y="45"/>
      <point x="89" y="66"/>
    </contour>
  </outline>
</glyph>
<glyph name="uni0C84" format="2">
  <advance width="901"/>
  <unicode hex="0C84"/>
  <outline>
    <contour>
      <point x="131" y="539" type="curve"/>
      <point x="57" y="543" type="line"/>
      <point x="48" y="483"/>
      <point x="43" y="425"/>
      <point x="43" y="369" type="curve" smooth="yes"/>
      <point x="43" y="27"/>
      <point x="194" y="-164"/>
      <point x="458" y="-164" type="curve" smooth="yes"/>
      <point x="694" y="-164"/>
      <point x="858" y="-19"/>
      <point x="858" y="298" type="curve" smooth="yes"/>
      <point x="858" y="595"/>
      <point x="710" y="732"/>
      <point x="526" y="732" type="curve" smooth="yes"/>
      <point x="337" y="732"/>
      <point x="218" y="593"/>
      <point x="218" y="384" type="curve" smooth="yes"/>
      <point x="218" y="197"/>
      <point x="313" y="90"/>
      <point x="459" y="90" type="curve" smooth="yes"/>
      <point x="602" y="90"/>
      <point x="688" y="171"/>
      <point x="688" y="318" type="curve" smooth="yes"/>
      <point x="688" y="439"/>
      <point x="619" y="522"/>
      <point x="520" y="522" type="curve" smooth="yes"/>
      <point x="424" y="522"/>
      <point x="373" y="456"/>
      <point x="373" y="384" type="curve" smooth="yes"/>
      <point x="373" y="306"/>
      <point x="418" y="256"/>
      <point x="485" y="256" type="curve" smooth="yes"/>
      <point x="523" y="256"/>
      <point x="549" y="266"/>
      <point x="569" y="282" type="curve"/>
      <point x="540" y="339" type="line"/>
      <point x="524" y="329"/>
      <point x="512" y="323"/>
      <point x="487" y="323" type="curve" smooth="yes"/>
      <point x="458" y="323"/>
      <point x="445" y="347"/>
      <point x="445" y="384" type="curve" smooth="yes"/>
      <point x="445" y="429"/>
      <point x="468" y="457"/>
      <point x="518" y="457" type="curve" smooth="yes"/>
      <point x="583" y="457"/>
      <point x="613" y="402"/>
      <point x="613" y="318" type="curve" smooth="yes"/>
      <point x="613" y="214"/>
      <point x="566" y="156"/>
      <point x="459" y="156" type="curve" smooth="yes"/>
      <point x="350" y="156"/>
      <point x="293" y="239"/>
      <point x="293" y="383" type="curve" smooth="yes"/>
      <point x="293" y="576"/>
      <point x="390" y="664"/>
      <point x="526" y="664" type="curve" smooth="yes"/>
      <point x="694" y="664"/>
      <point x="781" y="521"/>
      <point x="781" y="298" type="curve" smooth="yes"/>
      <point x="781" y="52"/>
      <point x="673" y="-93"/>
      <point x="459" y="-93" type="curve" smooth="yes"/>
      <point x="233" y="-93"/>
      <point x="118" y="79"/>
      <point x="118" y="374" type="curve" smooth="yes"/>
      <point x="118" y="432"/>
      <point x="121" y="483"/>
    </contour>
  </outline>
</glyph>
<glyph name="aknda" format="2">
  <advance width="660"/>
  <unicode hex="0C85"/>
  <outline>
    <contour>
      <point x="323" y="66" type="curve" smooth="yes"/>
      <point x="166" y="66"/>
      <point x="107" y="180"/>
      <point x="107" y="308" type="curve" smooth="yes"/>
      <point x="107" y="326" type="line" smooth="yes"/>
      <point x="107" y="427"/>
      <point x="139" y="496"/>
      <point x="187" y="496" type="curve" smooth="yes"/>
      <point x="213" y="496"/>
      <point x="232" y="475"/>
      <point x="232" y="427" type="curve" smooth="yes"/>
      <point x="232" y="375"/>
      <point x="209" y="348"/>
      <point x="166" y="348" type="curve" smooth="yes"/>
      <point x="124" y="348"/>
      <point x="96" y="373"/>
      <point x="79" y="398" type="curve"/>
      <point x="57" y="333" type="line"/>
      <point x="86" y="306"/>
      <point x="123" y="281"/>
      <point x="170" y="281" type="curve" smooth="yes"/>
      <point x="255" y="281"/>
      <point x="305" y="334"/>
      <point x="305" y="429" type="curve" smooth="yes"/>
      <point x="305" y="517"/>
      <point x="257" y="563"/>
      <point x="193" y="563" type="curve" smooth="yes"/>
      <point x="96" y="563"/>
      <point x="33" y="469"/>
      <point x="33" y="316" type="curve" smooth="yes"/>
      <point x="33" y="118"/>
      <point x="132" y="-12"/>
      <point x="324" y="-12" type="curve" smooth="yes"/>
      <point x="512" y="-12"/>
      <point x="627" y="93"/>
      <point x="627" y="336" type="curve" smooth="yes"/>
      <point x="627" y="472"/>
      <point x="573" y="563"/>
      <point x="477" y="563" type="curve" smooth="yes"/>
      <point x="401" y="563"/>
      <point x="365" y="506"/>
      <point x="365" y="440" type="curve" smooth="yes"/>
      <point x="365" y="384"/>
      <point x="391" y="344"/>
      <point x="420" y="316" type="curve"/>
      <point x="291" y="316" type="line"/>
      <point x="291" y="243" type="line"/>
      <point x="515" y="243" type="line"/>
      <point x="515" y="311" type="line"/>
      <point x="481" y="330"/>
      <point x="437" y="366"/>
      <point x="437" y="429" type="curve" smooth="yes"/>
      <point x="437" y="470"/>
      <point x="457" y="492"/>
      <point x="482" y="492" type="curve" smooth="yes"/>
      <point x="530" y="492"/>
      <point x="551" y="416"/>
      <point x="551" y="335" type="curve" smooth="yes"/>
      <point x="551" y="152"/>
      <point x="473" y="66"/>
    </contour>
  </outline>
</glyph>
<glyph name="aaknda" format="2">
  <advance width="647"/>
  <unicode hex="0C86"/>
  <outline>
    <contour>
      <point x="336" y="-12" type="curve" smooth="yes"/>
      <point x="526" y="-12"/>
      <point x="599" y="97"/>
      <point x="599" y="196" type="curve" smooth="yes"/>
      <point x="599" y="248"/>
      <point x="582" y="283"/>
      <point x="552" y="308" type="curve"/>
      <point x="540" y="321"/>
      <point x="527" y="329"/>
      <point x="513" y="337" type="curve" smooth="yes"/>
      <point x="466" y="366"/>
      <point x="437" y="395"/>
      <point x="437" y="439" type="curve" smooth="yes"/>
      <point x="437" y="472"/>
      <point x="458" y="497"/>
      <point x="490" y="497" type="curve" smooth="yes"/>
      <point x="526" y="497"/>
      <point x="545" y="469"/>
      <point x="545" y="429" type="curve" smooth="yes"/>
      <point x="545" y="373"/>
      <point x="498" y="335"/>
      <point x="449" y="316" type="curve"/>
      <point x="278" y="316" type="line"/>
      <point x="278" y="243" type="line"/>
      <point x="388" y="243" type="line" smooth="yes"/>
      <point x="468" y="243"/>
      <point x="502" y="257"/>
      <point x="537" y="282" type="curve" smooth="yes"/>
      <point x="584" y="316"/>
      <point x="620" y="365"/>
      <point x="620" y="431" type="curve" smooth="yes"/>
      <point x="620" y="501"/>
      <point x="578" y="563"/>
      <point x="489" y="563" type="curve" smooth="yes"/>
      <point x="416" y="563"/>
      <point x="365" y="516"/>
      <point x="365" y="445" type="curve" smooth="yes"/>
      <point x="365" y="375"/>
      <point x="410" y="328"/>
      <point x="474" y="291" type="curve"/>
      <point x="479" y="289"/>
      <point x="481" y="274"/>
      <point x="486" y="271" type="curve"/>
      <point x="510" y="258"/>
      <point x="524" y="235"/>
      <point x="524" y="202" type="curve" smooth="yes"/>
      <point x="524" y="127"/>
      <point x="465" y="66"/>
      <point x="336" y="66" type="curve" smooth="yes"/>
      <point x="166" y="66"/>
      <point x="107" y="180"/>
      <point x="107" y="308" type="curve" smooth="yes"/>
      <point x="107" y="326" type="line" smooth="yes"/>
      <point x="107" y="427"/>
      <point x="139" y="496"/>
      <point x="187" y="496" type="curve" smooth="yes"/>
      <point x="213" y="496"/>
      <point x="232" y="475"/>
      <point x="232" y="427" type="curve" smooth="yes"/>
      <point x="232" y="381"/>
      <point x="214" y="348"/>
      <point x="166" y="348" type="curve" smooth="yes"/>
      <point x="124" y="348"/>
      <point x="96" y="373"/>
      <point x="79" y="398" type="curve"/>
      <point x="57" y="333" type="line"/>
      <point x="86" y="306"/>
      <point x="123" y="281"/>
      <point x="170" y="281" type="curve" smooth="yes"/>
      <point x="255" y="281"/>
      <point x="305" y="334"/>
      <point x="305" y="429" type="curve" smooth="yes"/>
      <point x="305" y="517"/>
      <point x="257" y="563"/>
      <point x="194" y="563" type="curve" smooth="yes"/>
      <point x="96" y="563"/>
      <point x="33" y="469"/>
      <point x="33" y="316" type="curve" smooth="yes"/>
      <point x="33" y="118"/>
      <point x="132" y="-12"/>
    </contour>
  </outline>
</glyph>
<glyph name="iknda" format="2">
  <advance width="552"/>
  <unicode hex="0C87"/>
  <outline>
    <contour>
      <point x="262" y="-12" type="curve" smooth="yes"/>
      <point x="330" y="-12"/>
      <point x="382" y="20"/>
      <point x="424" y="68" type="curve"/>
      <point x="446" y="87" type="line"/>
      <point x="494" y="150"/>
      <point x="516" y="246"/>
      <point x="516" y="332" type="curve" smooth="yes"/>
      <point x="516" y="456"/>
      <point x="477" y="563"/>
      <point x="372" y="563" type="curve" smooth="yes"/>
      <point x="327" y="563"/>
      <point x="278" y="540"/>
      <point x="248" y="444" type="curve"/>
      <point x="270" y="442" type="line"/>
      <point x="249" y="522"/>
      <point x="207" y="563"/>
      <point x="146" y="563" type="curve" smooth="yes"/>
      <point x="75" y="563"/>
      <point x="25" y="507"/>
      <point x="25" y="427" type="curve" smooth="yes"/>
      <point x="25" y="385"/>
      <point x="35" y="348"/>
      <point x="44" y="323" type="curve"/>
      <point x="115" y="343" type="line"/>
      <point x="108" y="360"/>
      <point x="101" y="391"/>
      <point x="101" y="420" type="curve" smooth="yes"/>
      <point x="101" y="463"/>
      <point x="120" y="488"/>
      <point x="153" y="488" type="curve" smooth="yes"/>
      <point x="193" y="488"/>
      <point x="220" y="450"/>
      <point x="226" y="370" type="curve"/>
      <point x="294" y="370" type="line"/>
      <point x="299" y="446"/>
      <point x="319" y="488"/>
      <point x="365" y="488" type="curve" smooth="yes"/>
      <point x="413" y="488"/>
      <point x="441" y="438"/>
      <point x="441" y="330" type="curve" smooth="yes"/>
      <point x="441" y="204"/>
      <point x="395" y="59"/>
      <point x="264" y="59" type="curve" smooth="yes"/>
      <point x="204" y="59"/>
      <point x="179" y="92"/>
      <point x="179" y="138" type="curve" smooth="yes"/>
      <point x="179" y="183"/>
      <point x="208" y="212"/>
      <point x="255" y="212" type="curve" smooth="yes"/>
      <point x="351" y="212"/>
      <point x="411" y="95"/>
      <point x="430" y="-55" type="curve"/>
      <point x="508" y="-41" type="line"/>
      <point x="496" y="21"/>
      <point x="477" y="84"/>
      <point x="443" y="138" type="curve"/>
      <point x="404" y="222"/>
      <point x="347" y="281"/>
      <point x="253" y="281" type="curve" smooth="yes"/>
      <point x="170" y="281"/>
      <point x="105" y="226"/>
      <point x="105" y="140" type="curve" smooth="yes"/>
      <point x="105" y="51"/>
      <point x="156" y="-12"/>
    </contour>
  </outline>
</glyph>
<glyph name="iiknda" format="2">
  <advance width="758"/>
  <unicode hex="0C88"/>
  <outline>
    <contour>
      <point x="269" y="-12" type="curve" smooth="yes"/>
      <point x="402" y="-12"/>
      <point x="479" y="85"/>
      <point x="479" y="261" type="curve" smooth="yes"/>
      <point x="479" y="373"/>
      <point x="446" y="444"/>
      <point x="389" y="495" type="curve"/>
      <point x="362" y="480" type="line"/>
      <point x="398" y="486"/>
      <point x="424" y="499"/>
      <point x="442" y="517" type="curve" smooth="yes"/>
      <point x="468" y="542"/>
      <point x="479" y="574"/>
      <point x="479" y="614" type="curve" smooth="yes"/>
      <point x="479" y="678"/>
      <point x="458" y="725"/>
      <point x="407" y="790" type="curve"/>
      <point x="346" y="750" type="line"/>
      <point x="383" y="707"/>
      <point x="406" y="662"/>
      <point x="406" y="620" type="curve" smooth="yes"/>
      <point x="406" y="600"/>
      <point x="403" y="586"/>
      <point x="391" y="573" type="curve" smooth="yes"/>
      <point x="377" y="558"/>
      <point x="356" y="551"/>
      <point x="299" y="551" type="curve" smooth="yes"/>
      <point x="60" y="551" type="line"/>
      <point x="60" y="477" type="line"/>
      <point x="167" y="477" type="line"/>
      <point x="154" y="488" type="line"/>
      <point x="96" y="446"/>
      <point x="60" y="364"/>
      <point x="60" y="260" type="curve" smooth="yes"/>
      <point x="60" y="81"/>
      <point x="144" y="-12"/>
    </contour>
    <contour>
      <point x="269" y="66" type="curve" smooth="yes"/>
      <point x="189" y="66"/>
      <point x="134" y="128"/>
      <point x="134" y="261" type="curve" smooth="yes"/>
      <point x="134" y="275"/>
      <point x="134" y="288"/>
      <point x="135" y="301" type="curve" smooth="yes"/>
      <point x="144" y="415"/>
      <point x="195" y="479"/>
      <point x="270" y="479" type="curve" smooth="yes"/>
      <point x="341" y="479"/>
      <point x="394" y="421"/>
      <point x="404" y="301" type="curve" smooth="yes"/>
      <point x="405" y="288"/>
      <point x="405" y="275"/>
      <point x="405" y="261" type="curve" smooth="yes"/>
      <point x="405" y="145"/>
      <point x="361" y="66"/>
    </contour>
    <contour>
      <point x="575" y="74" type="curve"/>
      <point x="583" y="0" type="line"/>
      <point x="680" y="5"/>
      <point x="714" y="58"/>
      <point x="714" y="117" type="curve" smooth="yes"/>
      <point x="714" y="176"/>
      <point x="690" y="217"/>
      <point x="645" y="286" type="curve"/>
      <point x="637" y="301" type="line"/>
      <point x="611" y="336"/>
      <point x="592" y="366"/>
      <point x="592" y="404" type="curve" smooth="yes"/>
      <point x="592" y="440"/>
      <point x="608" y="461"/>
      <point x="632" y="461" type="curve" smooth="yes"/>
      <point x="656" y="461"/>
      <point x="672" y="439"/>
      <point x="672" y="400" type="curve" smooth="yes"/>
      <point x="672" y="329"/>
      <point x="622" y="310"/>
      <point x="529" y="310" type="curve" smooth="yes"/>
      <point x="20" y="310" type="line"/>
      <point x="20" y="243" type="line"/>
      <point x="515" y="243" type="line" smooth="yes"/>
      <point x="637" y="243"/>
      <point x="739" y="279"/>
      <point x="739" y="397" type="curve" smooth="yes"/>
      <point x="739" y="468"/>
      <point x="704" y="523"/>
      <point x="633" y="523" type="curve" smooth="yes"/>
      <point x="564" y="523"/>
      <point x="526" y="470"/>
      <point x="526" y="409" type="curve" smooth="yes"/>
      <point x="526" y="361"/>
      <point x="550" y="317"/>
      <point x="575" y="283" type="curve"/>
      <point x="589" y="252" type="line"/>
      <point x="625" y="198"/>
      <point x="643" y="166"/>
      <point x="643" y="131" type="curve" smooth="yes"/>
      <point x="643" y="101"/>
      <point x="628" y="75"/>
    </contour>
  </outline>
</glyph>
<glyph name="uknda" format="2">
  <advance width="942"/>
  <unicode hex="0C89"/>
  <outline>
    <contour>
      <point x="727" y="-12" type="curve" smooth="yes"/>
      <point x="843" y="-12"/>
      <point x="906" y="62"/>
      <point x="906" y="216" type="curve" smooth="yes"/>
      <point x="906" y="357"/>
      <point x="856" y="461"/>
      <point x="765" y="564" type="curve"/>
      <point x="700" y="514" type="line"/>
      <point x="772" y="435"/>
      <point x="830" y="337"/>
      <point x="830" y="215" type="curve" smooth="yes"/>
      <point x="830" y="105"/>
      <point x="796" y="63"/>
      <point x="728" y="63" type="curve" smooth="yes"/>
      <point x="690" y="63"/>
      <point x="670" y="72"/>
      <point x="654" y="93" type="curve" smooth="yes"/>
      <point x="636" y="116"/>
      <point x="631" y="150"/>
      <point x="631" y="199" type="curve" smooth="yes"/>
      <point x="631" y="369" type="line" smooth="yes"/>
      <point x="631" y="449"/>
      <point x="618" y="499"/>
      <point x="582" y="532" type="curve" smooth="yes"/>
      <point x="558" y="554"/>
      <point x="528" y="563"/>
      <point x="494" y="563" type="curve" smooth="yes"/>
      <point x="405" y="563"/>
      <point x="351" y="495"/>
      <point x="351" y="394" type="curve" smooth="yes"/>
      <point x="351" y="322"/>
      <point x="362" y="276"/>
      <point x="362" y="208" type="curve" smooth="yes"/>
      <point x="362" y="127"/>
      <point x="334" y="63"/>
      <point x="250" y="63" type="curve" smooth="yes"/>
      <point x="144" y="63"/>
      <point x="107" y="168"/>
      <point x="107" y="304" type="curve" smooth="yes"/>
      <point x="107" y="311" type="line" smooth="yes"/>
      <point x="107" y="432"/>
      <point x="141" y="496"/>
      <point x="189" y="496" type="curve" smooth="yes"/>
      <point x="215" y="496"/>
      <point x="234" y="475"/>
      <point x="234" y="427" type="curve" smooth="yes"/>
      <point x="234" y="375"/>
      <point x="211" y="348"/>
      <point x="168" y="348" type="curve" smooth="yes"/>
      <point x="126" y="348"/>
      <point x="98" y="373"/>
      <point x="81" y="398" type="curve"/>
      <point x="59" y="333" type="line"/>
      <point x="88" y="306"/>
      <point x="125" y="281"/>
      <point x="172" y="281" type="curve" smooth="yes"/>
      <point x="257" y="281"/>
      <point x="307" y="334"/>
      <point x="307" y="429" type="curve" smooth="yes"/>
      <point x="307" y="515"/>
      <point x="259" y="563"/>
      <point x="193" y="563" type="curve" smooth="yes"/>
      <point x="102" y="563"/>
      <point x="35" y="471"/>
      <point x="35" y="310" type="curve" smooth="yes"/>
      <point x="35" y="107"/>
      <point x="112" y="-12"/>
      <point x="251" y="-12" type="curve" smooth="yes"/>
      <point x="361" y="-12"/>
      <point x="438" y="58"/>
      <point x="438" y="203" type="curve" smooth="yes"/>
      <point x="438" y="271"/>
      <point x="427" y="298"/>
      <point x="427" y="388" type="curve" smooth="yes"/>
      <point x="427" y="449"/>
      <point x="447" y="491"/>
      <point x="493" y="491" type="curve" smooth="yes"/>
      <point x="512" y="491"/>
      <point x="526" y="484"/>
      <point x="535" y="472" type="curve" smooth="yes"/>
      <point x="551" y="452"/>
      <point x="556" y="421"/>
      <point x="556" y="349" type="curve" smooth="yes"/>
      <point x="556" y="196" type="line" smooth="yes"/>
      <point x="556" y="122"/>
      <point x="567" y="75"/>
      <point x="598" y="38" type="curve" smooth="yes"/>
      <point x="623" y="8"/>
      <point x="666" y="-12"/>
    </contour>
  </outline>
</glyph>
<glyph name="uuknda" format="2">
  <advance width="1226"/>
  <unicode hex="0C8A"/>
  <outline>
    <contour>
      <point x="699" y="-12" type="curve" smooth="yes"/>
      <point x="777" y="-12"/>
      <point x="837" y="37"/>
      <point x="837" y="147" type="curve" smooth="yes"/>
      <point x="837" y="224"/>
      <point x="830" y="266"/>
      <point x="830" y="323" type="curve" smooth="yes"/>
      <point x="830" y="415"/>
      <point x="867" y="489"/>
      <point x="956" y="489" type="curve" smooth="yes"/>
      <point x="1062" y="489"/>
      <point x="1114" y="378"/>
      <point x="1114" y="237" type="curve" smooth="yes"/>
      <point x="1114" y="110"/>
      <point x="1082" y="58"/>
      <point x="1026" y="58" type="curve" smooth="yes"/>
      <point x="977" y="58"/>
      <point x="962" y="104"/>
      <point x="962" y="149" type="curve" smooth="yes"/>
      <point x="962" y="172"/>
      <point x="966" y="193"/>
      <point x="976" y="216" type="curve"/>
      <point x="959" y="204" type="line"/>
      <point x="965" y="174"/>
      <point x="974" y="156"/>
      <point x="1004" y="156" type="curve" smooth="yes"/>
      <point x="1030" y="156"/>
      <point x="1049" y="173"/>
      <point x="1049" y="213" type="curve" smooth="yes"/>
      <point x="1049" y="253"/>
      <point x="1025" y="276"/>
      <point x="986" y="276" type="curve" smooth="yes"/>
      <point x="936" y="276"/>
      <point x="896" y="235"/>
      <point x="896" y="147" type="curve" smooth="yes"/>
      <point x="896" y="55"/>
      <point x="938" y="-12"/>
      <point x="1024" y="-12" type="curve" smooth="yes"/>
      <point x="1123" y="-12"/>
      <point x="1190" y="75"/>
      <point x="1190" y="236" type="curve" smooth="yes"/>
      <point x="1190" y="424"/>
      <point x="1112" y="563"/>
      <point x="955" y="563" type="curve" smooth="yes"/>
      <point x="831" y="563"/>
      <point x="755" y="476"/>
      <point x="755" y="336" type="curve" smooth="yes"/>
      <point x="755" y="265"/>
      <point x="762" y="231"/>
      <point x="762" y="147" type="curve" smooth="yes"/>
      <point x="762" y="97"/>
      <point x="742" y="60"/>
      <point x="697" y="60" type="curve" smooth="yes"/>
      <point x="669" y="60"/>
      <point x="654" y="71"/>
      <point x="645" y="87" type="curve" smooth="yes"/>
      <point x="633" y="108"/>
      <point x="631" y="140"/>
      <point x="631" y="195" type="curve" smooth="yes"/>
      <point x="631" y="369" type="line" smooth="yes"/>
      <point x="631" y="450"/>
      <point x="618" y="499"/>
      <point x="582" y="532" type="curve" smooth="yes"/>
      <point x="558" y="554"/>
      <point x="528" y="563"/>
      <point x="494" y="563" type="curve" smooth="yes"/>
      <point x="405" y="563"/>
      <point x="351" y="495"/>
      <point x="351" y="394" type="curve" smooth="yes"/>
      <point x="351" y="322"/>
      <point x="362" y="276"/>
      <point x="362" y="208" type="curve" smooth="yes"/>
      <point x="362" y="127"/>
      <point x="334" y="63"/>
      <point x="250" y="63" type="curve" smooth="yes"/>
      <point x="144" y="63"/>
      <point x="107" y="168"/>
      <point x="107" y="304" type="curve" smooth="yes"/>
      <point x="107" y="311" type="line" smooth="yes"/>
      <point x="107" y="432"/>
      <point x="141" y="496"/>
      <point x="189" y="496" type="curve" smooth="yes"/>
      <point x="215" y="496"/>
      <point x="234" y="475"/>
      <point x="234" y="427" type="curve" smooth="yes"/>
      <point x="234" y="375"/>
      <point x="211" y="348"/>
      <point x="168" y="348" type="curve" smooth="yes"/>
      <point x="126" y="348"/>
      <point x="98" y="373"/>
      <point x="81" y="398" type="curve"/>
      <point x="59" y="333" type="line"/>
      <point x="88" y="306"/>
      <point x="125" y="281"/>
      <point x="172" y="281" type="curve" smooth="yes"/>
      <point x="257" y="281"/>
      <point x="307" y="334"/>
      <point x="307" y="429" type="curve" smooth="yes"/>
      <point x="307" y="515"/>
      <point x="259" y="563"/>
      <point x="193" y="563" type="curve" smooth="yes"/>
      <point x="102" y="563"/>
      <point x="35" y="471"/>
      <point x="35" y="310" type="curve" smooth="yes"/>
      <point x="35" y="107"/>
      <point x="112" y="-12"/>
      <point x="251" y="-12" type="curve" smooth="yes"/>
      <point x="361" y="-12"/>
      <point x="438" y="58"/>
      <point x="438" y="203" type="curve" smooth="yes"/>
      <point x="438" y="271"/>
      <point x="427" y="298"/>
      <point x="427" y="388" type="curve" smooth="yes"/>
      <point x="427" y="449"/>
      <point x="447" y="491"/>
      <point x="493" y="491" type="curve" smooth="yes"/>
      <point x="512" y="491"/>
      <point x="526" y="484"/>
      <point x="535" y="472" type="curve" smooth="yes"/>
      <point x="551" y="452"/>
      <point x="556" y="421"/>
      <point x="556" y="349" type="curve" smooth="yes"/>
      <point x="556" y="183" type="line" smooth="yes"/>
      <point x="556" y="106"/>
      <point x="567" y="58"/>
      <point x="600" y="24" type="curve" smooth="yes"/>
      <point x="621" y="2"/>
      <point x="651" y="-12"/>
    </contour>
  </outline>
</glyph>
<glyph name="lvocalicknda" format="2">
  <advance width="654"/>
  <unicode hex="0C8C"/>
  <outline>
    <contour>
      <point x="343" y="-12" type="curve" smooth="yes"/>
      <point x="507" y="-12"/>
      <point x="618" y="94"/>
      <point x="618" y="288" type="curve" smooth="yes"/>
      <point x="618" y="375"/>
      <point x="596" y="463"/>
      <point x="541" y="563" type="curve"/>
      <point x="473" y="527" type="line"/>
      <point x="515" y="459"/>
      <point x="542" y="373"/>
      <point x="542" y="286" type="curve" smooth="yes"/>
      <point x="542" y="142"/>
      <point x="471" y="63"/>
      <point x="345" y="63" type="curve" smooth="yes"/>
      <point x="271" y="63"/>
      <point x="244" y="100"/>
      <point x="244" y="149" type="curve" smooth="yes"/>
      <point x="244" y="193"/>
      <point x="269" y="218"/>
      <point x="333" y="246" type="curve" smooth="yes"/>
      <point x="427" y="287"/>
      <point x="466" y="339"/>
      <point x="466" y="417" type="curve" smooth="yes"/>
      <point x="466" y="506"/>
      <point x="423" y="563"/>
      <point x="350" y="563" type="curve" smooth="yes"/>
      <point x="297" y="563"/>
      <point x="253" y="525"/>
      <point x="235" y="447" type="curve"/>
      <point x="255" y="448" type="line"/>
      <point x="230" y="530"/>
      <point x="188" y="563"/>
      <point x="137" y="563" type="curve" smooth="yes"/>
      <point x="74" y="563"/>
      <point x="25" y="513"/>
      <point x="25" y="430" type="curve" smooth="yes"/>
      <point x="25" y="384"/>
      <point x="33" y="354"/>
      <point x="42" y="329" type="curve"/>
      <point x="113" y="348" type="line"/>
      <point x="108" y="363"/>
      <point x="101" y="392"/>
      <point x="101" y="422" type="curve" smooth="yes"/>
      <point x="101" y="463"/>
      <point x="116" y="488"/>
      <point x="144" y="488" type="curve" smooth="yes"/>
      <point x="179" y="488"/>
      <point x="204" y="452"/>
      <point x="209" y="378" type="curve"/>
      <point x="277" y="378" type="line"/>
      <point x="282" y="449"/>
      <point x="307" y="488"/>
      <point x="344" y="488" type="curve" smooth="yes"/>
      <point x="373" y="488"/>
      <point x="390" y="463"/>
      <point x="390" y="418" type="curve" smooth="yes"/>
      <point x="390" y="358"/>
      <point x="361" y="334"/>
      <point x="293" y="304" type="curve" smooth="yes"/>
      <point x="221" y="272"/>
      <point x="168" y="233"/>
      <point x="168" y="147" type="curve" smooth="yes"/>
      <point x="168" y="49"/>
      <point x="237" y="-12"/>
    </contour>
  </outline>
</glyph>
<glyph name="eknda" format="2">
  <advance width="598"/>
  <unicode hex="0C8E"/>
  <outline>
    <contour>
      <point x="427" y="-12" type="curve" smooth="yes"/>
      <point x="515" y="-12"/>
      <point x="563" y="61"/>
      <point x="563" y="193" type="curve" smooth="yes"/>
      <point x="563" y="423"/>
      <point x="412" y="553"/>
      <point x="190" y="583" type="curve"/>
      <point x="178" y="506" type="line"/>
      <point x="365" y="482"/>
      <point x="487" y="390"/>
      <point x="487" y="184" type="curve" smooth="yes"/>
      <point x="487" y="115"/>
      <point x="473" y="63"/>
      <point x="420" y="63" type="curve" smooth="yes"/>
      <point x="382" y="63"/>
      <point x="349" y="99"/>
      <point x="345" y="194" type="curve"/>
      <point x="277" y="194" type="line"/>
      <point x="272" y="104"/>
      <point x="248" y="63"/>
      <point x="183" y="63" type="curve" smooth="yes"/>
      <point x="127" y="63"/>
      <point x="97" y="103"/>
      <point x="97" y="168" type="curve" smooth="yes"/>
      <point x="97" y="224"/>
      <point x="114" y="256"/>
      <point x="143" y="256" type="curve" smooth="yes"/>
      <point x="160" y="256"/>
      <point x="172" y="241"/>
      <point x="172" y="220" type="curve" smooth="yes"/>
      <point x="172" y="206"/>
      <point x="170" y="190"/>
      <point x="165" y="178" type="curve"/>
      <point x="227" y="171" type="line"/>
      <point x="235" y="187"/>
      <point x="241" y="209"/>
      <point x="241" y="230" type="curve" smooth="yes"/>
      <point x="241" y="287"/>
      <point x="206" y="323"/>
      <point x="149" y="323" type="curve" smooth="yes"/>
      <point x="73" y="323"/>
      <point x="28" y="258"/>
      <point x="28" y="168" type="curve" smooth="yes"/>
      <point x="28" y="55"/>
      <point x="87" y="-12"/>
      <point x="171" y="-12" type="curve" smooth="yes"/>
      <point x="242" y="-12"/>
      <point x="284" y="16"/>
      <point x="327" y="110" type="curve"/>
      <point x="296" y="106" type="line"/>
      <point x="327" y="21"/>
      <point x="366" y="-12"/>
    </contour>
  </outline>
</glyph>
<glyph name="eeknda" format="2">
  <advance width="598"/>
  <unicode hex="0C8F"/>
  <outline>
    <contour>
      <point x="427" y="-12" type="curve" smooth="yes"/>
      <point x="515" y="-12"/>
      <point x="563" y="61"/>
      <point x="563" y="193" type="curve" smooth="yes"/>
      <point x="563" y="378"/>
      <point x="460" y="514"/>
      <point x="293" y="583" type="curve"/>
      <point x="273" y="482"/>
      <point x="245" y="455"/>
      <point x="206" y="455" type="curve" smooth="yes"/>
      <point x="164" y="455"/>
      <point x="142" y="489"/>
      <point x="138" y="583" type="curve"/>
      <point x="67" y="578" type="line"/>
      <point x="73" y="423"/>
      <point x="131" y="384"/>
      <point x="206" y="384" type="curve" smooth="yes"/>
      <point x="265" y="384"/>
      <point x="308" y="414"/>
      <point x="341" y="493" type="curve"/>
      <point x="309" y="488" type="line"/>
      <point x="395" y="444"/>
      <point x="487" y="358"/>
      <point x="487" y="184" type="curve" smooth="yes"/>
      <point x="487" y="115"/>
      <point x="473" y="63"/>
      <point x="420" y="63" type="curve" smooth="yes"/>
      <point x="382" y="63"/>
      <point x="349" y="99"/>
      <point x="345" y="194" type="curve"/>
      <point x="277" y="194" type="line"/>
      <point x="272" y="104"/>
      <point x="248" y="63"/>
      <point x="183" y="63" type="curve" smooth="yes"/>
      <point x="127" y="63"/>
      <point x="97" y="103"/>
      <point x="97" y="168" type="curve" smooth="yes"/>
      <point x="97" y="224"/>
      <point x="114" y="256"/>
      <point x="143" y="256" type="curve" smooth="yes"/>
      <point x="160" y="256"/>
      <point x="172" y="241"/>
      <point x="172" y="220" type="curve" smooth="yes"/>
      <point x="172" y="206"/>
      <point x="170" y="190"/>
      <point x="165" y="178" type="curve"/>
      <point x="227" y="171" type="line"/>
      <point x="235" y="187"/>
      <point x="241" y="209"/>
      <point x="241" y="230" type="curve" smooth="yes"/>
      <point x="241" y="287"/>
      <point x="206" y="323"/>
      <point x="149" y="323" type="curve" smooth="yes"/>
      <point x="73" y="323"/>
      <point x="28" y="258"/>
      <point x="28" y="168" type="curve" smooth="yes"/>
      <point x="28" y="55"/>
      <point x="87" y="-12"/>
      <point x="171" y="-12" type="curve" smooth="yes"/>
      <point x="242" y="-12"/>
      <point x="284" y="16"/>
      <point x="327" y="110" type="curve"/>
      <point x="296" y="106" type="line"/>
      <point x="327" y="21"/>
      <point x="366" y="-12"/>
    </contour>
  </outline>
</glyph>
<glyph name="aiknda" format="2">
  <advance width="614"/>
  <unicode hex="0C90"/>
  <outline>
    <contour>
      <point x="431" y="-12" type="curve" smooth="yes"/>
      <point x="513" y="-12"/>
      <point x="576" y="50"/>
      <point x="576" y="247" type="curve" smooth="yes"/>
      <point x="576" y="458"/>
      <point x="505" y="563"/>
      <point x="406" y="563" type="curve" smooth="yes"/>
      <point x="348" y="563"/>
      <point x="308" y="529"/>
      <point x="281" y="457" type="curve"/>
      <point x="296" y="456" type="line"/>
      <point x="271" y="516"/>
      <point x="235" y="563"/>
      <point x="165" y="563" type="curve" smooth="yes"/>
      <point x="88" y="563"/>
      <point x="43" y="506"/>
      <point x="43" y="432" type="curve" smooth="yes"/>
      <point x="43" y="406"/>
      <point x="48" y="375"/>
      <point x="55" y="357" type="curve"/>
      <point x="127" y="374" type="line"/>
      <point x="123" y="387"/>
      <point x="119" y="404"/>
      <point x="119" y="424" type="curve" smooth="yes"/>
      <point x="119" y="459"/>
      <point x="133" y="488"/>
      <point x="173" y="488" type="curve" smooth="yes"/>
      <point x="217" y="488"/>
      <point x="245" y="447"/>
      <point x="256" y="373" type="curve"/>
      <point x="325" y="373" type="line"/>
      <point x="330" y="445"/>
      <point x="354" y="488"/>
      <point x="399" y="488" type="curve" smooth="yes"/>
      <point x="462" y="488"/>
      <point x="500" y="397"/>
      <point x="500" y="245" type="curve" smooth="yes"/>
      <point x="500" y="127"/>
      <point x="481" y="63"/>
      <point x="425" y="63" type="curve" smooth="yes"/>
      <point x="388" y="63"/>
      <point x="353" y="94"/>
      <point x="350" y="194" type="curve"/>
      <point x="282" y="194" type="line"/>
      <point x="277" y="104"/>
      <point x="253" y="63"/>
      <point x="188" y="63" type="curve" smooth="yes"/>
      <point x="132" y="63"/>
      <point x="102" y="103"/>
      <point x="102" y="168" type="curve" smooth="yes"/>
      <point x="102" y="224"/>
      <point x="119" y="256"/>
      <point x="148" y="256" type="curve" smooth="yes"/>
      <point x="165" y="256"/>
      <point x="177" y="241"/>
      <point x="177" y="220" type="curve" smooth="yes"/>
      <point x="177" y="206"/>
      <point x="175" y="190"/>
      <point x="170" y="178" type="curve"/>
      <point x="232" y="171" type="line"/>
      <point x="240" y="187"/>
      <point x="246" y="209"/>
      <point x="246" y="230" type="curve" smooth="yes"/>
      <point x="246" y="287"/>
      <point x="211" y="323"/>
      <point x="154" y="323" type="curve" smooth="yes"/>
      <point x="78" y="323"/>
      <point x="33" y="258"/>
      <point x="33" y="168" type="curve" smooth="yes"/>
      <point x="33" y="55"/>
      <point x="92" y="-12"/>
      <point x="176" y="-12" type="curve" smooth="yes"/>
      <point x="247" y="-12"/>
      <point x="289" y="16"/>
      <point x="332" y="110" type="curve"/>
      <point x="301" y="106" type="line"/>
      <point x="328" y="27"/>
      <point x="364" y="-12"/>
    </contour>
  </outline>
</glyph>
<glyph name="ooknda" format="2">
  <advance width="595"/>
  <unicode hex="0C93"/>
  <outline>
    <contour>
      <point x="124" y="528" type="curve"/>
      <point x="185" y="558" type="line"/>
      <point x="155" y="585"/>
      <point x="130" y="617"/>
      <point x="130" y="651" type="curve" smooth="yes"/>
      <point x="130" y="688"/>
      <point x="154" y="705"/>
      <point x="200" y="709" type="curve"/>
      <point x="193" y="785" type="line"/>
      <point x="100" y="779"/>
      <point x="57" y="725"/>
      <point x="57" y="665" type="curve" smooth="yes"/>
      <point x="57" y="609"/>
      <point x="89" y="564"/>
    </contour>
    <component base="oknda"/>
  </outline>
</glyph>
<glyph name="auknda" format="2">
  <advance width="598"/>
  <unicode hex="0C94"/>
  <outline>
    <contour>
      <point x="424" y="-12" type="curve" smooth="yes"/>
      <point x="521" y="-12"/>
      <point x="567" y="61"/>
      <point x="567" y="155" type="curve" smooth="yes"/>
      <point x="567" y="211"/>
      <point x="548" y="267"/>
      <point x="516" y="312" type="curve"/>
      <point x="449" y="271" type="line"/>
      <point x="472" y="242"/>
      <point x="491" y="198"/>
      <point x="491" y="151" type="curve" smooth="yes"/>
      <point x="491" y="106"/>
      <point x="473" y="63"/>
      <point x="418" y="63" type="curve" smooth="yes"/>
      <point x="375" y="63"/>
      <point x="343" y="99"/>
      <point x="339" y="194" type="curve"/>
      <point x="271" y="194" type="line"/>
      <point x="266" y="103"/>
      <point x="239" y="63"/>
      <point x="182" y="63" type="curve" smooth="yes"/>
      <point x="144" y="63"/>
      <point x="121" y="87"/>
      <point x="121" y="136" type="curve" smooth="yes"/>
      <point x="121" y="177"/>
      <point x="140" y="213"/>
      <point x="190" y="260" type="curve" smooth="yes"/>
      <point x="247" y="313"/>
      <point x="278" y="359"/>
      <point x="278" y="426" type="curve" smooth="yes"/>
      <point x="278" y="489"/>
      <point x="247" y="559"/>
      <point x="155" y="559" type="curve" smooth="yes"/>
      <point x="69" y="559"/>
      <point x="25" y="500"/>
      <point x="25" y="432" type="curve" smooth="yes"/>
      <point x="25" y="401"/>
      <point x="33" y="369"/>
      <point x="47" y="336" type="curve"/>
      <point x="117" y="359" type="line"/>
      <point x="108" y="380"/>
      <point x="100" y="401"/>
      <point x="100" y="428" type="curve" smooth="yes"/>
      <point x="100" y="464"/>
      <point x="117" y="494"/>
      <point x="154" y="494" type="curve" smooth="yes"/>
      <point x="190" y="494"/>
      <point x="203" y="463"/>
      <point x="203" y="425" type="curve" smooth="yes"/>
      <point x="203" y="382"/>
      <point x="184" y="354"/>
      <point x="147" y="319" type="curve" smooth="yes"/>
      <point x="81" y="257"/>
      <point x="45" y="211"/>
      <point x="45" y="136" type="curve" smooth="yes"/>
      <point x="45" y="58"/>
      <point x="86" y="-12"/>
      <point x="169" y="-12" type="curve" smooth="yes"/>
      <point x="238" y="-12"/>
      <point x="281" y="18"/>
      <point x="321" y="110" type="curve"/>
      <point x="290" y="106" type="line"/>
      <point x="321" y="21"/>
      <point x="360" y="-12"/>
    </contour>
    <contour>
      <point x="64" y="502" type="line"/>
      <point x="127" y="502" type="line" smooth="yes"/>
      <point x="163" y="502"/>
      <point x="197" y="506"/>
      <point x="227" y="529" type="curve" smooth="yes"/>
      <point x="255" y="551"/>
      <point x="267" y="589"/>
      <point x="267" y="622" type="curve" smooth="yes"/>
      <point x="267" y="661"/>
      <point x="248" y="697"/>
      <point x="233" y="717" type="curve"/>
      <point x="162" y="709" type="line"/>
      <point x="183" y="682"/>
      <point x="195" y="655"/>
      <point x="195" y="629" type="curve" smooth="yes"/>
      <point x="195" y="606"/>
      <point x="190" y="588"/>
      <point x="176" y="577" type="curve" smooth="yes"/>
      <point x="163" y="567"/>
      <point x="147" y="563"/>
      <point x="113" y="563" type="curve" smooth="yes"/>
      <point x="64" y="563" type="line"/>
    </contour>
    <contour>
      <point x="418" y="327" type="curve" smooth="yes"/>
      <point x="501" y="327"/>
      <point x="558" y="391"/>
      <point x="558" y="534" type="curve" smooth="yes"/>
      <point x="558" y="603"/>
      <point x="540" y="675"/>
      <point x="493" y="721" type="curve" smooth="yes"/>
      <point x="456" y="758"/>
      <point x="402" y="781"/>
      <point x="292" y="781" type="curve" smooth="yes"/>
      <point x="38" y="781" type="line"/>
      <point x="38" y="708" type="line"/>
      <point x="296" y="708" type="line" smooth="yes"/>
      <point x="358" y="708"/>
      <point x="393" y="700"/>
      <point x="422" y="681" type="curve" smooth="yes"/>
      <point x="468" y="651"/>
      <point x="485" y="594"/>
      <point x="485" y="531" type="curve" smooth="yes"/>
      <point x="485" y="435"/>
      <point x="460" y="393"/>
      <point x="416" y="393" type="curve" smooth="yes"/>
      <point x="379" y="393"/>
      <point x="365" y="427"/>
      <point x="365" y="474" type="curve" smooth="yes"/>
      <point x="365" y="495"/>
      <point x="369" y="514"/>
      <point x="377" y="538" type="curve"/>
      <point x="362" y="532" type="line"/>
      <point x="364" y="491"/>
      <point x="386" y="482"/>
      <point x="405" y="482" type="curve" smooth="yes"/>
      <point x="430" y="482"/>
      <point x="448" y="499"/>
      <point x="448" y="536" type="curve" smooth="yes"/>
      <point x="448" y="577"/>
      <point x="423" y="597"/>
      <point x="388" y="597" type="curve" smooth="yes"/>
      <point x="345" y="597"/>
      <point x="301" y="559"/>
      <point x="301" y="474" type="curve" smooth="yes"/>
      <point x="301" y="384"/>
      <point x="345" y="327"/>
    </contour>
  </outline>
</glyph>
<glyph name="kaknda" format="2">
  <advance width="444"/>
  <unicode hex="0C95"/>
  <outline>
    <contour>
      <point x="220" y="-12" type="curve" smooth="yes"/>
      <point x="335" y="-12"/>
      <point x="395" y="68"/>
      <point x="395" y="167" type="curve" smooth="yes"/>
      <point x="395" y="256"/>
      <point x="351" y="303"/>
      <point x="307" y="326" type="curve"/>
      <point x="303" y="311" type="line"/>
      <point x="410" y="309" type="line"/>
      <point x="410" y="375" type="line"/>
      <point x="268" y="375" type="line"/>
      <point x="274" y="385"/>
      <point x="281" y="403"/>
      <point x="281" y="422" type="curve" smooth="yes"/>
      <point x="281" y="442"/>
      <point x="276" y="462"/>
      <point x="264" y="480" type="curve"/>
      <point x="233" y="491" type="line"/>
      <point x="192" y="479" type="line"/>
      <point x="203" y="460"/>
      <point x="208" y="444"/>
      <point x="208" y="424" type="curve" smooth="yes"/>
      <point x="208" y="403"/>
      <point x="200" y="389"/>
      <point x="187" y="375" type="curve"/>
      <point x="35" y="375" type="line"/>
      <point x="35" y="309" type="line"/>
      <point x="139" y="310" type="line"/>
      <point x="135" y="325" type="line"/>
      <point x="83" y="299"/>
      <point x="50" y="243"/>
      <point x="50" y="170" type="curve" smooth="yes"/>
      <point x="50" y="65"/>
      <point x="115" y="-12"/>
    </contour>
    <contour>
      <point x="222" y="63" type="curve" smooth="yes"/>
      <point x="153" y="63"/>
      <point x="125" y="114"/>
      <point x="125" y="180" type="curve" smooth="yes"/>
      <point x="125" y="256"/>
      <point x="159" y="310"/>
      <point x="222" y="310" type="curve" smooth="yes"/>
      <point x="283" y="310"/>
      <point x="320" y="257"/>
      <point x="320" y="179" type="curve" smooth="yes"/>
      <point x="320" y="115"/>
      <point x="293" y="63"/>
    </contour>
    <contour>
      <point x="35" y="477" type="line"/>
      <point x="247" y="477" type="line" smooth="yes"/>
      <point x="317" y="477"/>
      <point x="350" y="492"/>
      <point x="377" y="516" type="curve" smooth="yes"/>
      <point x="400" y="537"/>
      <point x="414" y="574"/>
      <point x="414" y="613" type="curve" smooth="yes"/>
      <point x="414" y="678"/>
      <point x="393" y="725"/>
      <point x="342" y="790" type="curve"/>
      <point x="281" y="750" type="line"/>
      <point x="318" y="707"/>
      <point x="341" y="663"/>
      <point x="341" y="620" type="curve" smooth="yes"/>
      <point x="341" y="600"/>
      <point x="337" y="584"/>
      <point x="326" y="573" type="curve" smooth="yes"/>
      <point x="311" y="558"/>
      <point x="291" y="551"/>
      <point x="234" y="551" type="curve" smooth="yes"/>
      <point x="35" y="551" type="line"/>
    </contour>
  </outline>
</glyph>
<glyph name="khaknda" format="2">
  <advance width="672"/>
  <unicode hex="0C96"/>
  <outline>
    <contour>
      <point x="459" y="-12" type="curve" smooth="yes"/>
      <point x="580" y="-12"/>
      <point x="636" y="83"/>
      <point x="636" y="225" type="curve" smooth="yes"/>
      <point x="636" y="408"/>
      <point x="548" y="544"/>
      <point x="431" y="629" type="curve"/>
      <point x="379" y="568" type="line"/>
      <point x="473" y="503"/>
      <point x="560" y="391"/>
      <point x="560" y="223" type="curve" smooth="yes"/>
      <point x="560" y="121"/>
      <point x="526" y="63"/>
      <point x="455" y="63" type="curve" smooth="yes"/>
      <point x="395" y="63"/>
      <point x="363" y="93"/>
      <point x="318" y="152" type="curve"/>
      <point x="299" y="162" type="line"/>
      <point x="250" y="217"/>
      <point x="211" y="256"/>
      <point x="151" y="256" type="curve" smooth="yes"/>
      <point x="69" y="256"/>
      <point x="22" y="199"/>
      <point x="22" y="125" type="curve" smooth="yes"/>
      <point x="22" y="38"/>
      <point x="73" y="-12"/>
      <point x="156" y="-12" type="curve" smooth="yes"/>
      <point x="234" y="-12"/>
      <point x="289" y="30"/>
      <point x="320" y="90" type="curve"/>
      <point x="356" y="153"/>
      <point x="369" y="224"/>
      <point x="369" y="311" type="curve" smooth="yes"/>
      <point x="369" y="460"/>
      <point x="311" y="563"/>
      <point x="204" y="563" type="curve" smooth="yes"/>
      <point x="128" y="563"/>
      <point x="70" y="510"/>
      <point x="70" y="425" type="curve" smooth="yes"/>
      <point x="70" y="345"/>
      <point x="116" y="305"/>
      <point x="163" y="305" type="curve" smooth="yes"/>
      <point x="204" y="305"/>
      <point x="227" y="328"/>
      <point x="227" y="368" type="curve" smooth="yes"/>
      <point x="227" y="401"/>
      <point x="210" y="420"/>
      <point x="186" y="420" type="curve" smooth="yes"/>
      <point x="159" y="420"/>
      <point x="142" y="403"/>
      <point x="142" y="354" type="curve"/>
      <point x="156" y="359" type="line"/>
      <point x="142" y="378"/>
      <point x="137" y="403"/>
      <point x="137" y="423" type="curve" smooth="yes"/>
      <point x="137" y="471"/>
      <point x="163" y="495"/>
      <point x="197" y="495" type="curve" smooth="yes"/>
      <point x="258" y="495"/>
      <point x="293" y="423"/>
      <point x="293" y="305" type="curve" smooth="yes"/>
      <point x="293" y="165"/>
      <point x="253" y="59"/>
      <point x="158" y="59" type="curve" smooth="yes"/>
      <point x="110" y="59"/>
      <point x="95" y="87"/>
      <point x="95" y="124" type="curve" smooth="yes"/>
      <point x="95" y="159"/>
      <point x="112" y="190"/>
      <point x="154" y="190" type="curve" smooth="yes"/>
      <point x="194" y="190"/>
      <point x="223" y="159"/>
      <point x="269" y="103" type="curve" smooth="yes"/>
      <point x="273" y="99"/>
      <point x="277" y="94"/>
      <point x="280" y="90" type="curve" smooth="yes"/>
      <point x="323" y="38"/>
      <point x="368" y="-12"/>
    </contour>
  </outline>
</glyph>
<glyph name="gaknda" format="2">
  <advance width="499"/>
  <unicode hex="0C97"/>
  <outline>
    <contour>
      <point x="250" y="479" type="curve" smooth="yes"/>
      <point x="293" y="479"/>
      <point x="324" y="443"/>
      <point x="341" y="394" type="curve" smooth="yes"/>
      <point x="364" y="327"/>
      <point x="371" y="276"/>
      <point x="371" y="150" type="curve" smooth="yes"/>
      <point x="371" y="0" type="line"/>
      <point x="453" y="0" type="line"/>
      <point x="453" y="154" type="line" smooth="yes"/>
      <point x="453" y="294"/>
      <point x="438" y="417"/>
      <point x="353" y="496" type="curve"/>
      <point x="335" y="480" type="line"/>
      <point x="403" y="491"/>
      <point x="452" y="533"/>
      <point x="452" y="614" type="curve" smooth="yes"/>
      <point x="452" y="678"/>
      <point x="431" y="725"/>
      <point x="380" y="790" type="curve"/>
      <point x="319" y="750" type="line"/>
      <point x="356" y="707"/>
      <point x="379" y="662"/>
      <point x="379" y="619" type="curve" smooth="yes"/>
      <point x="379" y="600"/>
      <point x="375" y="584"/>
      <point x="364" y="573" type="curve" smooth="yes"/>
      <point x="350" y="558"/>
      <point x="329" y="551"/>
      <point x="272" y="551" type="curve" smooth="yes"/>
      <point x="43" y="551" type="line"/>
      <point x="43" y="477" type="line"/>
      <point x="167" y="477" type="line"/>
      <point x="149" y="492" type="line"/>
      <point x="62" y="419"/>
      <point x="46" y="292"/>
      <point x="46" y="151" type="curve" smooth="yes"/>
      <point x="46" y="0" type="line"/>
      <point x="128" y="0" type="line"/>
      <point x="128" y="147" type="line" smooth="yes"/>
      <point x="128" y="281"/>
      <point x="134" y="327"/>
      <point x="158" y="394" type="curve" smooth="yes"/>
      <point x="176" y="444"/>
      <point x="206" y="479"/>
    </contour>
  </outline>
</glyph>
<glyph name="ghaknda" format="2">
  <advance width="753"/>
  <unicode hex="0C98"/>
  <outline>
    <contour>
      <point x="173" y="-12" type="curve" smooth="yes"/>
      <point x="244" y="-12"/>
      <point x="286" y="16"/>
      <point x="329" y="110" type="curve"/>
      <point x="298" y="106" type="line"/>
      <point x="329" y="21"/>
      <point x="367" y="-12"/>
      <point x="432" y="-12" type="curve" smooth="yes"/>
      <point x="520" y="-12"/>
      <point x="565" y="59"/>
      <point x="565" y="148" type="curve" smooth="yes"/>
      <point x="565" y="221"/>
      <point x="541" y="252"/>
      <point x="486" y="315" type="curve"/>
      <point x="485" y="381" type="line"/>
      <point x="419" y="345" type="line"/>
      <point x="457" y="296"/>
      <point x="490" y="225"/>
      <point x="490" y="155" type="curve" smooth="yes"/>
      <point x="490" y="105"/>
      <point x="473" y="63"/>
      <point x="422" y="63" type="curve" smooth="yes"/>
      <point x="384" y="63"/>
      <point x="351" y="99"/>
      <point x="347" y="194" type="curve"/>
      <point x="279" y="194" type="line"/>
      <point x="274" y="104"/>
      <point x="250" y="63"/>
      <point x="185" y="63" type="curve" smooth="yes"/>
      <point x="129" y="63"/>
      <point x="99" y="103"/>
      <point x="99" y="168" type="curve" smooth="yes"/>
      <point x="99" y="224"/>
      <point x="116" y="256"/>
      <point x="145" y="256" type="curve" smooth="yes"/>
      <point x="162" y="256"/>
      <point x="174" y="241"/>
      <point x="174" y="220" type="curve" smooth="yes"/>
      <point x="174" y="206"/>
      <point x="172" y="190"/>
      <point x="167" y="178" type="curve"/>
      <point x="229" y="171" type="line"/>
      <point x="237" y="187"/>
      <point x="243" y="209"/>
      <point x="243" y="230" type="curve" smooth="yes"/>
      <point x="243" y="287"/>
      <point x="208" y="323"/>
      <point x="151" y="323" type="curve" smooth="yes"/>
      <point x="75" y="323"/>
      <point x="30" y="258"/>
      <point x="30" y="168" type="curve" smooth="yes"/>
      <point x="30" y="55"/>
      <point x="89" y="-12"/>
    </contour>
    <contour>
      <point x="269" y="-144" type="line"/>
      <point x="355" y="-144" type="line"/>
      <point x="347" y="9" type="line"/>
      <point x="277" y="9" type="line"/>
    </contour>
    <contour>
      <point x="307" y="301" type="curve" smooth="yes"/>
      <point x="338" y="301"/>
      <point x="360" y="324"/>
      <point x="360" y="357" type="curve" smooth="yes"/>
      <point x="360" y="390"/>
      <point x="338" y="413"/>
      <point x="307" y="413" type="curve" smooth="yes"/>
      <point x="277" y="413"/>
      <point x="254" y="390"/>
      <point x="254" y="357" type="curve" smooth="yes"/>
      <point x="254" y="324"/>
      <point x="277" y="301"/>
    </contour>
    <contour>
      <point x="33" y="477" type="line"/>
      <point x="401" y="477" type="line" smooth="yes"/>
      <point x="471" y="477"/>
      <point x="504" y="492"/>
      <point x="531" y="516" type="curve" smooth="yes"/>
      <point x="554" y="537"/>
      <point x="568" y="574"/>
      <point x="568" y="613" type="curve" smooth="yes"/>
      <point x="568" y="678"/>
      <point x="547" y="725"/>
      <point x="496" y="790" type="curve"/>
      <point x="435" y="750" type="line"/>
      <point x="472" y="707"/>
      <point x="495" y="663"/>
      <point x="495" y="620" type="curve" smooth="yes"/>
      <point x="495" y="600"/>
      <point x="491" y="584"/>
      <point x="480" y="573" type="curve" smooth="yes"/>
      <point x="465" y="558"/>
      <point x="445" y="551"/>
      <point x="388" y="551" type="curve" smooth="yes"/>
      <point x="33" y="551" type="line"/>
    </contour>
    <contour>
      <point x="618" y="209" type="curve" smooth="yes"/>
      <point x="668" y="209"/>
      <point x="729" y="248"/>
      <point x="729" y="354" type="curve" smooth="yes"/>
      <point x="729" y="443"/>
      <point x="681" y="512"/>
      <point x="629" y="564" type="curve"/>
      <point x="572" y="511" type="line"/>
      <point x="622" y="467"/>
      <point x="654" y="413"/>
      <point x="654" y="353" type="curve" smooth="yes"/>
      <point x="654" y="300"/>
      <point x="634" y="275"/>
      <point x="598" y="275" type="curve" smooth="yes"/>
      <point x="553" y="275"/>
      <point x="527" y="307"/>
      <point x="485" y="381" type="curve"/>
      <point x="475" y="321" type="line"/>
      <point x="529" y="238"/>
      <point x="558" y="209"/>
    </contour>
  </outline>
</glyph>
<glyph name="caknda" format="2">
  <advance width="614"/>
  <unicode hex="0C9A"/>
  <outline>
    <contour>
      <point x="424" y="-12" type="curve" smooth="yes"/>
      <point x="521" y="-12"/>
      <point x="567" y="61"/>
      <point x="567" y="152" type="curve" smooth="yes"/>
      <point x="567" y="242"/>
      <point x="520" y="298"/>
      <point x="471" y="336" type="curve"/>
      <point x="401" y="318" type="line"/>
      <point x="454" y="280"/>
      <point x="491" y="218"/>
      <point x="491" y="151" type="curve" smooth="yes"/>
      <point x="491" y="106"/>
      <point x="473" y="63"/>
      <point x="418" y="63" type="curve" smooth="yes"/>
      <point x="375" y="63"/>
      <point x="343" y="99"/>
      <point x="339" y="194" type="curve"/>
      <point x="271" y="194" type="line"/>
      <point x="266" y="103"/>
      <point x="239" y="63"/>
      <point x="182" y="63" type="curve" smooth="yes"/>
      <point x="144" y="63"/>
      <point x="121" y="87"/>
      <point x="121" y="136" type="curve" smooth="yes"/>
      <point x="121" y="177"/>
      <point x="140" y="213"/>
      <point x="190" y="260" type="curve" smooth="yes"/>
      <point x="247" y="313"/>
      <point x="278" y="359"/>
      <point x="278" y="426" type="curve" smooth="yes"/>
      <point x="278" y="489"/>
      <point x="247" y="563"/>
      <point x="155" y="563" type="curve" smooth="yes"/>
      <point x="69" y="563"/>
      <point x="25" y="500"/>
      <point x="25" y="432" type="curve" smooth="yes"/>
      <point x="25" y="401"/>
      <point x="33" y="369"/>
      <point x="47" y="336" type="curve"/>
      <point x="117" y="359" type="line"/>
      <point x="108" y="380"/>
      <point x="100" y="401"/>
      <point x="100" y="428" type="curve" smooth="yes"/>
      <point x="100" y="464"/>
      <point x="117" y="494"/>
      <point x="154" y="494" type="curve" smooth="yes"/>
      <point x="190" y="494"/>
      <point x="203" y="463"/>
      <point x="203" y="425" type="curve" smooth="yes"/>
      <point x="203" y="382"/>
      <point x="184" y="354"/>
      <point x="147" y="319" type="curve" smooth="yes"/>
      <point x="81" y="257"/>
      <point x="45" y="211"/>
      <point x="45" y="136" type="curve" smooth="yes"/>
      <point x="45" y="58"/>
      <point x="86" y="-12"/>
      <point x="169" y="-12" type="curve" smooth="yes"/>
      <point x="238" y="-12"/>
      <point x="281" y="18"/>
      <point x="321" y="110" type="curve"/>
      <point x="290" y="106" type="line"/>
      <point x="321" y="21"/>
      <point x="360" y="-12"/>
    </contour>
    <contour>
      <point x="338" y="309" type="line"/>
      <point x="461" y="310" type="line"/>
      <point x="477" y="313" type="line"/>
      <point x="503" y="310"/>
      <point x="528" y="309"/>
      <point x="553" y="309" type="curve" smooth="yes"/>
      <point x="581" y="309" type="line"/>
      <point x="581" y="375" type="line"/>
      <point x="492" y="375" type="line"/>
      <point x="498" y="385"/>
      <point x="505" y="403"/>
      <point x="505" y="422" type="curve" smooth="yes"/>
      <point x="505" y="446"/>
      <point x="501" y="471"/>
      <point x="478" y="496" type="curve"/>
      <point x="448" y="497" type="line"/>
      <point x="416" y="479" type="line"/>
      <point x="427" y="460"/>
      <point x="432" y="444"/>
      <point x="432" y="424" type="curve" smooth="yes"/>
      <point x="432" y="403"/>
      <point x="424" y="389"/>
      <point x="411" y="375" type="curve"/>
      <point x="338" y="375" type="line"/>
    </contour>
    <contour>
      <point x="338" y="474" type="line"/>
      <point x="392" y="474" type="line" smooth="yes"/>
      <point x="469" y="474"/>
      <point x="510" y="486"/>
      <point x="544" y="516" type="curve" smooth="yes"/>
      <point x="578" y="545"/>
      <point x="585" y="586"/>
      <point x="585" y="612" type="curve" smooth="yes"/>
      <point x="585" y="669"/>
      <point x="566" y="720"/>
      <point x="504" y="790" type="curve"/>
      <point x="439" y="747" type="line"/>
      <point x="483" y="703"/>
      <point x="504" y="662"/>
      <point x="504" y="618" type="curve" smooth="yes"/>
      <point x="504" y="599"/>
      <point x="499" y="582"/>
      <point x="482" y="569" type="curve" smooth="yes"/>
      <point x="468" y="558"/>
      <point x="446" y="551"/>
      <point x="374" y="551" type="curve" smooth="yes"/>
      <point x="338" y="551" type="line"/>
    </contour>
  </outline>
</glyph>
<glyph name="chaknda" format="2">
  <advance width="657"/>
  <unicode hex="0C9B"/>
  <outline>
    <contour>
      <point x="208" y="-12" type="curve" smooth="yes"/>
      <point x="279" y="-12"/>
      <point x="325" y="20"/>
      <point x="358" y="113" type="curve"/>
      <point x="327" y="106" type="line"/>
      <point x="358" y="21"/>
      <point x="399" y="-12"/>
      <point x="468" y="-12" type="curve" smooth="yes"/>
      <point x="558" y="-12"/>
      <point x="619" y="58"/>
      <point x="619" y="198" type="curve" smooth="yes"/>
      <point x="619" y="345"/>
      <point x="567" y="434"/>
      <point x="494" y="495" type="curve"/>
      <point x="398" y="484" type="line"/>
      <point x="473" y="448"/>
      <point x="543" y="337"/>
      <point x="543" y="201" type="curve" smooth="yes"/>
      <point x="543" y="99"/>
      <point x="511" y="63"/>
      <point x="463" y="63" type="curve" smooth="yes"/>
      <point x="413" y="63"/>
      <point x="380" y="99"/>
      <point x="376" y="194" type="curve"/>
      <point x="308" y="194" type="line"/>
      <point x="302" y="101"/>
      <point x="270" y="63"/>
      <point x="212" y="63" type="curve" smooth="yes"/>
      <point x="153" y="63"/>
      <point x="113" y="114"/>
      <point x="113" y="250" type="curve" smooth="yes"/>
      <point x="113" y="436"/>
      <point x="164" y="496"/>
      <point x="215" y="496" type="curve" smooth="yes"/>
      <point x="241" y="496"/>
      <point x="260" y="475"/>
      <point x="260" y="427" type="curve" smooth="yes"/>
      <point x="260" y="375"/>
      <point x="237" y="348"/>
      <point x="194" y="348" type="curve" smooth="yes"/>
      <point x="150" y="348"/>
      <point x="122" y="373"/>
      <point x="105" y="398" type="curve"/>
      <point x="83" y="333" type="line"/>
      <point x="112" y="306"/>
      <point x="149" y="281"/>
      <point x="196" y="281" type="curve" smooth="yes"/>
      <point x="284" y="281"/>
      <point x="333" y="334"/>
      <point x="333" y="429" type="curve" smooth="yes"/>
      <point x="333" y="515"/>
      <point x="286" y="563"/>
      <point x="217" y="563" type="curve" smooth="yes"/>
      <point x="111" y="563"/>
      <point x="38" y="456"/>
      <point x="38" y="258" type="curve" smooth="yes"/>
      <point x="38" y="77"/>
      <point x="108" y="-12"/>
    </contour>
    <contour>
      <point x="299" y="-144" type="line"/>
      <point x="385" y="-144" type="line"/>
      <point x="377" y="9" type="line"/>
      <point x="307" y="9" type="line"/>
    </contour>
    <contour>
      <point x="365" y="477" type="line"/>
      <point x="447" y="477" type="line" smooth="yes"/>
      <point x="517" y="477"/>
      <point x="550" y="492"/>
      <point x="577" y="516" type="curve" smooth="yes"/>
      <point x="600" y="537"/>
      <point x="614" y="574"/>
      <point x="614" y="613" type="curve" smooth="yes"/>
      <point x="614" y="678"/>
      <point x="593" y="725"/>
      <point x="542" y="790" type="curve"/>
      <point x="481" y="750" type="line"/>
      <point x="518" y="707"/>
      <point x="541" y="663"/>
      <point x="541" y="620" type="curve" smooth="yes"/>
      <point x="541" y="600"/>
      <point x="537" y="584"/>
      <point x="526" y="573" type="curve" smooth="yes"/>
      <point x="511" y="558"/>
      <point x="491" y="551"/>
      <point x="434" y="551" type="curve" smooth="yes"/>
      <point x="365" y="551" type="line"/>
    </contour>
  </outline>
</glyph>
<glyph name="nyaknda" format="2">
  <advance width="742"/>
  <unicode hex="0C9E"/>
  <outline>
    <contour>
      <point x="262" y="-12" type="curve" smooth="yes"/>
      <point x="330" y="-12"/>
      <point x="382" y="20"/>
      <point x="424" y="68" type="curve"/>
      <point x="446" y="87" type="line"/>
      <point x="494" y="150"/>
      <point x="516" y="246"/>
      <point x="516" y="328" type="curve" smooth="yes"/>
      <point x="516" y="364"/>
      <point x="512" y="404"/>
      <point x="503" y="438" type="curve" smooth="yes"/>
      <point x="501" y="444"/>
      <point x="496" y="453"/>
      <point x="494" y="459" type="curve" smooth="yes"/>
      <point x="471" y="533"/>
      <point x="429" y="563"/>
      <point x="372" y="563" type="curve" smooth="yes"/>
      <point x="327" y="563"/>
      <point x="278" y="540"/>
      <point x="248" y="444" type="curve"/>
      <point x="270" y="442" type="line"/>
      <point x="249" y="522"/>
      <point x="207" y="563"/>
      <point x="146" y="563" type="curve" smooth="yes"/>
      <point x="75" y="563"/>
      <point x="25" y="507"/>
      <point x="25" y="427" type="curve" smooth="yes"/>
      <point x="25" y="385"/>
      <point x="35" y="348"/>
      <point x="44" y="323" type="curve"/>
      <point x="115" y="343" type="line"/>
      <point x="108" y="360"/>
      <point x="101" y="391"/>
      <point x="101" y="420" type="curve" smooth="yes"/>
      <point x="101" y="463"/>
      <point x="120" y="488"/>
      <point x="153" y="488" type="curve" smooth="yes"/>
      <point x="193" y="488"/>
      <point x="220" y="450"/>
      <point x="226" y="370" type="curve"/>
      <point x="294" y="370" type="line"/>
      <point x="299" y="446"/>
      <point x="319" y="488"/>
      <point x="365" y="488" type="curve" smooth="yes"/>
      <point x="413" y="488"/>
      <point x="441" y="438"/>
      <point x="441" y="330" type="curve" smooth="yes"/>
      <point x="441" y="204"/>
      <point x="395" y="59"/>
      <point x="264" y="59" type="curve" smooth="yes"/>
      <point x="204" y="59"/>
      <point x="179" y="92"/>
      <point x="179" y="138" type="curve" smooth="yes"/>
      <point x="179" y="183"/>
      <point x="208" y="212"/>
      <point x="255" y="212" type="curve" smooth="yes"/>
      <point x="351" y="212"/>
      <point x="411" y="95"/>
      <point x="430" y="-55" type="curve"/>
      <point x="508" y="-41" type="line"/>
      <point x="496" y="21"/>
      <point x="477" y="84"/>
      <point x="443" y="138" type="curve"/>
      <point x="404" y="222"/>
      <point x="347" y="281"/>
      <point x="253" y="281" type="curve" smooth="yes"/>
      <point x="170" y="281"/>
      <point x="105" y="226"/>
      <point x="105" y="140" type="curve" smooth="yes"/>
      <point x="105" y="51"/>
      <point x="156" y="-12"/>
    </contour>
    <contour>
      <point x="596" y="563" type="curve" smooth="yes"/>
      <point x="544" y="563"/>
      <point x="509" y="535"/>
      <point x="483" y="471" type="curve"/>
      <point x="514" y="356" type="line"/>
      <point x="516" y="441"/>
      <point x="546" y="488"/>
      <point x="589" y="488" type="curve" smooth="yes"/>
      <point x="622" y="488"/>
      <point x="641" y="463"/>
      <point x="641" y="420" type="curve" smooth="yes"/>
      <point x="641" y="391"/>
      <point x="633" y="359"/>
      <point x="627" y="343" type="curve"/>
      <point x="698" y="323" type="line"/>
      <point x="707" y="348"/>
      <point x="717" y="385"/>
      <point x="717" y="427" type="curve" smooth="yes"/>
      <point x="717" y="507"/>
      <point x="667" y="563"/>
    </contour>
  </outline>
</glyph>
<glyph name="tthaknda" format="2">
  <advance width="495"/>
  <unicode hex="0CA0"/>
  <outline>
    <contour>
      <point x="247" y="-12" type="curve" smooth="yes"/>
      <point x="380" y="-12"/>
      <point x="457" y="85"/>
      <point x="457" y="261" type="curve" smooth="yes"/>
      <point x="457" y="373"/>
      <point x="424" y="444"/>
      <point x="367" y="495" type="curve"/>
      <point x="340" y="480" type="line"/>
      <point x="376" y="486"/>
      <point x="402" y="499"/>
      <point x="420" y="517" type="curve" smooth="yes"/>
      <point x="446" y="542"/>
      <point x="457" y="574"/>
      <point x="457" y="614" type="curve" smooth="yes"/>
      <point x="457" y="678"/>
      <point x="436" y="725"/>
      <point x="385" y="790" type="curve"/>
      <point x="324" y="750" type="line"/>
      <point x="361" y="707"/>
      <point x="384" y="662"/>
      <point x="384" y="620" type="curve" smooth="yes"/>
      <point x="384" y="600"/>
      <point x="381" y="586"/>
      <point x="369" y="573" type="curve" smooth="yes"/>
      <point x="355" y="558"/>
      <point x="334" y="551"/>
      <point x="277" y="551" type="curve" smooth="yes"/>
      <point x="38" y="551" type="line"/>
      <point x="38" y="477" type="line"/>
      <point x="145" y="477" type="line"/>
      <point x="132" y="488" type="line"/>
      <point x="74" y="446"/>
      <point x="38" y="364"/>
      <point x="38" y="260" type="curve" smooth="yes"/>
      <point x="38" y="81"/>
      <point x="122" y="-12"/>
    </contour>
    <contour>
      <point x="247" y="66" type="curve" smooth="yes"/>
      <point x="167" y="66"/>
      <point x="114" y="128"/>
      <point x="114" y="261" type="curve" smooth="yes"/>
      <point x="114" y="400"/>
      <point x="164" y="479"/>
      <point x="248" y="479" type="curve" smooth="yes"/>
      <point x="326" y="479"/>
      <point x="381" y="409"/>
      <point x="381" y="261" type="curve" smooth="yes"/>
      <point x="381" y="145"/>
      <point x="339" y="66"/>
    </contour>
    <contour>
      <point x="247" y="220" type="curve" smooth="yes"/>
      <point x="278" y="220"/>
      <point x="300" y="243"/>
      <point x="300" y="276" type="curve" smooth="yes"/>
      <point x="300" y="309"/>
      <point x="278" y="332"/>
      <point x="247" y="332" type="curve" smooth="yes"/>
      <point x="217" y="332"/>
      <point x="194" y="309"/>
      <point x="194" y="276" type="curve" smooth="yes"/>
      <point x="194" y="243"/>
      <point x="217" y="220"/>
    </contour>
  </outline>
</glyph>
<glyph name="ddhaknda" format="2">
  <advance width="582"/>
  <unicode hex="0CA2"/>
  <outline>
    <contour>
      <point x="171" y="-12" type="curve" smooth="yes"/>
      <point x="226" y="-12"/>
      <point x="272" y="9"/>
      <point x="305" y="110" type="curve"/>
      <point x="274" y="106" type="line"/>
      <point x="305" y="21"/>
      <point x="346" y="-12"/>
      <point x="408" y="-12" type="curve" smooth="yes"/>
      <point x="493" y="-12"/>
      <point x="547" y="67"/>
      <point x="547" y="184" type="curve" smooth="yes"/>
      <point x="547" y="275"/>
      <point x="526" y="333"/>
      <point x="480" y="367" type="curve"/>
      <point x="461" y="384"/>
      <point x="434" y="402"/>
      <point x="398" y="402" type="curve" smooth="yes"/>
      <point x="351" y="402"/>
      <point x="307" y="368"/>
      <point x="307" y="302" type="curve" smooth="yes"/>
      <point x="307" y="229"/>
      <point x="353" y="195"/>
      <point x="406" y="195" type="curve" smooth="yes"/>
      <point x="462" y="195"/>
      <point x="482" y="223"/>
      <point x="501" y="257" type="curve"/>
      <point x="505" y="262"/>
      <point x="512" y="271"/>
      <point x="515" y="276" type="curve"/>
      <point x="520" y="296"/>
      <point x="522" y="317"/>
      <point x="522" y="342" type="curve" smooth="yes"/>
      <point x="522" y="400"/>
      <point x="495" y="458"/>
      <point x="439" y="490" type="curve"/>
      <point x="430" y="480" type="line"/>
      <point x="466" y="486"/>
      <point x="491" y="499"/>
      <point x="510" y="517" type="curve" smooth="yes"/>
      <point x="536" y="542"/>
      <point x="547" y="574"/>
      <point x="547" y="614" type="curve" smooth="yes"/>
      <point x="547" y="678"/>
      <point x="526" y="725"/>
      <point x="475" y="790" type="curve"/>
      <point x="414" y="750" type="line"/>
      <point x="451" y="707"/>
      <point x="474" y="662"/>
      <point x="474" y="619" type="curve" smooth="yes"/>
      <point x="474" y="600"/>
      <point x="470" y="584"/>
      <point x="459" y="573" type="curve" smooth="yes"/>
      <point x="445" y="558"/>
      <point x="424" y="551"/>
      <point x="367" y="551" type="curve" smooth="yes"/>
      <point x="38" y="551" type="line"/>
      <point x="38" y="477" type="line"/>
      <point x="160" y="477" type="line"/>
      <point x="156" y="487" type="line"/>
      <point x="85" y="444"/>
      <point x="38" y="345"/>
      <point x="38" y="207" type="curve" smooth="yes"/>
      <point x="38" y="49"/>
      <point x="94" y="-12"/>
    </contour>
    <contour>
      <point x="179" y="63" type="curve" smooth="yes"/>
      <point x="137" y="63"/>
      <point x="114" y="100"/>
      <point x="114" y="212" type="curve" smooth="yes"/>
      <point x="114" y="359"/>
      <point x="173" y="479"/>
      <point x="288" y="479" type="curve" smooth="yes"/>
      <point x="315" y="479" type="line" smooth="yes"/>
      <point x="397" y="479"/>
      <point x="461" y="397"/>
      <point x="461" y="315" type="curve" smooth="yes"/>
      <point x="461" y="277"/>
      <point x="444" y="255"/>
      <point x="413" y="255" type="curve" smooth="yes"/>
      <point x="389" y="255"/>
      <point x="376" y="272"/>
      <point x="376" y="302" type="curve" smooth="yes"/>
      <point x="376" y="327"/>
      <point x="389" y="344"/>
      <point x="412" y="344" type="curve" smooth="yes"/>
      <point x="461" y="344"/>
      <point x="477" y="258"/>
      <point x="477" y="186" type="curve" smooth="yes"/>
      <point x="477" y="98"/>
      <point x="446" y="63"/>
      <point x="403" y="63" type="curve" smooth="yes"/>
      <point x="360" y="63"/>
      <point x="329" y="99"/>
      <point x="323" y="183" type="curve"/>
      <point x="255" y="183" type="line"/>
      <point x="248" y="102"/>
      <point x="222" y="63"/>
    </contour>
    <contour>
      <point x="245" y="-144" type="line"/>
      <point x="331" y="-144" type="line"/>
      <point x="323" y="9" type="line"/>
      <point x="253" y="9" type="line"/>
    </contour>
  </outline>
</glyph>
<glyph name="nnaknda" format="2">
  <advance width="667"/>
  <unicode hex="0CA3"/>
  <outline>
    <contour>
      <point x="454" y="-12" type="curve" smooth="yes"/>
      <point x="577" y="-12"/>
      <point x="629" y="77"/>
      <point x="629" y="252" type="curve" smooth="yes"/>
      <point x="629" y="435"/>
      <point x="564" y="563"/>
      <point x="447" y="563" type="curve" smooth="yes"/>
      <point x="374" y="563"/>
      <point x="321" y="522"/>
      <point x="298" y="439" type="curve"/>
      <point x="317" y="442" type="line"/>
      <point x="290" y="523"/>
      <point x="244" y="563"/>
      <point x="179" y="563" type="curve" smooth="yes"/>
      <point x="89" y="563"/>
      <point x="32" y="492"/>
      <point x="32" y="409" type="curve" smooth="yes"/>
      <point x="32" y="335"/>
      <point x="75" y="269"/>
      <point x="156" y="249" type="curve"/>
      <point x="160" y="277" type="line"/>
      <point x="76" y="262"/>
      <point x="26" y="210"/>
      <point x="26" y="135" type="curve" smooth="yes"/>
      <point x="26" y="52"/>
      <point x="70" y="-12"/>
      <point x="165" y="-12" type="curve" smooth="yes"/>
      <point x="213" y="-12"/>
      <point x="259" y="5"/>
      <point x="289" y="31" type="curve"/>
      <point x="247" y="91" type="line"/>
      <point x="225" y="72"/>
      <point x="200" y="60"/>
      <point x="170" y="60" type="curve" smooth="yes"/>
      <point x="120" y="60"/>
      <point x="102" y="96"/>
      <point x="102" y="140" type="curve" smooth="yes"/>
      <point x="102" y="167"/>
      <point x="111" y="187"/>
      <point x="125" y="201" type="curve" smooth="yes"/>
      <point x="144" y="220"/>
      <point x="171" y="229"/>
      <point x="210" y="229" type="curve" smooth="yes"/>
      <point x="216" y="229" type="line"/>
      <point x="216" y="297" type="line"/>
      <point x="213" y="297" type="line" smooth="yes"/>
      <point x="176" y="297"/>
      <point x="152" y="308"/>
      <point x="134" y="328" type="curve" smooth="yes"/>
      <point x="118" y="346"/>
      <point x="108" y="371"/>
      <point x="108" y="403" type="curve" smooth="yes"/>
      <point x="108" y="448"/>
      <point x="134" y="488"/>
      <point x="186" y="488" type="curve" smooth="yes"/>
      <point x="237" y="488"/>
      <point x="266" y="446"/>
      <point x="273" y="358" type="curve"/>
      <point x="341" y="358" type="line"/>
      <point x="350" y="435"/>
      <point x="380" y="488"/>
      <point x="439" y="488" type="curve" smooth="yes"/>
      <point x="516" y="488"/>
      <point x="553" y="381"/>
      <point x="553" y="255" type="curve" smooth="yes"/>
      <point x="553" y="245" type="line" smooth="yes"/>
      <point x="553" y="108"/>
      <point x="515" y="59"/>
      <point x="458" y="59" type="curve" smooth="yes"/>
      <point x="407" y="59"/>
      <point x="385" y="96"/>
      <point x="385" y="153" type="curve" smooth="yes"/>
      <point x="385" y="198"/>
      <point x="399" y="224"/>
      <point x="425" y="224" type="curve" smooth="yes"/>
      <point x="437" y="224"/>
      <point x="449" y="209"/>
      <point x="449" y="188" type="curve" smooth="yes"/>
      <point x="449" y="174"/>
      <point x="447" y="158"/>
      <point x="442" y="146" type="curve"/>
      <point x="504" y="139" type="line"/>
      <point x="512" y="155"/>
      <point x="518" y="177"/>
      <point x="518" y="198" type="curve" smooth="yes"/>
      <point x="518" y="254"/>
      <point x="483" y="291"/>
      <point x="429" y="291" type="curve" smooth="yes"/>
      <point x="365" y="291"/>
      <point x="316" y="242"/>
      <point x="316" y="149" type="curve" smooth="yes"/>
      <point x="316" y="49"/>
      <point x="368" y="-12"/>
    </contour>
  </outline>
</glyph>
<glyph name="taknda" format="2">
  <advance width="489"/>
  <unicode hex="0CA4"/>
  <outline>
    <contour>
      <point x="247" y="-12" type="curve" smooth="yes"/>
      <point x="384" y="-12"/>
      <point x="455" y="66"/>
      <point x="455" y="193" type="curve" smooth="yes"/>
      <point x="455" y="268"/>
      <point x="424" y="333"/>
      <point x="376" y="367" type="curve"/>
      <point x="372" y="370"/>
      <point x="364" y="364"/>
      <point x="360" y="367" type="curve"/>
      <point x="333" y="389"/>
      <point x="305" y="401"/>
      <point x="269" y="401" type="curve" smooth="yes"/>
      <point x="189" y="401"/>
      <point x="152" y="353"/>
      <point x="152" y="293" type="curve" smooth="yes"/>
      <point x="152" y="219"/>
      <point x="198" y="182"/>
      <point x="260" y="182" type="curve" smooth="yes"/>
      <point x="326" y="182"/>
      <point x="374" y="219"/>
      <point x="393" y="303" type="curve"/>
      <point x="409" y="328" type="line"/>
      <point x="409" y="335"/>
      <point x="410" y="344"/>
      <point x="410" y="362" type="curve" smooth="yes"/>
      <point x="409" y="419"/>
      <point x="382" y="466"/>
      <point x="342" y="495" type="curve"/>
      <point x="244" y="484" type="line"/>
      <point x="285" y="471"/>
      <point x="339" y="437"/>
      <point x="339" y="358" type="curve" smooth="yes"/>
      <point x="339" y="296"/>
      <point x="311" y="250"/>
      <point x="267" y="250" type="curve" smooth="yes"/>
      <point x="236" y="250"/>
      <point x="221" y="266"/>
      <point x="221" y="294" type="curve" smooth="yes"/>
      <point x="221" y="321"/>
      <point x="240" y="337"/>
      <point x="275" y="337" type="curve" smooth="yes"/>
      <point x="307" y="337"/>
      <point x="334" y="322"/>
      <point x="351" y="301" type="curve"/>
      <point x="354" y="296"/>
      <point x="364" y="292"/>
      <point x="367" y="287" type="curve"/>
      <point x="377" y="263"/>
      <point x="383" y="237"/>
      <point x="383" y="198" type="curve" smooth="yes"/>
      <point x="383" y="137"/>
      <point x="355" y="63"/>
      <point x="247" y="63" type="curve" smooth="yes"/>
      <point x="128" y="63"/>
      <point x="106" y="130"/>
      <point x="106" y="196" type="curve" smooth="yes"/>
      <point x="106" y="217"/>
      <point x="107" y="235"/>
      <point x="110" y="249" type="curve"/>
      <point x="38" y="259" type="line"/>
      <point x="34" y="240"/>
      <point x="32" y="220"/>
      <point x="32" y="194" type="curve" smooth="yes"/>
      <point x="32" y="77"/>
      <point x="94" y="-12"/>
    </contour>
    <contour>
      <point x="35" y="477" type="line"/>
      <point x="288" y="477" type="line" smooth="yes"/>
      <point x="358" y="477"/>
      <point x="391" y="492"/>
      <point x="418" y="516" type="curve" smooth="yes"/>
      <point x="441" y="537"/>
      <point x="455" y="574"/>
      <point x="455" y="613" type="curve" smooth="yes"/>
      <point x="455" y="678"/>
      <point x="434" y="725"/>
      <point x="383" y="790" type="curve"/>
      <point x="322" y="750" type="line"/>
      <point x="359" y="707"/>
      <point x="382" y="663"/>
      <point x="382" y="620" type="curve" smooth="yes"/>
      <point x="382" y="600"/>
      <point x="378" y="584"/>
      <point x="367" y="573" type="curve" smooth="yes"/>
      <point x="352" y="558"/>
      <point x="332" y="551"/>
      <point x="275" y="551" type="curve" smooth="yes"/>
      <point x="35" y="551" type="line"/>
    </contour>
  </outline>
</glyph>
<glyph name="dhaknda" format="2">
  <advance width="579"/>
  <unicode hex="0CA7"/>
  <outline>
    <contour>
      <point x="171" y="-12" type="curve" smooth="yes"/>
      <point x="226" y="-12"/>
      <point x="272" y="9"/>
      <point x="305" y="110" type="curve"/>
      <point x="274" y="106" type="line"/>
      <point x="305" y="21"/>
      <point x="344" y="-12"/>
      <point x="405" y="-12" type="curve" smooth="yes"/>
      <point x="491" y="-12"/>
      <point x="541" y="59"/>
      <point x="541" y="205" type="curve" smooth="yes"/>
      <point x="541" y="349"/>
      <point x="491" y="443"/>
      <point x="431" y="489" type="curve"/>
      <point x="424" y="480" type="line"/>
      <point x="460" y="486"/>
      <point x="485" y="499"/>
      <point x="504" y="517" type="curve" smooth="yes"/>
      <point x="530" y="542"/>
      <point x="541" y="574"/>
      <point x="541" y="614" type="curve" smooth="yes"/>
      <point x="541" y="678"/>
      <point x="520" y="725"/>
      <point x="469" y="790" type="curve"/>
      <point x="408" y="750" type="line"/>
      <point x="445" y="707"/>
      <point x="468" y="662"/>
      <point x="468" y="619" type="curve" smooth="yes"/>
      <point x="468" y="600"/>
      <point x="464" y="584"/>
      <point x="453" y="573" type="curve" smooth="yes"/>
      <point x="439" y="558"/>
      <point x="418" y="551"/>
      <point x="361" y="551" type="curve" smooth="yes"/>
      <point x="38" y="551" type="line"/>
      <point x="38" y="477" type="line"/>
      <point x="158" y="477" type="line"/>
      <point x="156" y="487" type="line"/>
      <point x="85" y="444"/>
      <point x="38" y="344"/>
      <point x="38" y="207" type="curve" smooth="yes"/>
      <point x="38" y="49"/>
      <point x="94" y="-12"/>
    </contour>
    <contour>
      <point x="179" y="63" type="curve" smooth="yes"/>
      <point x="137" y="63"/>
      <point x="114" y="100"/>
      <point x="114" y="212" type="curve" smooth="yes"/>
      <point x="114" y="358"/>
      <point x="173" y="479"/>
      <point x="288" y="479" type="curve" smooth="yes"/>
      <point x="292" y="479" type="line" smooth="yes"/>
      <point x="410" y="479"/>
      <point x="465" y="348"/>
      <point x="465" y="209" type="curve" smooth="yes"/>
      <point x="465" y="99"/>
      <point x="440" y="63"/>
      <point x="399" y="63" type="curve" smooth="yes"/>
      <point x="360" y="63"/>
      <point x="327" y="99"/>
      <point x="323" y="194" type="curve"/>
      <point x="255" y="194" type="line"/>
      <point x="250" y="104"/>
      <point x="222" y="63"/>
    </contour>
    <contour>
      <point x="246" y="-144" type="line"/>
      <point x="332" y="-144" type="line"/>
      <point x="324" y="9" type="line"/>
      <point x="254" y="9" type="line"/>
    </contour>
  </outline>
</glyph>
<glyph name="naknda" format="2">
  <advance width="541"/>
  <unicode hex="0CA8"/>
  <outline>
    <contour>
      <point x="363" y="-12" type="curve" smooth="yes"/>
      <point x="455" y="-12"/>
      <point x="503" y="61"/>
      <point x="503" y="193" type="curve" smooth="yes"/>
      <point x="503" y="336"/>
      <point x="427" y="447"/>
      <point x="349" y="495" type="curve"/>
      <point x="329" y="477" type="line"/>
      <point x="333" y="477" type="line" smooth="yes"/>
      <point x="408" y="477"/>
      <point x="439" y="492"/>
      <point x="466" y="516" type="curve" smooth="yes"/>
      <point x="489" y="537"/>
      <point x="503" y="574"/>
      <point x="503" y="613" type="curve" smooth="yes"/>
      <point x="503" y="678"/>
      <point x="482" y="725"/>
      <point x="431" y="790" type="curve"/>
      <point x="370" y="750" type="line"/>
      <point x="407" y="707"/>
      <point x="430" y="663"/>
      <point x="430" y="620" type="curve" smooth="yes"/>
      <point x="430" y="600"/>
      <point x="426" y="584"/>
      <point x="415" y="573" type="curve" smooth="yes"/>
      <point x="400" y="558"/>
      <point x="380" y="551"/>
      <point x="323" y="551" type="curve" smooth="yes"/>
      <point x="34" y="551" type="line"/>
      <point x="34" y="477" type="line"/>
      <point x="257" y="477" type="line"/>
      <point x="345" y="443"/>
      <point x="427" y="334"/>
      <point x="427" y="184" type="curve" smooth="yes"/>
      <point x="427" y="115"/>
      <point x="410" y="63"/>
      <point x="365" y="63" type="curve" smooth="yes"/>
      <point x="328" y="63"/>
      <point x="313" y="81"/>
      <point x="281" y="170" type="curve" smooth="yes"/>
      <point x="244" y="272"/>
      <point x="206" y="304"/>
      <point x="150" y="304" type="curve" smooth="yes"/>
      <point x="74" y="304"/>
      <point x="30" y="241"/>
      <point x="30" y="160" type="curve" smooth="yes"/>
      <point x="30" y="97"/>
      <point x="49" y="41"/>
      <point x="77" y="-14" type="curve"/>
      <point x="146" y="16" type="line"/>
      <point x="123" y="59"/>
      <point x="105" y="108"/>
      <point x="105" y="163" type="curve" smooth="yes"/>
      <point x="105" y="204"/>
      <point x="118" y="232"/>
      <point x="146" y="232" type="curve" smooth="yes"/>
      <point x="172" y="232"/>
      <point x="186" y="213"/>
      <point x="208" y="155" type="curve" smooth="yes"/>
      <point x="256" y="31"/>
      <point x="291" y="-12"/>
    </contour>
  </outline>
</glyph>
<glyph name="baknda" format="2">
  <advance width="616"/>
  <unicode hex="0CAC"/>
  <outline>
    <contour>
      <point x="426" y="-12" type="curve" smooth="yes"/>
      <point x="531" y="-12"/>
      <point x="580" y="78"/>
      <point x="580" y="210" type="curve" smooth="yes"/>
      <point x="580" y="366"/>
      <point x="502" y="489"/>
      <point x="407" y="564" type="curve"/>
      <point x="354" y="502" type="line"/>
      <point x="433" y="440"/>
      <point x="504" y="335"/>
      <point x="504" y="208" type="curve" smooth="yes"/>
      <point x="504" y="113"/>
      <point x="472" y="63"/>
      <point x="421" y="63" type="curve" smooth="yes"/>
      <point x="375" y="63"/>
      <point x="343" y="99"/>
      <point x="339" y="194" type="curve"/>
      <point x="271" y="194" type="line"/>
      <point x="266" y="103"/>
      <point x="239" y="63"/>
      <point x="182" y="63" type="curve" smooth="yes"/>
      <point x="144" y="63"/>
      <point x="121" y="87"/>
      <point x="121" y="136" type="curve" smooth="yes"/>
      <point x="121" y="177"/>
      <point x="140" y="213"/>
      <point x="190" y="260" type="curve" smooth="yes"/>
      <point x="247" y="313"/>
      <point x="278" y="359"/>
      <point x="278" y="426" type="curve" smooth="yes"/>
      <point x="278" y="489"/>
      <point x="247" y="563"/>
      <point x="155" y="563" type="curve" smooth="yes"/>
      <point x="69" y="563"/>
      <point x="25" y="500"/>
      <point x="25" y="432" type="curve" smooth="yes"/>
      <point x="25" y="401"/>
      <point x="33" y="369"/>
      <point x="47" y="336" type="curve"/>
      <point x="117" y="359" type="line"/>
      <point x="108" y="380"/>
      <point x="100" y="401"/>
      <point x="100" y="428" type="curve" smooth="yes"/>
      <point x="100" y="464"/>
      <point x="117" y="494"/>
      <point x="154" y="494" type="curve" smooth="yes"/>
      <point x="190" y="494"/>
      <point x="203" y="463"/>
      <point x="203" y="425" type="curve" smooth="yes"/>
      <point x="203" y="382"/>
      <point x="184" y="354"/>
      <point x="147" y="319" type="curve" smooth="yes"/>
      <point x="81" y="257"/>
      <point x="45" y="211"/>
      <point x="45" y="136" type="curve" smooth="yes"/>
      <point x="45" y="58"/>
      <point x="86" y="-12"/>
      <point x="169" y="-12" type="curve" smooth="yes"/>
      <point x="238" y="-12"/>
      <point x="281" y="18"/>
      <point x="321" y="110" type="curve"/>
      <point x="290" y="106" type="line"/>
      <point x="321" y="21"/>
      <point x="360" y="-12"/>
    </contour>
  </outline>
</glyph>
<glyph name="bhaknda" format="2">
  <advance width="620"/>
  <unicode hex="0CAD"/>
  <outline>
    <contour>
      <point x="169" y="-12" type="curve" smooth="yes"/>
      <point x="238" y="-12"/>
      <point x="281" y="18"/>
      <point x="321" y="110" type="curve"/>
      <point x="290" y="106" type="line"/>
      <point x="321" y="21"/>
      <point x="362" y="-12"/>
      <point x="431" y="-12" type="curve" smooth="yes"/>
      <point x="521" y="-12"/>
      <point x="582" y="58"/>
      <point x="582" y="198" type="curve" smooth="yes"/>
      <point x="582" y="345"/>
      <point x="530" y="435"/>
      <point x="457" y="498" type="curve"/>
      <point x="361" y="484" type="line"/>
      <point x="436" y="448"/>
      <point x="506" y="337"/>
      <point x="506" y="201" type="curve" smooth="yes"/>
      <point x="506" y="99"/>
      <point x="474" y="63"/>
      <point x="426" y="63" type="curve" smooth="yes"/>
      <point x="376" y="63"/>
      <point x="343" y="99"/>
      <point x="339" y="194" type="curve"/>
      <point x="271" y="194" type="line"/>
      <point x="266" y="103"/>
      <point x="239" y="63"/>
      <point x="182" y="63" type="curve" smooth="yes"/>
      <point x="144" y="63"/>
      <point x="121" y="87"/>
      <point x="121" y="136" type="curve" smooth="yes"/>
      <point x="121" y="177"/>
      <point x="140" y="213"/>
      <point x="190" y="260" type="curve" smooth="yes"/>
      <point x="247" y="313"/>
      <point x="278" y="359"/>
      <point x="278" y="426" type="curve" smooth="yes"/>
      <point x="278" y="489"/>
      <point x="247" y="563"/>
      <point x="155" y="563" type="curve" smooth="yes"/>
      <point x="69" y="563"/>
      <point x="25" y="500"/>
      <point x="25" y="432" type="curve" smooth="yes"/>
      <point x="25" y="401"/>
      <point x="33" y="369"/>
      <point x="47" y="336" type="curve"/>
      <point x="117" y="359" type="line"/>
      <point x="108" y="380"/>
      <point x="100" y="401"/>
      <point x="100" y="428" type="curve" smooth="yes"/>
      <point x="100" y="464"/>
      <point x="117" y="494"/>
      <point x="154" y="494" type="curve" smooth="yes"/>
      <point x="190" y="494"/>
      <point x="203" y="463"/>
      <point x="203" y="425" type="curve" smooth="yes"/>
      <point x="203" y="382"/>
      <point x="184" y="354"/>
      <point x="147" y="319" type="curve" smooth="yes"/>
      <point x="81" y="257"/>
      <point x="45" y="211"/>
      <point x="45" y="136" type="curve" smooth="yes"/>
      <point x="45" y="58"/>
      <point x="86" y="-12"/>
    </contour>
    <contour>
      <point x="262" y="-144" type="line"/>
      <point x="348" y="-144" type="line"/>
      <point x="340" y="9" type="line"/>
      <point x="270" y="9" type="line"/>
    </contour>
    <contour>
      <point x="333" y="477" type="line"/>
      <point x="410" y="477" type="line" smooth="yes"/>
      <point x="480" y="477"/>
      <point x="513" y="492"/>
      <point x="540" y="516" type="curve" smooth="yes"/>
      <point x="563" y="537"/>
      <point x="577" y="574"/>
      <point x="577" y="613" type="curve" smooth="yes"/>
      <point x="577" y="678"/>
      <point x="556" y="725"/>
      <point x="505" y="790" type="curve"/>
      <point x="444" y="750" type="line"/>
      <point x="481" y="707"/>
      <point x="504" y="663"/>
      <point x="504" y="620" type="curve" smooth="yes"/>
      <point x="504" y="600"/>
      <point x="500" y="584"/>
      <point x="489" y="573" type="curve" smooth="yes"/>
      <point x="474" y="558"/>
      <point x="454" y="551"/>
      <point x="397" y="551" type="curve" smooth="yes"/>
      <point x="333" y="551" type="line"/>
    </contour>
  </outline>
</glyph>
<glyph name="yaknda" format="2">
  <advance width="1020"/>
  <unicode hex="0CAF"/>
  <outline>
    <contour>
      <point x="236" y="-12" type="curve" smooth="yes"/>
      <point x="354" y="-12"/>
      <point x="431" y="99"/>
      <point x="431" y="276" type="curve" smooth="yes"/>
      <point x="431" y="417"/>
      <point x="382" y="563"/>
      <point x="234" y="563" type="curve" smooth="yes"/>
      <point x="112" y="563"/>
      <point x="37" y="451"/>
      <point x="37" y="278" type="curve" smooth="yes"/>
      <point x="37" y="128"/>
      <point x="87" y="-12"/>
    </contour>
    <contour>
      <point x="234" y="64" type="curve" smooth="yes"/>
      <point x="158" y="64"/>
      <point x="113" y="129"/>
      <point x="113" y="278" type="curve" smooth="yes"/>
      <point x="113" y="427"/>
      <point x="164" y="489"/>
      <point x="233" y="489" type="curve" smooth="yes"/>
      <point x="315" y="489"/>
      <point x="355" y="415"/>
      <point x="355" y="278" type="curve" smooth="yes"/>
      <point x="355" y="131"/>
      <point x="307" y="64"/>
    </contour>
    <contour>
      <point x="543" y="-12" type="curve" smooth="yes"/>
      <point x="656" y="-12"/>
      <point x="706" y="82"/>
      <point x="706" y="210" type="curve" smooth="yes"/>
      <point x="706" y="336"/>
      <point x="653" y="442"/>
      <point x="560" y="507" type="curve"/>
      <point x="484" y="486" type="line"/>
      <point x="576" y="432"/>
      <point x="630" y="315"/>
      <point x="630" y="208" type="curve" smooth="yes"/>
      <point x="630" y="113"/>
      <point x="601" y="63"/>
      <point x="534" y="63" type="curve" smooth="yes"/>
      <point x="489" y="63"/>
      <point x="447" y="84"/>
      <point x="402" y="147" type="curve"/>
      <point x="356" y="99" type="line"/>
      <point x="410" y="25"/>
      <point x="457" y="-12"/>
    </contour>
    <contour>
      <point x="821" y="-12" type="curve" smooth="yes"/>
      <point x="935" y="-12"/>
      <point x="984" y="82"/>
      <point x="984" y="210" type="curve" smooth="yes"/>
      <point x="984" y="366"/>
      <point x="906" y="489"/>
      <point x="811" y="564" type="curve"/>
      <point x="758" y="502" type="line"/>
      <point x="837" y="440"/>
      <point x="908" y="335"/>
      <point x="908" y="208" type="curve" smooth="yes"/>
      <point x="908" y="113"/>
      <point x="879" y="63"/>
      <point x="811" y="63" type="curve" smooth="yes"/>
      <point x="767" y="63"/>
      <point x="725" y="84"/>
      <point x="680" y="147" type="curve"/>
      <point x="634" y="99" type="line"/>
      <point x="688" y="25"/>
      <point x="735" y="-12"/>
    </contour>
    <contour>
      <point x="702" y="613" type="curve" smooth="yes"/>
      <point x="702" y="678"/>
      <point x="681" y="725"/>
      <point x="630" y="790" type="curve"/>
      <point x="569" y="750" type="line"/>
      <point x="606" y="707"/>
      <point x="629" y="663"/>
      <point x="629" y="620" type="curve" smooth="yes"/>
      <point x="629" y="600"/>
      <point x="625" y="584"/>
      <point x="614" y="573" type="curve" smooth="yes"/>
      <point x="599" y="558"/>
      <point x="579" y="551"/>
      <point x="522" y="551" type="curve" smooth="yes"/>
      <point x="453" y="551" type="line"/>
      <point x="453" y="477" type="line"/>
      <point x="535" y="477" type="line" smooth="yes"/>
      <point x="605" y="477"/>
      <point x="638" y="492"/>
      <point x="665" y="516" type="curve" smooth="yes"/>
      <point x="688" y="537"/>
      <point x="702" y="574"/>
    </contour>
  </outline>
</glyph>
<glyph name="rraknda" format="2">
  <advance width="706"/>
  <unicode hex="0CB1"/>
  <outline>
    <contour>
      <point x="213" y="-12" type="curve" smooth="yes"/>
      <point x="287" y="-12"/>
      <point x="334" y="20"/>
      <point x="368" y="113" type="curve"/>
      <point x="338" y="113" type="line"/>
      <point x="372" y="20"/>
      <point x="419" y="-12"/>
      <point x="493" y="-12" type="curve" smooth="yes"/>
      <point x="596" y="-12"/>
      <point x="668" y="77"/>
      <point x="668" y="258" type="curve" smooth="yes"/>
      <point x="668" y="455"/>
      <point x="595" y="563"/>
      <point x="489" y="563" type="curve" smooth="yes"/>
      <point x="423" y="563"/>
      <point x="376" y="515"/>
      <point x="376" y="429" type="curve" smooth="yes"/>
      <point x="376" y="379"/>
      <point x="395" y="338"/>
      <point x="427" y="314" type="curve" smooth="yes"/>
      <point x="452" y="295"/>
      <point x="470" y="281"/>
      <point x="510" y="281" type="curve" smooth="yes"/>
      <point x="557" y="281"/>
      <point x="594" y="306"/>
      <point x="623" y="333" type="curve"/>
      <point x="601" y="398" type="line"/>
      <point x="584" y="373"/>
      <point x="556" y="348"/>
      <point x="512" y="348" type="curve" smooth="yes"/>
      <point x="469" y="348"/>
      <point x="446" y="375"/>
      <point x="446" y="427" type="curve" smooth="yes"/>
      <point x="446" y="475"/>
      <point x="465" y="496"/>
      <point x="491" y="496" type="curve" smooth="yes"/>
      <point x="542" y="496"/>
      <point x="593" y="436"/>
      <point x="593" y="250" type="curve" smooth="yes"/>
      <point x="593" y="114"/>
      <point x="551" y="63"/>
      <point x="489" y="63" type="curve" smooth="yes"/>
      <point x="428" y="63"/>
      <point x="394" y="101"/>
      <point x="388" y="194" type="curve"/>
      <point x="318" y="194" type="line"/>
      <point x="312" y="101"/>
      <point x="278" y="63"/>
      <point x="217" y="63" type="curve" smooth="yes"/>
      <point x="155" y="63"/>
      <point x="113" y="114"/>
      <point x="113" y="250" type="curve" smooth="yes"/>
      <point x="113" y="436"/>
      <point x="164" y="496"/>
      <point x="215" y="496" type="curve" smooth="yes"/>
      <point x="241" y="496"/>
      <point x="260" y="475"/>
      <point x="260" y="427" type="curve" smooth="yes"/>
      <point x="260" y="375"/>
      <point x="237" y="348"/>
      <point x="194" y="348" type="curve" smooth="yes"/>
      <point x="150" y="348"/>
      <point x="122" y="373"/>
      <point x="105" y="398" type="curve"/>
      <point x="83" y="333" type="line"/>
      <point x="112" y="306"/>
      <point x="149" y="281"/>
      <point x="196" y="281" type="curve" smooth="yes"/>
      <point x="233" y="281"/>
      <point x="253" y="293"/>
      <point x="276" y="311" type="curve" smooth="yes"/>
      <point x="308" y="336"/>
      <point x="330" y="376"/>
      <point x="330" y="429" type="curve" smooth="yes"/>
      <point x="330" y="515"/>
      <point x="283" y="563"/>
      <point x="217" y="563" type="curve" smooth="yes"/>
      <point x="111" y="563"/>
      <point x="38" y="456"/>
      <point x="38" y="258" type="curve" smooth="yes"/>
      <point x="38" y="77"/>
      <point x="110" y="-12"/>
    </contour>
    <contour>
      <point x="196" y="281" type="line"/>
      <point x="509" y="281" type="line"/>
      <point x="449" y="338" type="line"/>
      <point x="429" y="344"/>
      <point x="387" y="350"/>
      <point x="360" y="350" type="curve" smooth="yes"/>
      <point x="342" y="350" type="line" smooth="yes"/>
      <point x="309" y="350"/>
      <point x="269" y="346"/>
      <point x="247" y="341" type="curve"/>
    </contour>
  </outline>
</glyph>
<glyph name="laknda" format="2">
  <advance width="577"/>
  <unicode hex="0CB2"/>
  <outline>
    <contour>
      <point x="288" y="-12" type="curve" smooth="yes"/>
      <point x="466" y="-12"/>
      <point x="542" y="108"/>
      <point x="542" y="270" type="curve" smooth="yes"/>
      <point x="542" y="401"/>
      <point x="489" y="499"/>
      <point x="408" y="564" type="curve"/>
      <point x="356" y="502" type="line"/>
      <point x="423" y="448"/>
      <point x="466" y="374"/>
      <point x="466" y="274" type="curve" smooth="yes"/>
      <point x="466" y="136"/>
      <point x="404" y="66"/>
      <point x="288" y="66" type="curve" smooth="yes"/>
      <point x="167" y="66"/>
      <point x="106" y="158"/>
      <point x="106" y="306" type="curve" smooth="yes"/>
      <point x="106" y="432"/>
      <point x="140" y="496"/>
      <point x="188" y="496" type="curve" smooth="yes"/>
      <point x="214" y="496"/>
      <point x="233" y="475"/>
      <point x="233" y="427" type="curve" smooth="yes"/>
      <point x="233" y="375"/>
      <point x="210" y="348"/>
      <point x="167" y="348" type="curve" smooth="yes"/>
      <point x="125" y="348"/>
      <point x="97" y="373"/>
      <point x="80" y="398" type="curve"/>
      <point x="58" y="333" type="line"/>
      <point x="87" y="306"/>
      <point x="124" y="281"/>
      <point x="171" y="281" type="curve" smooth="yes"/>
      <point x="256" y="281"/>
      <point x="306" y="334"/>
      <point x="306" y="429" type="curve" smooth="yes"/>
      <point x="306" y="515"/>
      <point x="258" y="563"/>
      <point x="192" y="563" type="curve" smooth="yes"/>
      <point x="102" y="563"/>
      <point x="34" y="473"/>
      <point x="34" y="311" type="curve" smooth="yes"/>
      <point x="34" y="107"/>
      <point x="125" y="-12"/>
    </contour>
  </outline>
</glyph>
<glyph name="llaknda" format="2">
  <advance width="546"/>
  <unicode hex="0CB3"/>
  <outline>
    <contour>
      <point x="275" y="-12" type="curve" smooth="yes"/>
      <point x="358" y="-12"/>
      <point x="402" y="33"/>
      <point x="402" y="98" type="curve" smooth="yes"/>
      <point x="402" y="143"/>
      <point x="385" y="173"/>
      <point x="356" y="193" type="curve"/>
      <point x="361" y="169" type="line"/>
      <point x="433" y="184"/>
      <point x="512" y="240"/>
      <point x="512" y="353" type="curve" smooth="yes"/>
      <point x="512" y="420"/>
      <point x="480" y="480"/>
      <point x="419" y="514" type="curve"/>
      <point x="432" y="489" type="line"/>
      <point x="487" y="508"/>
      <point x="514" y="556"/>
      <point x="514" y="613" type="curve" smooth="yes"/>
      <point x="514" y="678"/>
      <point x="493" y="725"/>
      <point x="442" y="790" type="curve"/>
      <point x="381" y="750" type="line"/>
      <point x="418" y="707"/>
      <point x="441" y="663"/>
      <point x="441" y="620" type="curve" smooth="yes"/>
      <point x="441" y="600"/>
      <point x="437" y="584"/>
      <point x="426" y="573" type="curve" smooth="yes"/>
      <point x="411" y="558"/>
      <point x="391" y="551"/>
      <point x="334" y="551" type="curve" smooth="yes"/>
      <point x="319" y="551" type="line"/>
      <point x="319" y="477" type="line"/>
      <point x="369" y="477" type="line"/>
      <point x="407" y="454"/>
      <point x="436" y="415"/>
      <point x="436" y="359" type="curve" smooth="yes"/>
      <point x="436" y="280"/>
      <point x="382" y="236"/>
      <point x="281" y="231" type="curve"/>
      <point x="155" y="235"/>
      <point x="101" y="298"/>
      <point x="101" y="381" type="curve" smooth="yes"/>
      <point x="101" y="453"/>
      <point x="125" y="496"/>
      <point x="164" y="496" type="curve" smooth="yes"/>
      <point x="189" y="496"/>
      <point x="205" y="476"/>
      <point x="205" y="440" type="curve" smooth="yes"/>
      <point x="205" y="405"/>
      <point x="187" y="378"/>
      <point x="142" y="378" type="curve" smooth="yes"/>
      <point x="117" y="378"/>
      <point x="96" y="385"/>
      <point x="77" y="402" type="curve"/>
      <point x="67" y="350" type="line"/>
      <point x="86" y="330"/>
      <point x="121" y="315"/>
      <point x="156" y="315" type="curve" smooth="yes"/>
      <point x="238" y="315"/>
      <point x="278" y="369"/>
      <point x="278" y="441" type="curve" smooth="yes"/>
      <point x="278" y="524"/>
      <point x="228" y="563"/>
      <point x="172" y="563" type="curve" smooth="yes"/>
      <point x="79" y="563"/>
      <point x="30" y="485"/>
      <point x="30" y="388" type="curve" smooth="yes"/>
      <point x="30" y="265"/>
      <point x="103" y="190"/>
      <point x="203" y="168" type="curve"/>
      <point x="201" y="189" type="line"/>
      <point x="174" y="171"/>
      <point x="152" y="142"/>
      <point x="152" y="99" type="curve" smooth="yes"/>
      <point x="152" y="19"/>
      <point x="213" y="-12"/>
    </contour>
    <contour>
      <point x="277" y="56" type="curve" smooth="yes"/>
      <point x="243" y="56"/>
      <point x="224" y="77"/>
      <point x="224" y="109" type="curve" smooth="yes"/>
      <point x="224" y="145"/>
      <point x="247" y="168"/>
      <point x="277" y="173" type="curve"/>
      <point x="306" y="170"/>
      <point x="330" y="144"/>
      <point x="330" y="109" type="curve" smooth="yes"/>
      <point x="330" y="71"/>
      <point x="308" y="56"/>
    </contour>
  </outline>
</glyph>
<glyph name="vaknda" format="2">
  <advance width="603"/>
  <unicode hex="0CB5"/>
  <outline>
    <contour>
      <point x="173" y="-12" type="curve" smooth="yes"/>
      <point x="244" y="-12"/>
      <point x="286" y="16"/>
      <point x="329" y="110" type="curve"/>
      <point x="298" y="106" type="line"/>
      <point x="329" y="21"/>
      <point x="368" y="-12"/>
      <point x="429" y="-12" type="curve" smooth="yes"/>
      <point x="517" y="-12"/>
      <point x="565" y="61"/>
      <point x="565" y="193" type="curve" smooth="yes"/>
      <point x="565" y="336"/>
      <point x="489" y="447"/>
      <point x="411" y="495" type="curve"/>
      <point x="319" y="477" type="line"/>
      <point x="407" y="443"/>
      <point x="489" y="334"/>
      <point x="489" y="184" type="curve" smooth="yes"/>
      <point x="489" y="115"/>
      <point x="475" y="63"/>
      <point x="422" y="63" type="curve" smooth="yes"/>
      <point x="384" y="63"/>
      <point x="351" y="99"/>
      <point x="347" y="194" type="curve"/>
      <point x="279" y="194" type="line"/>
      <point x="274" y="104"/>
      <point x="250" y="63"/>
      <point x="185" y="63" type="curve" smooth="yes"/>
      <point x="129" y="63"/>
      <point x="99" y="103"/>
      <point x="99" y="168" type="curve" smooth="yes"/>
      <point x="99" y="224"/>
      <point x="116" y="256"/>
      <point x="145" y="256" type="curve" smooth="yes"/>
      <point x="162" y="256"/>
      <point x="174" y="241"/>
      <point x="174" y="220" type="curve" smooth="yes"/>
      <point x="174" y="206"/>
      <point x="172" y="190"/>
      <point x="167" y="178" type="curve"/>
      <point x="229" y="171" type="line"/>
      <point x="237" y="187"/>
      <point x="243" y="209"/>
      <point x="243" y="230" type="curve" smooth="yes"/>
      <point x="243" y="287"/>
      <point x="208" y="323"/>
      <point x="151" y="323" type="curve" smooth="yes"/>
      <point x="75" y="323"/>
      <point x="30" y="258"/>
      <point x="30" y="168" type="curve" smooth="yes"/>
      <point x="30" y="55"/>
      <point x="89" y="-12"/>
    </contour>
    <contour>
      <point x="31" y="477" type="line"/>
      <point x="395" y="477" type="line" smooth="yes"/>
      <point x="470" y="477"/>
      <point x="501" y="492"/>
      <point x="528" y="516" type="curve" smooth="yes"/>
      <point x="551" y="537"/>
      <point x="565" y="574"/>
      <point x="565" y="613" type="curve" smooth="yes"/>
      <point x="565" y="678"/>
      <point x="544" y="725"/>
      <point x="493" y="790" type="curve"/>
      <point x="432" y="750" type="line"/>
      <point x="469" y="707"/>
      <point x="492" y="663"/>
      <point x="492" y="620" type="curve" smooth="yes"/>
      <point x="492" y="600"/>
      <point x="488" y="584"/>
      <point x="477" y="573" type="curve" smooth="yes"/>
      <point x="462" y="558"/>
      <point x="442" y="551"/>
      <point x="385" y="551" type="curve" smooth="yes"/>
      <point x="31" y="551" type="line"/>
    </contour>
  </outline>
</glyph>
<glyph name="shaknda" format="2">
  <advance width="485"/>
  <unicode hex="0CB6"/>
  <outline>
    <contour>
      <point x="205" y="-12" type="curve" smooth="yes"/>
      <point x="362" y="-12"/>
      <point x="449" y="91"/>
      <point x="449" y="265" type="curve" smooth="yes"/>
      <point x="449" y="358"/>
      <point x="417" y="448"/>
      <point x="344" y="505" type="curve"/>
      <point x="289" y="502" type="line"/>
      <point x="288" y="485" type="line"/>
      <point x="323" y="456"/>
      <point x="373" y="390"/>
      <point x="373" y="266" type="curve" smooth="yes"/>
      <point x="373" y="133"/>
      <point x="311" y="63"/>
      <point x="204" y="63" type="curve" smooth="yes"/>
      <point x="130" y="63"/>
      <point x="104" y="102"/>
      <point x="104" y="149" type="curve" smooth="yes"/>
      <point x="104" y="200"/>
      <point x="140" y="223"/>
      <point x="205" y="249" type="curve" smooth="yes"/>
      <point x="285" y="281"/>
      <point x="319" y="320"/>
      <point x="319" y="395" type="curve" smooth="yes"/>
      <point x="319" y="471"/>
      <point x="259" y="524"/>
      <point x="194" y="524" type="curve" smooth="yes"/>
      <point x="102" y="524"/>
      <point x="59" y="472"/>
      <point x="59" y="419" type="curve" smooth="yes"/>
      <point x="59" y="389"/>
      <point x="67" y="365"/>
      <point x="78" y="339" type="curve"/>
      <point x="151" y="363" type="line"/>
      <point x="143" y="376"/>
      <point x="137" y="399"/>
      <point x="137" y="417" type="curve" smooth="yes"/>
      <point x="137" y="457"/>
      <point x="158" y="480"/>
      <point x="196" y="480" type="curve" smooth="yes"/>
      <point x="227" y="480"/>
      <point x="254" y="456"/>
      <point x="254" y="407" type="curve" smooth="yes"/>
      <point x="254" y="348"/>
      <point x="219" y="331"/>
      <point x="153" y="305" type="curve" smooth="yes"/>
      <point x="81" y="277"/>
      <point x="28" y="241"/>
      <point x="28" y="153" type="curve" smooth="yes"/>
      <point x="28" y="44"/>
      <point x="98" y="-12"/>
    </contour>
    <contour>
      <point x="28" y="477" type="line"/>
      <point x="121" y="477" type="line"/>
      <point x="198" y="495" type="line"/>
      <point x="262" y="477" type="line"/>
      <point x="282" y="477" type="line" smooth="yes"/>
      <point x="352" y="477"/>
      <point x="385" y="492"/>
      <point x="412" y="516" type="curve" smooth="yes"/>
      <point x="435" y="537"/>
      <point x="449" y="574"/>
      <point x="449" y="613" type="curve" smooth="yes"/>
      <point x="449" y="678"/>
      <point x="428" y="725"/>
      <point x="377" y="790" type="curve"/>
      <point x="316" y="750" type="line"/>
      <point x="353" y="707"/>
      <point x="376" y="663"/>
      <point x="376" y="620" type="curve" smooth="yes"/>
      <point x="376" y="600"/>
      <point x="372" y="584"/>
      <point x="361" y="573" type="curve" smooth="yes"/>
      <point x="346" y="558"/>
      <point x="326" y="551"/>
      <point x="269" y="551" type="curve" smooth="yes"/>
      <point x="28" y="551" type="line"/>
    </contour>
  </outline>
</glyph>
<glyph name="saknda" format="2">
  <advance width="539"/>
  <unicode hex="0CB8"/>
  <outline>
    <contour>
      <point x="363" y="-12" type="curve" smooth="yes"/>
      <point x="458" y="-12"/>
      <point x="503" y="59"/>
      <point x="503" y="183" type="curve" smooth="yes"/>
      <point x="503" y="281"/>
      <point x="470" y="360"/>
      <point x="425" y="426" type="curve"/>
      <point x="356" y="389" type="line"/>
      <point x="407" y="317"/>
      <point x="427" y="243"/>
      <point x="427" y="177" type="curve" smooth="yes"/>
      <point x="427" y="110"/>
      <point x="410" y="63"/>
      <point x="365" y="63" type="curve" smooth="yes"/>
      <point x="328" y="63"/>
      <point x="313" y="81"/>
      <point x="281" y="170" type="curve" smooth="yes"/>
      <point x="244" y="272"/>
      <point x="206" y="304"/>
      <point x="150" y="304" type="curve" smooth="yes"/>
      <point x="73" y="304"/>
      <point x="30" y="241"/>
      <point x="30" y="159" type="curve" smooth="yes"/>
      <point x="30" y="97"/>
      <point x="49" y="41"/>
      <point x="77" y="-14" type="curve"/>
      <point x="146" y="16" type="line"/>
      <point x="123" y="59"/>
      <point x="105" y="108"/>
      <point x="105" y="163" type="curve" smooth="yes"/>
      <point x="105" y="204"/>
      <point x="118" y="232"/>
      <point x="146" y="232" type="curve" smooth="yes"/>
      <point x="172" y="232"/>
      <point x="186" y="213"/>
      <point x="208" y="155" type="curve" smooth="yes"/>
      <point x="256" y="31"/>
      <point x="291" y="-12"/>
    </contour>
    <contour>
      <point x="254" y="319" type="curve" smooth="yes"/>
      <point x="285" y="319"/>
      <point x="307" y="342"/>
      <point x="307" y="375" type="curve" smooth="yes"/>
      <point x="307" y="408"/>
      <point x="285" y="431"/>
      <point x="254" y="431" type="curve" smooth="yes"/>
      <point x="224" y="431"/>
      <point x="201" y="408"/>
      <point x="201" y="375" type="curve" smooth="yes"/>
      <point x="201" y="342"/>
      <point x="224" y="319"/>
    </contour>
    <contour>
      <point x="33" y="477" type="line"/>
      <point x="336" y="477" type="line" smooth="yes"/>
      <point x="406" y="477"/>
      <point x="439" y="492"/>
      <point x="466" y="516" type="curve" smooth="yes"/>
      <point x="489" y="537"/>
      <point x="503" y="574"/>
      <point x="503" y="613" type="curve" smooth="yes"/>
      <point x="503" y="678"/>
      <point x="482" y="725"/>
      <point x="431" y="790" type="curve"/>
      <point x="370" y="750" type="line"/>
      <point x="407" y="707"/>
      <point x="430" y="663"/>
      <point x="430" y="620" type="curve" smooth="yes"/>
      <point x="430" y="600"/>
      <point x="426" y="584"/>
      <point x="415" y="573" type="curve" smooth="yes"/>
      <point x="400" y="558"/>
      <point x="380" y="551"/>
      <point x="323" y="551" type="curve" smooth="yes"/>
      <point x="33" y="551" type="line"/>
    </contour>
  </outline>
</glyph>
<glyph name="nuktaknda" format="2">
  <unicode hex="0CBC"/>
  <outline>
    <contour>
      <point x="-197" y="-179" type="curve" smooth="yes"/>
      <point x="-166" y="-179"/>
      <point x="-144" y="-156"/>
      <point x="-144" y="-123" type="curve" smooth="yes"/>
      <point x="-144" y="-90"/>
      <point x="-166" y="-67"/>
      <point x="-197" y="-67" type="curve" smooth="yes"/>
      <point x="-227" y="-67"/>
      <point x="-250" y="-90"/>
      <point x="-250" y="-123" type="curve" smooth="yes"/>
      <point x="-250" y="-156"/>
      <point x="-227" y="-179"/>
    </contour>
    <contour>
      <point x="-361" y="-179" type="curve" smooth="yes"/>
      <point x="-330" y="-179"/>
      <point x="-308" y="-156"/>
      <point x="-308" y="-123" type="curve" smooth="yes"/>
      <point x="-308" y="-90"/>
      <point x="-330" y="-67"/>
      <point x="-361" y="-67" type="curve" smooth="yes"/>
      <point x="-391" y="-67"/>
      <point x="-414" y="-90"/>
      <point x="-414" y="-123" type="curve" smooth="yes"/>
      <point x="-414" y="-156"/>
      <point x="-391" y="-179"/>
    </contour>
  </outline>
</glyph>
<glyph name="avagrahaknda" format="2">
  <advance width="351"/>
  <unicode hex="0CBD"/>
  <outline>
    <contour>
      <point x="181" y="-12" type="curve" smooth="yes"/>
      <point x="272" y="-12"/>
      <point x="322" y="51"/>
      <point x="322" y="136" type="curve" smooth="yes"/>
      <point x="322" y="231"/>
      <point x="275" y="279"/>
      <point x="194" y="336" type="curve" smooth="yes"/>
      <point x="140" y="374"/>
      <point x="110" y="395"/>
      <point x="110" y="433" type="curve" smooth="yes"/>
      <point x="110" y="462"/>
      <point x="130" y="477"/>
      <point x="173" y="477" type="curve" smooth="yes"/>
      <point x="304" y="477" type="line"/>
      <point x="304" y="551" type="line"/>
      <point x="192" y="551" type="line" smooth="yes"/>
      <point x="134" y="551"/>
      <point x="97" y="539"/>
      <point x="73" y="519" type="curve" smooth="yes"/>
      <point x="48" y="498"/>
      <point x="34" y="469"/>
      <point x="34" y="434" type="curve" smooth="yes"/>
      <point x="34" y="375"/>
      <point x="61" y="334"/>
      <point x="150" y="274" type="curve" smooth="yes"/>
      <point x="217" y="229"/>
      <point x="246" y="196"/>
      <point x="246" y="136" type="curve" smooth="yes"/>
      <point x="246" y="93"/>
      <point x="224" y="63"/>
      <point x="179" y="63" type="curve" smooth="yes"/>
      <point x="130" y="63"/>
      <point x="102" y="107"/>
      <point x="91" y="194" type="curve"/>
      <point x="16" y="185" type="line"/>
      <point x="33" y="58"/>
      <point x="88" y="-12"/>
    </contour>
  </outline>
</glyph>
<glyph name="aavowelsignknda" format="2">
  <advance width="354"/>
  <unicode hex="0CBE"/>
  <outline>
    <contour>
      <point x="316" y="236" type="curve" smooth="yes"/>
      <point x="316" y="350"/>
      <point x="287" y="435"/>
      <point x="224" y="487" type="curve" smooth="yes"/>
      <point x="172" y="530"/>
      <point x="110" y="551"/>
      <point x="-12" y="551" type="curve" smooth="yes"/>
      <point x="-160" y="551" type="line"/>
      <point x="-160" y="477" type="line"/>
      <point x="-15" y="477" type="line" smooth="yes"/>
      <point x="77" y="477"/>
      <point x="122" y="464"/>
      <point x="159" y="439" type="curve" smooth="yes"/>
      <point x="216" y="400"/>
      <point x="240" y="333"/>
      <point x="240" y="236" type="curve" smooth="yes"/>
      <point x="240" y="109"/>
      <point x="208" y="58"/>
      <point x="152" y="58" type="curve" smooth="yes"/>
      <point x="103" y="58"/>
      <point x="88" y="104"/>
      <point x="88" y="149" type="curve" smooth="yes"/>
      <point x="88" y="172"/>
      <point x="92" y="193"/>
      <point x="102" y="216" type="curve"/>
      <point x="85" y="204" type="line"/>
      <point x="91" y="174"/>
      <point x="101" y="156"/>
      <point x="130" y="156" type="curve" smooth="yes"/>
      <point x="156" y="156"/>
      <point x="175" y="173"/>
      <point x="175" y="213" type="curve" smooth="yes"/>
      <point x="175" y="253"/>
      <point x="151" y="276"/>
      <point x="112" y="276" type="curve" smooth="yes"/>
      <point x="62" y="276"/>
      <point x="22" y="235"/>
      <point x="22" y="147" type="curve" smooth="yes"/>
      <point x="22" y="55"/>
      <point x="70" y="-12"/>
      <point x="156" y="-12" type="curve" smooth="yes"/>
      <point x="256" y="-12"/>
      <point x="316" y="75"/>
    </contour>
  </outline>
</glyph>
<glyph name="ivowelsignknda" format="2">
  <advance width="282"/>
  <unicode hex="0CBF"/>
  <outline>
    <contour>
      <point x="105" y="312" type="curve" smooth="yes"/>
      <point x="190" y="312"/>
      <point x="260" y="368"/>
      <point x="260" y="503" type="curve" smooth="yes"/>
      <point x="260" y="630"/>
      <point x="194" y="712"/>
      <point x="97" y="712" type="curve" smooth="yes"/>
      <point x="22" y="712"/>
      <point x="-25" y="661"/>
      <point x="-25" y="595" type="curve" smooth="yes"/>
      <point x="-25" y="515"/>
      <point x="28" y="479"/>
      <point x="94" y="479" type="curve" smooth="yes"/>
      <point x="151" y="479"/>
      <point x="187" y="513"/>
      <point x="211" y="543" type="curve"/>
      <point x="181" y="581" type="line"/>
      <point x="157" y="555"/>
      <point x="128" y="543"/>
      <point x="96" y="543" type="curve" smooth="yes"/>
      <point x="70" y="543"/>
      <point x="45" y="553"/>
      <point x="45" y="593" type="curve" smooth="yes"/>
      <point x="45" y="625"/>
      <point x="65" y="647"/>
      <point x="99" y="647" type="curve" smooth="yes"/>
      <point x="156" y="647"/>
      <point x="188" y="586"/>
      <point x="188" y="518" type="curve" smooth="yes"/>
      <point x="188" y="497" type="line" smooth="yes"/>
      <point x="188" y="412"/>
      <point x="151" y="382"/>
      <point x="100" y="382" type="curve" smooth="yes"/>
      <point x="34" y="382"/>
      <point x="-3" y="431"/>
      <point x="-44" y="499" type="curve"/>
      <point x="-87" y="458" type="line"/>
      <point x="-34" y="373"/>
      <point x="12" y="312"/>
    </contour>
  </outline>
</glyph>
<glyph name="uvowelsignknda" format="2">
  <advance width="278"/>
  <unicode hex="0CC1"/>
  <outline>
    <contour>
      <point x="79" y="-12" type="curve" smooth="yes"/>
      <point x="193" y="-12"/>
      <point x="242" y="82"/>
      <point x="242" y="210" type="curve" smooth="yes"/>
      <point x="242" y="366"/>
      <point x="164" y="489"/>
      <point x="69" y="564" type="curve"/>
      <point x="16" y="502" type="line"/>
      <point x="95" y="440"/>
      <point x="166" y="335"/>
      <point x="166" y="208" type="curve" smooth="yes"/>
      <point x="166" y="113"/>
      <point x="137" y="63"/>
      <point x="69" y="63" type="curve" smooth="yes"/>
      <point x="25" y="63"/>
      <point x="-17" y="84"/>
      <point x="-62" y="147" type="curve"/>
      <point x="-108" y="99" type="line"/>
      <point x="-54" y="25"/>
      <point x="-7" y="-12"/>
    </contour>
  </outline>
</glyph>
<glyph name="uuvowelsignknda" format="2">
  <advance width="581"/>
  <unicode hex="0CC2"/>
  <outline>
    <contour>
      <point x="52" y="-12" type="curve" smooth="yes"/>
      <point x="130" y="-12"/>
      <point x="192" y="32"/>
      <point x="192" y="150" type="curve" smooth="yes"/>
      <point x="192" y="224"/>
      <point x="185" y="266"/>
      <point x="185" y="323" type="curve" smooth="yes"/>
      <point x="185" y="415"/>
      <point x="222" y="489"/>
      <point x="311" y="489" type="curve" smooth="yes"/>
      <point x="417" y="489"/>
      <point x="469" y="378"/>
      <point x="469" y="237" type="curve" smooth="yes"/>
      <point x="469" y="110"/>
      <point x="437" y="58"/>
      <point x="381" y="58" type="curve" smooth="yes"/>
      <point x="332" y="58"/>
      <point x="317" y="104"/>
      <point x="317" y="149" type="curve" smooth="yes"/>
      <point x="317" y="172"/>
      <point x="321" y="193"/>
      <point x="331" y="216" type="curve"/>
      <point x="314" y="204" type="line"/>
      <point x="320" y="174"/>
      <point x="329" y="156"/>
      <point x="359" y="156" type="curve" smooth="yes"/>
      <point x="385" y="156"/>
      <point x="404" y="173"/>
      <point x="404" y="213" type="curve" smooth="yes"/>
      <point x="404" y="253"/>
      <point x="380" y="276"/>
      <point x="341" y="276" type="curve" smooth="yes"/>
      <point x="291" y="276"/>
      <point x="251" y="235"/>
      <point x="251" y="147" type="curve" smooth="yes"/>
      <point x="251" y="55"/>
      <point x="299" y="-12"/>
      <point x="385" y="-12" type="curve" smooth="yes"/>
      <point x="484" y="-12"/>
      <point x="545" y="75"/>
      <point x="545" y="236" type="curve" smooth="yes"/>
      <point x="545" y="424"/>
      <point x="467" y="563"/>
      <point x="310" y="563" type="curve" smooth="yes"/>
      <point x="186" y="563"/>
      <point x="110" y="476"/>
      <point x="110" y="336" type="curve" smooth="yes"/>
      <point x="110" y="265"/>
      <point x="117" y="231"/>
      <point x="117" y="154" type="curve" smooth="yes"/>
      <point x="117" y="94"/>
      <point x="98" y="63"/>
      <point x="46" y="63" type="curve" smooth="yes"/>
      <point x="1" y="63"/>
      <point x="-27" y="89"/>
      <point x="-64" y="138" type="curve"/>
      <point x="-110" y="90" type="line"/>
      <point x="-67" y="32"/>
      <point x="-21" y="-12"/>
    </contour>
  </outline>
</glyph>
<glyph name="rvocalicvowelsignknda" format="2">
  <advance width="126"/>
  <unicode hex="0CC3"/>
  <outline>
    <contour>
      <point x="-68" y="-415" type="curve" smooth="yes"/>
      <point x="53" y="-415"/>
      <point x="128" y="-333"/>
      <point x="128" y="-155" type="curve" smooth="yes"/>
      <point x="128" y="-74"/>
      <point x="107" y="7"/>
      <point x="77" y="70" type="curve"/>
      <point x="12" y="39" type="line"/>
      <point x="39" y="-14"/>
      <point x="58" y="-84"/>
      <point x="58" y="-154" type="curve" smooth="yes"/>
      <point x="58" y="-308"/>
      <point x="2" y="-350"/>
      <point x="-68" y="-350" type="curve" smooth="yes"/>
      <point x="-135" y="-350"/>
      <point x="-168" y="-308"/>
      <point x="-168" y="-224" type="curve" smooth="yes"/>
      <point x="-168" y="-220" type="line" smooth="yes"/>
      <point x="-168" y="-157"/>
      <point x="-145" y="-120"/>
      <point x="-114" y="-120" type="curve" smooth="yes"/>
      <point x="-94" y="-120"/>
      <point x="-80" y="-133"/>
      <point x="-80" y="-164" type="curve" smooth="yes"/>
      <point x="-80" y="-197"/>
      <point x="-97" y="-212"/>
      <point x="-128" y="-212" type="curve" smooth="yes"/>
      <point x="-154" y="-212"/>
      <point x="-176" y="-202"/>
      <point x="-193" y="-183" type="curve"/>
      <point x="-188" y="-248" type="line"/>
      <point x="-171" y="-264"/>
      <point x="-145" y="-272"/>
      <point x="-121" y="-272" type="curve" smooth="yes"/>
      <point x="-48" y="-272"/>
      <point x="-15" y="-228"/>
      <point x="-15" y="-166" type="curve" smooth="yes"/>
      <point x="-15" y="-107"/>
      <point x="-46" y="-60"/>
      <point x="-111" y="-60" type="curve" smooth="yes"/>
      <point x="-184" y="-60"/>
      <point x="-232" y="-130"/>
      <point x="-232" y="-222" type="curve" smooth="yes"/>
      <point x="-232" y="-333"/>
      <point x="-175" y="-415"/>
    </contour>
  </outline>
</glyph>
<glyph name="rrvocalicvowelsignknda" format="2">
  <advance width="406"/>
  <unicode hex="0CC4"/>
  <outline>
    <contour>
      <point x="-68" y="-415" type="curve" smooth="yes"/>
      <point x="53" y="-415"/>
      <point x="128" y="-333"/>
      <point x="128" y="-155" type="curve" smooth="yes"/>
      <point x="128" y="-74"/>
      <point x="105" y="8"/>
      <point x="72" y="70" type="curve"/>
      <point x="53" y="79" type="line"/>
      <point x="12" y="39" type="line"/>
      <point x="39" y="-14"/>
      <point x="58" y="-84"/>
      <point x="58" y="-154" type="curve" smooth="yes"/>
      <point x="58" y="-308"/>
      <point x="2" y="-350"/>
      <point x="-68" y="-350" type="curve" smooth="yes"/>
      <point x="-135" y="-350"/>
      <point x="-168" y="-308"/>
      <point x="-168" y="-224" type="curve" smooth="yes"/>
      <point x="-168" y="-220" type="line" smooth="yes"/>
      <point x="-168" y="-157"/>
      <point x="-145" y="-120"/>
      <point x="-114" y="-120" type="curve" smooth="yes"/>
      <point x="-94" y="-120"/>
      <point x="-80" y="-133"/>
      <point x="-80" y="-164" type="curve" smooth="yes"/>
      <point x="-80" y="-197"/>
      <point x="-97" y="-212"/>
      <point x="-128" y="-212" type="curve" smooth="yes"/>
      <point x="-154" y="-212"/>
      <point x="-176" y="-202"/>
      <point x="-193" y="-183" type="curve"/>
      <point x="-188" y="-248" type="line"/>
      <point x="-171" y="-264"/>
      <point x="-145" y="-272"/>
      <point x="-121" y="-272" type="curve" smooth="yes"/>
      <point x="-48" y="-272"/>
      <point x="-15" y="-228"/>
      <point x="-15" y="-166" type="curve" smooth="yes"/>
      <point x="-15" y="-107"/>
      <point x="-46" y="-60"/>
      <point x="-111" y="-60" type="curve" smooth="yes"/>
      <point x="-184" y="-60"/>
      <point x="-232" y="-130"/>
      <point x="-232" y="-222" type="curve" smooth="yes"/>
      <point x="-232" y="-333"/>
      <point x="-175" y="-415"/>
    </contour>
    <contour>
      <point x="284" y="-345" type="curve" smooth="yes"/>
      <point x="375" y="-345"/>
      <point x="420" y="-271"/>
      <point x="420" y="-158" type="curve" smooth="yes"/>
      <point x="420" y="-72"/>
      <point x="396" y="-10"/>
      <point x="343" y="31" type="curve" smooth="yes"/>
      <point x="303" y="62"/>
      <point x="251" y="79"/>
      <point x="149" y="79" type="curve" smooth="yes"/>
      <point x="53" y="79" type="line"/>
      <point x="58" y="11" type="line"/>
      <point x="156" y="11" type="line" smooth="yes"/>
      <point x="241" y="11"/>
      <point x="277" y="-2"/>
      <point x="305" y="-28" type="curve" smooth="yes"/>
      <point x="335" y="-56"/>
      <point x="350" y="-96"/>
      <point x="350" y="-158" type="curve" smooth="yes"/>
      <point x="350" y="-242"/>
      <point x="325" y="-280"/>
      <point x="280" y="-280" type="curve" smooth="yes"/>
      <point x="240" y="-280"/>
      <point x="232" y="-248"/>
      <point x="232" y="-216" type="curve" smooth="yes"/>
      <point x="232" y="-200"/>
      <point x="235" y="-185"/>
      <point x="240" y="-171" type="curve"/>
      <point x="231" y="-174" type="line"/>
      <point x="235" y="-204"/>
      <point x="251" y="-213"/>
      <point x="269" y="-213" type="curve" smooth="yes"/>
      <point x="290" y="-213"/>
      <point x="306" y="-198"/>
      <point x="306" y="-165" type="curve" smooth="yes"/>
      <point x="306" y="-130"/>
      <point x="286" y="-109"/>
      <point x="250" y="-109" type="curve" smooth="yes"/>
      <point x="207" y="-109"/>
      <point x="170" y="-146"/>
      <point x="170" y="-219" type="curve" smooth="yes"/>
      <point x="170" y="-286"/>
      <point x="203" y="-345"/>
    </contour>
  </outline>
</glyph>
<glyph name="evowelsignknda" format="2">
  <unicode hex="0CC6"/>
  <outline>
    <contour>
      <point x="-509" y="477" type="line"/>
      <point x="-219" y="477" type="line" smooth="yes"/>
      <point x="-130" y="477"/>
      <point x="-94" y="497"/>
      <point x="-68" y="527" type="curve" smooth="yes"/>
      <point x="-43" y="555"/>
      <point x="-30" y="595"/>
      <point x="-30" y="641" type="curve" smooth="yes"/>
      <point x="-30" y="738"/>
      <point x="-81" y="808"/>
      <point x="-165" y="808" type="curve" smooth="yes"/>
      <point x="-244" y="808"/>
      <point x="-291" y="750"/>
      <point x="-291" y="677" type="curve" smooth="yes"/>
      <point x="-291" y="641"/>
      <point x="-275" y="602"/>
      <point x="-232" y="602" type="curve" smooth="yes"/>
      <point x="-206" y="602"/>
      <point x="-186" y="616"/>
      <point x="-186" y="649" type="curve" smooth="yes"/>
      <point x="-186" y="674"/>
      <point x="-203" y="691"/>
      <point x="-227" y="691" type="curve" smooth="yes"/>
      <point x="-235" y="691"/>
      <point x="-244" y="689"/>
      <point x="-252" y="685" type="curve"/>
      <point x="-229" y="646" type="line"/>
      <point x="-230" y="653"/>
      <point x="-230" y="660"/>
      <point x="-230" y="674" type="curve" smooth="yes"/>
      <point x="-230" y="708"/>
      <point x="-207" y="742"/>
      <point x="-167" y="742" type="curve" smooth="yes"/>
      <point x="-130" y="742"/>
      <point x="-102" y="710"/>
      <point x="-102" y="652" type="curve" smooth="yes"/>
      <point x="-102" y="618"/>
      <point x="-109" y="594"/>
      <point x="-126" y="577" type="curve" smooth="yes"/>
      <point x="-144" y="559"/>
      <point x="-165" y="551"/>
      <point x="-228" y="551" type="curve" smooth="yes"/>
      <point x="-509" y="551" type="line"/>
    </contour>
  </outline>
</glyph>
<glyph name="auvowelsignknda" format="2">
  <advance width="337"/>
  <unicode hex="0CCC"/>
  <outline>
    <contour>
      <point x="27" y="608" type="curve" smooth="yes"/>
      <point x="27" y="648"/>
      <point x="10" y="692"/>
      <point x="-8" y="717" type="curve"/>
      <point x="-82" y="710" type="line"/>
      <point x="-54" y="680"/>
      <point x="-46" y="638"/>
      <point x="-46" y="623" type="curve" smooth="yes"/>
      <point x="-46" y="598"/>
      <point x="-50" y="580"/>
      <point x="-62" y="568" type="curve" smooth="yes"/>
      <point x="-74" y="557"/>
      <point x="-91" y="551"/>
      <point x="-132" y="551" type="curve" smooth="yes"/>
      <point x="-196" y="551" type="line"/>
      <point x="-196" y="477" type="line"/>
      <point x="-136" y="477" type="line" smooth="yes"/>
      <point x="-64" y="477"/>
      <point x="-30" y="491"/>
      <point x="-7" y="515" type="curve" smooth="yes"/>
      <point x="15" y="538"/>
      <point x="27" y="570"/>
    </contour>
    <contour>
      <point x="314" y="466" type="curve" smooth="yes"/>
      <point x="314" y="580"/>
      <point x="283" y="665"/>
      <point x="222" y="716" type="curve" smooth="yes"/>
      <point x="170" y="759"/>
      <point x="108" y="781"/>
      <point x="-14" y="781" type="curve" smooth="yes"/>
      <point x="-194" y="781" type="line"/>
      <point x="-194" y="707" type="line"/>
      <point x="-17" y="707" type="line" smooth="yes"/>
      <point x="75" y="707"/>
      <point x="120" y="694"/>
      <point x="157" y="669" type="curve" smooth="yes"/>
      <point x="214" y="630"/>
      <point x="238" y="563"/>
      <point x="238" y="466" type="curve" smooth="yes"/>
      <point x="238" y="339"/>
      <point x="206" y="288"/>
      <point x="150" y="288" type="curve" smooth="yes"/>
      <point x="101" y="288"/>
      <point x="86" y="334"/>
      <point x="86" y="379" type="curve" smooth="yes"/>
      <point x="86" y="402"/>
      <point x="90" y="423"/>
      <point x="100" y="446" type="curve"/>
      <point x="83" y="434" type="line"/>
      <point x="89" y="404"/>
      <point x="99" y="386"/>
      <point x="128" y="386" type="curve" smooth="yes"/>
      <point x="154" y="386"/>
      <point x="173" y="403"/>
      <point x="173" y="443" type="curve" smooth="yes"/>
      <point x="173" y="483"/>
      <point x="149" y="506"/>
      <point x="110" y="506" type="curve" smooth="yes"/>
      <point x="60" y="506"/>
      <point x="20" y="465"/>
      <point x="20" y="377" type="curve" smooth="yes"/>
      <point x="20" y="285"/>
      <point x="68" y="218"/>
      <point x="154" y="218" type="curve" smooth="yes"/>
      <point x="254" y="218"/>
      <point x="314" y="305"/>
    </contour>
  </outline>
</glyph>
<glyph name="viramaknda" format="2">
  <advance width="251"/>
  <unicode hex="0CCD"/>
  <outline>
    <contour>
      <point x="126" y="296" type="curve" smooth="yes"/>
      <point x="188" y="296"/>
      <point x="236" y="338"/>
      <point x="236" y="413" type="curve" smooth="yes"/>
      <point x="236" y="461"/>
      <point x="219" y="497"/>
      <point x="189" y="520" type="curve" smooth="yes"/>
      <point x="162" y="540"/>
      <point x="130" y="551"/>
      <point x="59" y="551" type="curve" smooth="yes"/>
      <point x="-160" y="551" type="line"/>
      <point x="-160" y="477" type="line"/>
      <point x="69" y="477" type="line" smooth="yes"/>
      <point x="112" y="477"/>
      <point x="130" y="473"/>
      <point x="146" y="460" type="curve" smooth="yes"/>
      <point x="158" y="450"/>
      <point x="166" y="434"/>
      <point x="166" y="408" type="curve" smooth="yes"/>
      <point x="166" y="377"/>
      <point x="150" y="362"/>
      <point x="128" y="362" type="curve" smooth="yes"/>
      <point x="89" y="362"/>
      <point x="71" y="393"/>
      <point x="71" y="458" type="curve" smooth="yes"/>
      <point x="71" y="484" type="line" smooth="yes"/>
      <point x="71" y="602"/>
      <point x="122" y="630"/>
      <point x="169" y="630" type="curve" smooth="yes"/>
      <point x="193" y="630"/>
      <point x="210" y="625"/>
      <point x="231" y="616" type="curve"/>
      <point x="263" y="678" type="line"/>
      <point x="238" y="689"/>
      <point x="210" y="697"/>
      <point x="171" y="697" type="curve" smooth="yes"/>
      <point x="68" y="697"/>
      <point x="1" y="623"/>
      <point x="1" y="491" type="curve" smooth="yes"/>
      <point x="1" y="469" type="line" smooth="yes"/>
      <point x="1" y="351"/>
      <point x="51" y="296"/>
    </contour>
  </outline>
</glyph>
<glyph name="lengthmarkknda" format="2">
  <advance width="331"/>
  <unicode hex="0CD5"/>
  <outline>
    <contour>
      <point x="306" y="432" type="curve" smooth="yes"/>
      <point x="306" y="513"/>
      <point x="260" y="563"/>
      <point x="188" y="563" type="curve" smooth="yes"/>
      <point x="97" y="563"/>
      <point x="33" y="480"/>
      <point x="33" y="334" type="curve" smooth="yes"/>
      <point x="33" y="178"/>
      <point x="102" y="66"/>
      <point x="188" y="-12" type="curve"/>
      <point x="243" y="49" type="line"/>
      <point x="176" y="99"/>
      <point x="106" y="193"/>
      <point x="106" y="318" type="curve" smooth="yes"/>
      <point x="106" y="338" type="line" smooth="yes"/>
      <point x="106" y="448"/>
      <point x="144" y="497"/>
      <point x="184" y="497" type="curve" smooth="yes"/>
      <point x="212" y="497"/>
      <point x="231" y="475"/>
      <point x="231" y="427" type="curve" smooth="yes"/>
      <point x="231" y="376"/>
      <point x="206" y="346"/>
      <point x="159" y="346" type="curve" smooth="yes"/>
      <point x="124" y="346"/>
      <point x="93" y="366"/>
      <point x="72" y="392" type="curve"/>
      <point x="51" y="333" type="line"/>
      <point x="80" y="304"/>
      <point x="123" y="280"/>
      <point x="167" y="280" type="curve" smooth="yes"/>
      <point x="255" y="280"/>
      <point x="306" y="340"/>
    </contour>
  </outline>
</glyph>
<glyph name="ailengthmarkknda" format="2">
  <advance width="161"/>
  <unicode hex="0CD6"/>
  <outline>
    <contour>
      <point x="-47" y="-415" type="curve" smooth="yes"/>
      <point x="66" y="-415"/>
      <point x="146" y="-340"/>
      <point x="146" y="-197" type="curve" smooth="yes"/>
      <point x="146" y="-127"/>
      <point x="124" y="-74"/>
      <point x="95" y="-21" type="curve"/>
      <point x="98" y="-53" type="line"/>
      <point x="118" y="-29"/>
      <point x="141" y="-1"/>
      <point x="141" y="55" type="curve" smooth="yes"/>
      <point x="141" y="105"/>
      <point x="123" y="151"/>
      <point x="71" y="203" type="curve"/>
      <point x="17" y="154" type="line"/>
      <point x="48" y="124"/>
      <point x="69" y="95"/>
      <point x="69" y="51" type="curve" smooth="yes"/>
      <point x="69" y="12"/>
      <point x="51" y="-12"/>
      <point x="25" y="-39" type="curve"/>
      <point x="52" y="-78"/>
      <point x="76" y="-130"/>
      <point x="76" y="-195" type="curve" smooth="yes"/>
      <point x="76" y="-310"/>
      <point x="12" y="-350"/>
      <point x="-48" y="-350" type="curve" smooth="yes"/>
      <point x="-123" y="-350"/>
      <point x="-155" y="-308"/>
      <point x="-155" y="-224" type="curve" smooth="yes"/>
      <point x="-155" y="-220" type="line" smooth="yes"/>
      <point x="-155" y="-157"/>
      <point x="-132" y="-120"/>
      <point x="-101" y="-120" type="curve" smooth="yes"/>
      <point x="-81" y="-120"/>
      <point x="-67" y="-133"/>
      <point x="-67" y="-164" type="curve" smooth="yes"/>
      <point x="-67" y="-197"/>
      <point x="-84" y="-212"/>
      <point x="-115" y="-212" type="curve" smooth="yes"/>
      <point x="-141" y="-212"/>
      <point x="-163" y="-202"/>
      <point x="-180" y="-183" type="curve"/>
      <point x="-175" y="-248" type="line"/>
      <point x="-158" y="-264"/>
      <point x="-132" y="-272"/>
      <point x="-108" y="-272" type="curve" smooth="yes"/>
      <point x="-35" y="-272"/>
      <point x="-2" y="-228"/>
      <point x="-2" y="-166" type="curve" smooth="yes"/>
      <point x="-2" y="-107"/>
      <point x="-33" y="-60"/>
      <point x="-98" y="-60" type="curve" smooth="yes"/>
      <point x="-171" y="-60"/>
      <point x="-219" y="-130"/>
      <point x="-219" y="-222" type="curve" smooth="yes"/>
      <point x="-219" y="-333"/>
      <point x="-164" y="-415"/>
    </contour>
  </outline>
</glyph>
<glyph name="faknda" format="2">
  <advance width="686"/>
  <unicode hex="0CDE"/>
  <outline>
    <contour>
      <point x="208" y="-12" type="curve" smooth="yes"/>
      <point x="279" y="-12"/>
      <point x="325" y="20"/>
      <point x="358" y="113" type="curve"/>
      <point x="328" y="113" type="line"/>
      <point x="361" y="20"/>
      <point x="407" y="-12"/>
      <point x="478" y="-12" type="curve" smooth="yes"/>
      <point x="578" y="-12"/>
      <point x="648" y="77"/>
      <point x="648" y="258" type="curve" smooth="yes"/>
      <point x="648" y="455"/>
      <point x="575" y="563"/>
      <point x="469" y="563" type="curve" smooth="yes"/>
      <point x="403" y="563"/>
      <point x="356" y="515"/>
      <point x="356" y="429" type="curve" smooth="yes"/>
      <point x="356" y="334"/>
      <point x="405" y="281"/>
      <point x="490" y="281" type="curve" smooth="yes"/>
      <point x="537" y="281"/>
      <point x="574" y="306"/>
      <point x="603" y="333" type="curve"/>
      <point x="581" y="398" type="line"/>
      <point x="564" y="373"/>
      <point x="536" y="348"/>
      <point x="492" y="348" type="curve" smooth="yes"/>
      <point x="449" y="348"/>
      <point x="426" y="375"/>
      <point x="426" y="427" type="curve" smooth="yes"/>
      <point x="426" y="475"/>
      <point x="445" y="496"/>
      <point x="471" y="496" type="curve" smooth="yes"/>
      <point x="522" y="496"/>
      <point x="573" y="436"/>
      <point x="573" y="250" type="curve" smooth="yes"/>
      <point x="573" y="114"/>
      <point x="533" y="63"/>
      <point x="474" y="63" type="curve" smooth="yes"/>
      <point x="416" y="63"/>
      <point x="384" y="101"/>
      <point x="378" y="194" type="curve"/>
      <point x="308" y="194" type="line"/>
      <point x="302" y="101"/>
      <point x="270" y="63"/>
      <point x="212" y="63" type="curve" smooth="yes"/>
      <point x="153" y="63"/>
      <point x="113" y="114"/>
      <point x="113" y="250" type="curve" smooth="yes"/>
      <point x="113" y="436"/>
      <point x="164" y="496"/>
      <point x="215" y="496" type="curve" smooth="yes"/>
      <point x="241" y="496"/>
      <point x="260" y="475"/>
      <point x="260" y="427" type="curve" smooth="yes"/>
      <point x="260" y="375"/>
      <point x="237" y="348"/>
      <point x="194" y="348" type="curve" smooth="yes"/>
      <point x="150" y="348"/>
      <point x="122" y="373"/>
      <point x="105" y="398" type="curve"/>
      <point x="83" y="333" type="line"/>
      <point x="112" y="306"/>
      <point x="149" y="281"/>
      <point x="196" y="281" type="curve" smooth="yes"/>
      <point x="281" y="281"/>
      <point x="330" y="334"/>
      <point x="330" y="429" type="curve" smooth="yes"/>
      <point x="330" y="515"/>
      <point x="283" y="563"/>
      <point x="217" y="563" type="curve" smooth="yes"/>
      <point x="111" y="563"/>
      <point x="38" y="456"/>
      <point x="38" y="258" type="curve" smooth="yes"/>
      <point x="38" y="77"/>
      <point x="108" y="-12"/>
    </contour>
  </outline>
</glyph>
<glyph name="rrvocalicknda" format="2">
  <advance width="1249"/>
  <unicode hex="0CE0"/>
  <outline>
    <contour>
      <point x="167" y="-12" type="curve" smooth="yes"/>
      <point x="322" y="-12"/>
      <point x="357" y="126"/>
      <point x="357" y="279" type="curve" smooth="yes"/>
      <point x="357" y="415"/>
      <point x="305" y="563"/>
      <point x="162" y="563" type="curve" smooth="yes"/>
      <point x="84" y="563"/>
      <point x="28" y="510"/>
      <point x="28" y="433" type="curve" smooth="yes"/>
      <point x="28" y="342"/>
      <point x="81" y="304"/>
      <point x="137" y="304" type="curve" smooth="yes"/>
      <point x="197" y="304"/>
      <point x="239" y="337"/>
      <point x="239" y="424" type="curve" smooth="yes"/>
      <point x="239" y="465"/>
      <point x="222" y="500"/>
      <point x="204" y="526" type="curve"/>
      <point x="150" y="515" type="line"/>
      <point x="167" y="497"/>
      <point x="181" y="468"/>
      <point x="181" y="430" type="curve" smooth="yes"/>
      <point x="181" y="383"/>
      <point x="165" y="369"/>
      <point x="142" y="369" type="curve" smooth="yes"/>
      <point x="112" y="369"/>
      <point x="98" y="393"/>
      <point x="98" y="434" type="curve" smooth="yes"/>
      <point x="98" y="472"/>
      <point x="116" y="500"/>
      <point x="158" y="500" type="curve" smooth="yes"/>
      <point x="180" y="500"/>
      <point x="199" y="494"/>
      <point x="213" y="483" type="curve" smooth="yes"/>
      <point x="218" y="480"/>
      <point x="222" y="484"/>
      <point x="226" y="480" type="curve" smooth="yes"/>
      <point x="264" y="440"/>
      <point x="282" y="361"/>
      <point x="282" y="279" type="curve" smooth="yes"/>
      <point x="282" y="188"/>
      <point x="268" y="87"/>
      <point x="222" y="59" type="curve" smooth="yes"/>
      <point x="220" y="57"/>
      <point x="215" y="62"/>
      <point x="213" y="60" type="curve"/>
      <point x="199" y="55"/>
      <point x="182" y="51"/>
      <point x="162" y="51" type="curve" smooth="yes"/>
      <point x="127" y="51"/>
      <point x="100" y="75"/>
      <point x="100" y="122" type="curve" smooth="yes"/>
      <point x="100" y="158"/>
      <point x="115" y="183"/>
      <point x="144" y="183" type="curve" smooth="yes"/>
      <point x="167" y="183"/>
      <point x="184" y="164"/>
      <point x="184" y="125" type="curve" smooth="yes"/>
      <point x="184" y="90"/>
      <point x="173" y="60"/>
      <point x="155" y="36" type="curve"/>
      <point x="211" y="26" type="line"/>
      <point x="226" y="54"/>
      <point x="242" y="88"/>
      <point x="242" y="133" type="curve" smooth="yes"/>
      <point x="242" y="202"/>
      <point x="205" y="248"/>
      <point x="142" y="248" type="curve" smooth="yes"/>
      <point x="84" y="248"/>
      <point x="30" y="209"/>
      <point x="30" y="125" type="curve" smooth="yes"/>
      <point x="30" y="43"/>
      <point x="86" y="-12"/>
    </contour>
    <contour>
      <point x="470" y="-12" type="curve" smooth="yes"/>
      <point x="584" y="-12"/>
      <point x="632" y="88"/>
      <point x="632" y="210" type="curve" smooth="yes"/>
      <point x="632" y="336"/>
      <point x="579" y="442"/>
      <point x="486" y="507" type="curve"/>
      <point x="412" y="484" type="line"/>
      <point x="502" y="432"/>
      <point x="556" y="315"/>
      <point x="556" y="208" type="curve" smooth="yes"/>
      <point x="556" y="113"/>
      <point x="527" y="63"/>
      <point x="460" y="63" type="curve" smooth="yes"/>
      <point x="415" y="63"/>
      <point x="373" y="84"/>
      <point x="328" y="147" type="curve"/>
      <point x="282" y="99" type="line"/>
      <point x="336" y="25"/>
      <point x="384" y="-12"/>
    </contour>
    <contour>
      <point x="379" y="477" type="line"/>
      <point x="461" y="477" type="line" smooth="yes"/>
      <point x="531" y="477"/>
      <point x="564" y="492"/>
      <point x="591" y="516" type="curve" smooth="yes"/>
      <point x="614" y="537"/>
      <point x="628" y="574"/>
      <point x="628" y="613" type="curve" smooth="yes"/>
      <point x="628" y="678"/>
      <point x="607" y="725"/>
      <point x="556" y="790" type="curve"/>
      <point x="495" y="750" type="line"/>
      <point x="532" y="707"/>
      <point x="555" y="663"/>
      <point x="555" y="620" type="curve" smooth="yes"/>
      <point x="555" y="600"/>
      <point x="551" y="584"/>
      <point x="540" y="573" type="curve" smooth="yes"/>
      <point x="525" y="558"/>
      <point x="505" y="551"/>
      <point x="448" y="551" type="curve" smooth="yes"/>
      <point x="379" y="551" type="line"/>
    </contour>
    <component base="uuvowelsignknda" xOffset="668"/>
  </outline>
</glyph>
<glyph name="llvocalicknda" format="2">
  <advance width="994"/>
  <unicode hex="0CE1"/>
  <outline>
    <contour>
      <point x="343" y="-12" type="curve" smooth="yes"/>
      <point x="507" y="-12"/>
      <point x="618" y="94"/>
      <point x="618" y="288" type="curve" smooth="yes"/>
      <point x="618" y="356"/>
      <point x="605" y="426"/>
      <point x="572" y="501" type="curve"/>
      <point x="571" y="477" type="line"/>
      <point x="625" y="477" type="line" smooth="yes"/>
      <point x="717" y="477"/>
      <point x="762" y="464"/>
      <point x="799" y="439" type="curve" smooth="yes"/>
      <point x="856" y="400"/>
      <point x="880" y="333"/>
      <point x="880" y="236" type="curve" smooth="yes"/>
      <point x="880" y="109"/>
      <point x="848" y="58"/>
      <point x="792" y="58" type="curve" smooth="yes"/>
      <point x="743" y="58"/>
      <point x="728" y="104"/>
      <point x="728" y="149" type="curve" smooth="yes"/>
      <point x="728" y="172"/>
      <point x="732" y="193"/>
      <point x="742" y="216" type="curve"/>
      <point x="725" y="204" type="line"/>
      <point x="731" y="174"/>
      <point x="740" y="156"/>
      <point x="770" y="156" type="curve" smooth="yes"/>
      <point x="796" y="156"/>
      <point x="815" y="173"/>
      <point x="815" y="213" type="curve" smooth="yes"/>
      <point x="815" y="253"/>
      <point x="791" y="276"/>
      <point x="752" y="276" type="curve" smooth="yes"/>
      <point x="702" y="276"/>
      <point x="662" y="235"/>
      <point x="662" y="147" type="curve" smooth="yes"/>
      <point x="662" y="55"/>
      <point x="710" y="-12"/>
      <point x="796" y="-12" type="curve" smooth="yes"/>
      <point x="896" y="-12"/>
      <point x="956" y="75"/>
      <point x="956" y="236" type="curve" smooth="yes"/>
      <point x="956" y="350"/>
      <point x="927" y="435"/>
      <point x="864" y="487" type="curve" smooth="yes"/>
      <point x="812" y="530"/>
      <point x="750" y="551"/>
      <point x="628" y="551" type="curve" smooth="yes"/>
      <point x="532" y="551" type="line"/>
      <point x="490" y="496" type="line"/>
      <point x="522" y="434"/>
      <point x="542" y="360"/>
      <point x="542" y="286" type="curve" smooth="yes"/>
      <point x="542" y="142"/>
      <point x="471" y="63"/>
      <point x="345" y="63" type="curve" smooth="yes"/>
      <point x="271" y="63"/>
      <point x="244" y="100"/>
      <point x="244" y="149" type="curve" smooth="yes"/>
      <point x="244" y="193"/>
      <point x="269" y="218"/>
      <point x="333" y="246" type="curve" smooth="yes"/>
      <point x="427" y="287"/>
      <point x="466" y="339"/>
      <point x="466" y="417" type="curve" smooth="yes"/>
      <point x="466" y="506"/>
      <point x="423" y="563"/>
      <point x="350" y="563" type="curve" smooth="yes"/>
      <point x="297" y="563"/>
      <point x="253" y="525"/>
      <point x="235" y="447" type="curve"/>
      <point x="255" y="448" type="line"/>
      <point x="230" y="530"/>
      <point x="188" y="563"/>
      <point x="137" y="563" type="curve" smooth="yes"/>
      <point x="74" y="563"/>
      <point x="25" y="513"/>
      <point x="25" y="430" type="curve" smooth="yes"/>
      <point x="25" y="384"/>
      <point x="33" y="354"/>
      <point x="42" y="329" type="curve"/>
      <point x="113" y="348" type="line"/>
      <point x="108" y="363"/>
      <point x="101" y="392"/>
      <point x="101" y="422" type="curve" smooth="yes"/>
      <point x="101" y="463"/>
      <point x="116" y="488"/>
      <point x="144" y="488" type="curve" smooth="yes"/>
      <point x="179" y="488"/>
      <point x="204" y="452"/>
      <point x="209" y="378" type="curve"/>
      <point x="277" y="378" type="line"/>
      <point x="282" y="449"/>
      <point x="307" y="488"/>
      <point x="344" y="488" type="curve" smooth="yes"/>
      <point x="373" y="488"/>
      <point x="390" y="463"/>
      <point x="390" y="418" type="curve" smooth="yes"/>
      <point x="390" y="358"/>
      <point x="361" y="334"/>
      <point x="293" y="304" type="curve" smooth="yes"/>
      <point x="221" y="272"/>
      <point x="168" y="233"/>
      <point x="168" y="147" type="curve" smooth="yes"/>
      <point x="168" y="49"/>
      <point x="237" y="-12"/>
    </contour>
  </outline>
</glyph>
<glyph name="lvocalicvowelsignknda" format="2">
  <advance width="80"/>
  <unicode hex="0CE2"/>
  <outline>
    <contour>
      <point x="107" y="-180" type="curve" smooth="yes"/>
      <point x="107" y="-95"/>
      <point x="59" y="-55"/>
      <point x="6" y="-55" type="curve" smooth="yes"/>
      <point x="-34" y="-55"/>
      <point x="-65" y="-71"/>
      <point x="-90" y="-134" type="curve"/>
      <point x="-66" y="-132" type="line"/>
      <point x="-85" y="-84"/>
      <point x="-111" y="-55"/>
      <point x="-159" y="-55" type="curve" smooth="yes"/>
      <point x="-215" y="-55"/>
      <point x="-249" y="-97"/>
      <point x="-249" y="-157" type="curve" smooth="yes"/>
      <point x="-249" y="-191"/>
      <point x="-239" y="-222"/>
      <point x="-232" y="-239" type="curve"/>
      <point x="-171" y="-223" type="line"/>
      <point x="-179" y="-204"/>
      <point x="-184" y="-183"/>
      <point x="-184" y="-166" type="curve" smooth="yes"/>
      <point x="-184" y="-134"/>
      <point x="-171" y="-119"/>
      <point x="-149" y="-119" type="curve" smooth="yes"/>
      <point x="-126" y="-119"/>
      <point x="-110" y="-137"/>
      <point x="-106" y="-186" type="curve"/>
      <point x="-47" y="-186" type="line"/>
      <point x="-45" y="-136"/>
      <point x="-27" y="-117"/>
      <point x="-1" y="-117" type="curve" smooth="yes"/>
      <point x="25" y="-117"/>
      <point x="44" y="-140"/>
      <point x="44" y="-175" type="curve" smooth="yes"/>
      <point x="44" y="-195"/>
      <point x="41" y="-217"/>
      <point x="31" y="-233" type="curve"/>
      <point x="74" y="-284" type="line"/>
      <point x="92" y="-260"/>
      <point x="107" y="-215"/>
    </contour>
    <contour>
      <point x="43" y="-457" type="curve" smooth="yes"/>
      <point x="70" y="-457"/>
      <point x="96" y="-453"/>
      <point x="119" y="-443" type="curve"/>
      <point x="100" y="-387" type="line"/>
      <point x="80" y="-395"/>
      <point x="67" y="-398"/>
      <point x="48" y="-398" type="curve" smooth="yes"/>
      <point x="18" y="-398"/>
      <point x="-9" y="-389"/>
      <point x="-9" y="-349" type="curve" smooth="yes"/>
      <point x="-9" y="-310"/>
      <point x="24" y="-292"/>
      <point x="74" y="-284" type="curve"/>
      <point x="50" y="-226" type="line"/>
      <point x="-43" y="-249"/>
      <point x="-72" y="-292"/>
      <point x="-72" y="-347" type="curve" smooth="yes"/>
      <point x="-72" y="-417"/>
      <point x="-26" y="-457"/>
    </contour>
  </outline>
</glyph>
